%TF.GenerationSoftware,KiCad,Pcbnew,(5.1.6)-1*%
%TF.CreationDate,2020-05-30T13:08:14+03:00*%
%TF.ProjectId,stm32f334_1S_charger,73746d33-3266-4333-9334-5f31535f6368,rev?*%
%TF.SameCoordinates,Original*%
%TF.FileFunction,Copper,L2,Bot*%
%TF.FilePolarity,Positive*%
%FSLAX46Y46*%
G04 Gerber Fmt 4.6, Leading zero omitted, Abs format (unit mm)*
G04 Created by KiCad (PCBNEW (5.1.6)-1) date 2020-05-30 13:08:14*
%MOMM*%
%LPD*%
G01*
G04 APERTURE LIST*
%TA.AperFunction,ComponentPad*%
%ADD10R,1.600000X1.600000*%
%TD*%
%TA.AperFunction,ComponentPad*%
%ADD11C,1.600000*%
%TD*%
%TA.AperFunction,ComponentPad*%
%ADD12R,2.400000X2.400000*%
%TD*%
%TA.AperFunction,ComponentPad*%
%ADD13C,2.400000*%
%TD*%
%TA.AperFunction,ComponentPad*%
%ADD14R,2.000000X2.000000*%
%TD*%
%TA.AperFunction,ComponentPad*%
%ADD15C,2.000000*%
%TD*%
%TA.AperFunction,ComponentPad*%
%ADD16R,1.700000X1.700000*%
%TD*%
%TA.AperFunction,ComponentPad*%
%ADD17O,1.700000X1.700000*%
%TD*%
%TA.AperFunction,ViaPad*%
%ADD18C,0.800000*%
%TD*%
%TA.AperFunction,Conductor*%
%ADD19C,0.300000*%
%TD*%
%TA.AperFunction,Conductor*%
%ADD20C,0.500000*%
%TD*%
%TA.AperFunction,Conductor*%
%ADD21C,2.000000*%
%TD*%
%TA.AperFunction,Conductor*%
%ADD22C,0.254000*%
%TD*%
G04 APERTURE END LIST*
%TO.P,C1,1*%
%TO.N,GND*%
%TA.AperFunction,SMDPad,CuDef*%
G36*
G01*
X23075000Y-37912500D02*
X24325000Y-37912500D01*
G75*
G02*
X24575000Y-38162500I0J-250000D01*
G01*
X24575000Y-39087500D01*
G75*
G02*
X24325000Y-39337500I-250000J0D01*
G01*
X23075000Y-39337500D01*
G75*
G02*
X22825000Y-39087500I0J250000D01*
G01*
X22825000Y-38162500D01*
G75*
G02*
X23075000Y-37912500I250000J0D01*
G01*
G37*
%TD.AperFunction*%
%TO.P,C1,2*%
%TO.N,+5V*%
%TA.AperFunction,SMDPad,CuDef*%
G36*
G01*
X23075000Y-40887500D02*
X24325000Y-40887500D01*
G75*
G02*
X24575000Y-41137500I0J-250000D01*
G01*
X24575000Y-42062500D01*
G75*
G02*
X24325000Y-42312500I-250000J0D01*
G01*
X23075000Y-42312500D01*
G75*
G02*
X22825000Y-42062500I0J250000D01*
G01*
X22825000Y-41137500D01*
G75*
G02*
X23075000Y-40887500I250000J0D01*
G01*
G37*
%TD.AperFunction*%
%TD*%
D10*
%TO.P,C3,1*%
%TO.N,+5V*%
X26200000Y-41600000D03*
D11*
%TO.P,C3,2*%
%TO.N,GND*%
X26200000Y-39100000D03*
%TD*%
D12*
%TO.P,C4,1*%
%TO.N,+12V*%
X24500000Y-23400000D03*
D13*
%TO.P,C4,2*%
%TO.N,GND*%
X24500000Y-28400000D03*
%TD*%
%TO.P,C5,1*%
%TO.N,GND*%
%TA.AperFunction,SMDPad,CuDef*%
G36*
G01*
X27725000Y-27100000D02*
X26475000Y-27100000D01*
G75*
G02*
X26225000Y-26850000I0J250000D01*
G01*
X26225000Y-25925000D01*
G75*
G02*
X26475000Y-25675000I250000J0D01*
G01*
X27725000Y-25675000D01*
G75*
G02*
X27975000Y-25925000I0J-250000D01*
G01*
X27975000Y-26850000D01*
G75*
G02*
X27725000Y-27100000I-250000J0D01*
G01*
G37*
%TD.AperFunction*%
%TO.P,C5,2*%
%TO.N,+12V*%
%TA.AperFunction,SMDPad,CuDef*%
G36*
G01*
X27725000Y-24125000D02*
X26475000Y-24125000D01*
G75*
G02*
X26225000Y-23875000I0J250000D01*
G01*
X26225000Y-22950000D01*
G75*
G02*
X26475000Y-22700000I250000J0D01*
G01*
X27725000Y-22700000D01*
G75*
G02*
X27975000Y-22950000I0J-250000D01*
G01*
X27975000Y-23875000D01*
G75*
G02*
X27725000Y-24125000I-250000J0D01*
G01*
G37*
%TD.AperFunction*%
%TD*%
D14*
%TO.P,C16,1*%
%TO.N,Net-(C16-Pad1)*%
X77900000Y-27200000D03*
D15*
%TO.P,C16,2*%
%TO.N,GND*%
X72900000Y-27200000D03*
%TD*%
%TO.P,C17,1*%
%TO.N,Net-(C16-Pad1)*%
%TA.AperFunction,SMDPad,CuDef*%
G36*
G01*
X78612500Y-23475000D02*
X78612500Y-24725000D01*
G75*
G02*
X78362500Y-24975000I-250000J0D01*
G01*
X77437500Y-24975000D01*
G75*
G02*
X77187500Y-24725000I0J250000D01*
G01*
X77187500Y-23475000D01*
G75*
G02*
X77437500Y-23225000I250000J0D01*
G01*
X78362500Y-23225000D01*
G75*
G02*
X78612500Y-23475000I0J-250000D01*
G01*
G37*
%TD.AperFunction*%
%TO.P,C17,2*%
%TO.N,GND*%
%TA.AperFunction,SMDPad,CuDef*%
G36*
G01*
X75637500Y-23475000D02*
X75637500Y-24725000D01*
G75*
G02*
X75387500Y-24975000I-250000J0D01*
G01*
X74462500Y-24975000D01*
G75*
G02*
X74212500Y-24725000I0J250000D01*
G01*
X74212500Y-23475000D01*
G75*
G02*
X74462500Y-23225000I250000J0D01*
G01*
X75387500Y-23225000D01*
G75*
G02*
X75637500Y-23475000I0J-250000D01*
G01*
G37*
%TD.AperFunction*%
%TD*%
%TO.P,F1,2*%
%TO.N,+12V*%
X24340000Y-15400000D03*
%TO.P,F1,1*%
%TO.N,Net-(F1-Pad1)*%
X19260000Y-15400000D03*
%TD*%
D16*
%TO.P,J2,1*%
%TO.N,/NRST*%
X23140000Y-61400000D03*
D17*
%TO.P,J2,2*%
%TO.N,JTAG_SWDIO*%
X25680000Y-61400000D03*
%TO.P,J2,3*%
%TO.N,JTAG_SWCLK*%
X28220000Y-61400000D03*
%TO.P,J2,4*%
%TO.N,Net-(J2-Pad4)*%
X30760000Y-61400000D03*
%TO.P,J2,5*%
%TO.N,GND*%
X33300000Y-61400000D03*
%TD*%
D16*
%TO.P,J3,1*%
%TO.N,Net-(J3-Pad1)*%
X37600000Y-61400000D03*
D17*
%TO.P,J3,2*%
%TO.N,Net-(J3-Pad2)*%
X40140000Y-61400000D03*
%TO.P,J3,3*%
%TO.N,Net-(J3-Pad3)*%
X42680000Y-61400000D03*
%TO.P,J3,4*%
%TO.N,/PA15*%
X45220000Y-61400000D03*
%TO.P,J3,5*%
%TO.N,/PB3*%
X47760000Y-61400000D03*
%TO.P,J3,6*%
%TO.N,/PB4*%
X50300000Y-61400000D03*
%TO.P,J3,7*%
%TO.N,/PB5*%
X52840000Y-61400000D03*
%TO.P,J3,8*%
%TO.N,/PB6*%
X55380000Y-61400000D03*
%TO.P,J3,9*%
%TO.N,/PB7*%
X57920000Y-61400000D03*
%TO.P,J3,10*%
%TO.N,GND*%
X60460000Y-61400000D03*
%TD*%
%TO.P,R3,2*%
%TO.N,ADC1_IN3*%
%TA.AperFunction,SMDPad,CuDef*%
G36*
G01*
X24887500Y-34725000D02*
X24887500Y-33475000D01*
G75*
G02*
X25137500Y-33225000I250000J0D01*
G01*
X26062500Y-33225000D01*
G75*
G02*
X26312500Y-33475000I0J-250000D01*
G01*
X26312500Y-34725000D01*
G75*
G02*
X26062500Y-34975000I-250000J0D01*
G01*
X25137500Y-34975000D01*
G75*
G02*
X24887500Y-34725000I0J250000D01*
G01*
G37*
%TD.AperFunction*%
%TO.P,R3,1*%
%TO.N,+12V*%
%TA.AperFunction,SMDPad,CuDef*%
G36*
G01*
X21912500Y-34725000D02*
X21912500Y-33475000D01*
G75*
G02*
X22162500Y-33225000I250000J0D01*
G01*
X23087500Y-33225000D01*
G75*
G02*
X23337500Y-33475000I0J-250000D01*
G01*
X23337500Y-34725000D01*
G75*
G02*
X23087500Y-34975000I-250000J0D01*
G01*
X22162500Y-34975000D01*
G75*
G02*
X21912500Y-34725000I0J250000D01*
G01*
G37*
%TD.AperFunction*%
%TD*%
%TO.P,R4,1*%
%TO.N,ADC1_IN3*%
%TA.AperFunction,SMDPad,CuDef*%
G36*
G01*
X28625000Y-35312500D02*
X27375000Y-35312500D01*
G75*
G02*
X27125000Y-35062500I0J250000D01*
G01*
X27125000Y-34137500D01*
G75*
G02*
X27375000Y-33887500I250000J0D01*
G01*
X28625000Y-33887500D01*
G75*
G02*
X28875000Y-34137500I0J-250000D01*
G01*
X28875000Y-35062500D01*
G75*
G02*
X28625000Y-35312500I-250000J0D01*
G01*
G37*
%TD.AperFunction*%
%TO.P,R4,2*%
%TO.N,Net-(R4-Pad2)*%
%TA.AperFunction,SMDPad,CuDef*%
G36*
G01*
X28625000Y-32337500D02*
X27375000Y-32337500D01*
G75*
G02*
X27125000Y-32087500I0J250000D01*
G01*
X27125000Y-31162500D01*
G75*
G02*
X27375000Y-30912500I250000J0D01*
G01*
X28625000Y-30912500D01*
G75*
G02*
X28875000Y-31162500I0J-250000D01*
G01*
X28875000Y-32087500D01*
G75*
G02*
X28625000Y-32337500I-250000J0D01*
G01*
G37*
%TD.AperFunction*%
%TD*%
%TO.P,R5,2*%
%TO.N,GND*%
%TA.AperFunction,SMDPad,CuDef*%
G36*
G01*
X23325000Y-31075000D02*
X23325000Y-32325000D01*
G75*
G02*
X23075000Y-32575000I-250000J0D01*
G01*
X22150000Y-32575000D01*
G75*
G02*
X21900000Y-32325000I0J250000D01*
G01*
X21900000Y-31075000D01*
G75*
G02*
X22150000Y-30825000I250000J0D01*
G01*
X23075000Y-30825000D01*
G75*
G02*
X23325000Y-31075000I0J-250000D01*
G01*
G37*
%TD.AperFunction*%
%TO.P,R5,1*%
%TO.N,Net-(R4-Pad2)*%
%TA.AperFunction,SMDPad,CuDef*%
G36*
G01*
X26300000Y-31075000D02*
X26300000Y-32325000D01*
G75*
G02*
X26050000Y-32575000I-250000J0D01*
G01*
X25125000Y-32575000D01*
G75*
G02*
X24875000Y-32325000I0J250000D01*
G01*
X24875000Y-31075000D01*
G75*
G02*
X25125000Y-30825000I250000J0D01*
G01*
X26050000Y-30825000D01*
G75*
G02*
X26300000Y-31075000I0J-250000D01*
G01*
G37*
%TD.AperFunction*%
%TD*%
%TO.P,R6,1*%
%TO.N,Net-(J3-Pad1)*%
%TA.AperFunction,SMDPad,CuDef*%
G36*
G01*
X38225000Y-59612500D02*
X36975000Y-59612500D01*
G75*
G02*
X36725000Y-59362500I0J250000D01*
G01*
X36725000Y-58437500D01*
G75*
G02*
X36975000Y-58187500I250000J0D01*
G01*
X38225000Y-58187500D01*
G75*
G02*
X38475000Y-58437500I0J-250000D01*
G01*
X38475000Y-59362500D01*
G75*
G02*
X38225000Y-59612500I-250000J0D01*
G01*
G37*
%TD.AperFunction*%
%TO.P,R6,2*%
%TO.N,+5V*%
%TA.AperFunction,SMDPad,CuDef*%
G36*
G01*
X38225000Y-56637500D02*
X36975000Y-56637500D01*
G75*
G02*
X36725000Y-56387500I0J250000D01*
G01*
X36725000Y-55462500D01*
G75*
G02*
X36975000Y-55212500I250000J0D01*
G01*
X38225000Y-55212500D01*
G75*
G02*
X38475000Y-55462500I0J-250000D01*
G01*
X38475000Y-56387500D01*
G75*
G02*
X38225000Y-56637500I-250000J0D01*
G01*
G37*
%TD.AperFunction*%
%TD*%
%TO.P,R7,2*%
%TO.N,+3V3*%
%TA.AperFunction,SMDPad,CuDef*%
G36*
G01*
X40725000Y-56637500D02*
X39475000Y-56637500D01*
G75*
G02*
X39225000Y-56387500I0J250000D01*
G01*
X39225000Y-55462500D01*
G75*
G02*
X39475000Y-55212500I250000J0D01*
G01*
X40725000Y-55212500D01*
G75*
G02*
X40975000Y-55462500I0J-250000D01*
G01*
X40975000Y-56387500D01*
G75*
G02*
X40725000Y-56637500I-250000J0D01*
G01*
G37*
%TD.AperFunction*%
%TO.P,R7,1*%
%TO.N,Net-(J3-Pad2)*%
%TA.AperFunction,SMDPad,CuDef*%
G36*
G01*
X40725000Y-59612500D02*
X39475000Y-59612500D01*
G75*
G02*
X39225000Y-59362500I0J250000D01*
G01*
X39225000Y-58437500D01*
G75*
G02*
X39475000Y-58187500I250000J0D01*
G01*
X40725000Y-58187500D01*
G75*
G02*
X40975000Y-58437500I0J-250000D01*
G01*
X40975000Y-59362500D01*
G75*
G02*
X40725000Y-59612500I-250000J0D01*
G01*
G37*
%TD.AperFunction*%
%TD*%
D15*
%TO.P,U1,3*%
%TO.N,+5V*%
X20900000Y-41600000D03*
%TO.P,U1,2*%
%TO.N,GND*%
X20900000Y-39060000D03*
%TO.P,U1,1*%
%TO.N,+12V*%
X20900000Y-36520000D03*
%TD*%
D16*
%TO.P,J1,1*%
%TO.N,Net-(F1-Pad1)*%
X14600000Y-16500000D03*
D17*
%TO.P,J1,2*%
%TO.N,GND*%
X14600000Y-19040000D03*
%TD*%
D16*
%TO.P,J5,1*%
%TO.N,ADC1_IN1*%
X57200000Y-47000000D03*
%TD*%
%TO.P,J6,1*%
%TO.N,ADC1_IN2*%
X57200000Y-43300000D03*
%TD*%
%TO.P,J7,1*%
%TO.N,ADC1_IN3*%
X57200000Y-39600000D03*
%TD*%
%TO.P,J8,1*%
%TO.N,ADC1_IN4*%
X53400000Y-37300000D03*
%TD*%
%TO.P,J9,1*%
%TO.N,DAC1_OUT*%
X49700000Y-37300000D03*
%TD*%
%TO.P,J10,1*%
%TO.N,COMP2_INP*%
X46000000Y-37300000D03*
%TD*%
%TO.P,J11,1*%
%TO.N,HTRIM_CHA1*%
X32500000Y-39400000D03*
%TD*%
D17*
%TO.P,J14,2*%
%TO.N,Net-(J14-Pad2)*%
X101200000Y-51140000D03*
D16*
%TO.P,J14,1*%
%TO.N,Net-(D4-Pad1)*%
X101200000Y-48600000D03*
%TD*%
%TO.P,J12,1*%
%TO.N,Net-(J12-Pad1)*%
X41700000Y-32300000D03*
%TD*%
%TO.P,J13,1*%
%TO.N,Net-(J13-Pad1)*%
X38900000Y-28000000D03*
%TD*%
D18*
%TO.N,GND*%
X61700000Y-39600000D03*
X66900000Y-43300000D03*
X53500000Y-54700000D03*
X56500000Y-50500000D03*
X61600000Y-47000000D03*
X60100000Y-51900000D03*
X19200000Y-70900000D03*
X20300000Y-70900000D03*
X21400000Y-70900000D03*
X22400000Y-70900000D03*
X23400000Y-70900000D03*
X32900000Y-26500000D03*
X31300000Y-28000000D03*
X31300000Y-26600000D03*
X20550000Y-47600000D03*
X22700000Y-47500000D03*
X28600000Y-49600000D03*
X28600000Y-48500000D03*
X28600000Y-47500000D03*
X83300000Y-24400000D03*
X59500000Y-27100000D03*
X62800000Y-24800000D03*
X56200000Y-24900000D03*
X51500000Y-31300000D03*
X45200000Y-41900000D03*
X51900000Y-51900000D03*
%TO.N,+3V3*%
X41800000Y-40500000D03*
X54900000Y-49100000D03*
X66100000Y-69000000D03*
X25100000Y-46600000D03*
X20100000Y-55400000D03*
X84600000Y-24800000D03*
%TO.N,ADC1_IN4*%
X60100000Y-71900000D03*
%TO.N,Net-(C16-Pad1)*%
X77900000Y-24100000D03*
X85100000Y-20000000D03*
X83100000Y-20000000D03*
%TO.N,/NRST*%
X50600000Y-48100000D03*
X40800000Y-51100000D03*
%TO.N,Net-(J2-Pad4)*%
X50000000Y-54700000D03*
X50000000Y-54700000D03*
X44300000Y-54700000D03*
%TD*%
D19*
%TO.N,GND*%
X19200000Y-70900000D02*
X20300000Y-70900000D01*
X21400000Y-70900000D02*
X22400000Y-70900000D01*
D20*
X28600000Y-49600000D02*
X28600000Y-48500000D01*
D21*
%TO.N,+5V*%
X20900000Y-41600000D02*
X26200000Y-41600000D01*
D20*
X37600000Y-55925000D02*
X23875000Y-55925000D01*
X23875000Y-55925000D02*
X23200000Y-56600000D01*
X23200000Y-56600000D02*
X19100000Y-56600000D01*
X19100000Y-56600000D02*
X18300000Y-55800000D01*
X18300000Y-44200000D02*
X20900000Y-41600000D01*
X18300000Y-55800000D02*
X18300000Y-44200000D01*
D19*
%TO.N,ADC1_IN3*%
X57200000Y-39600000D02*
X57200000Y-37700000D01*
X57200000Y-37700000D02*
X55100000Y-35600000D01*
X55100000Y-35600000D02*
X37300000Y-35600000D01*
X37300000Y-35600000D02*
X36900000Y-36000000D01*
X36900000Y-36000000D02*
X30900000Y-36000000D01*
X29500000Y-34600000D02*
X28000000Y-34600000D01*
X30900000Y-36000000D02*
X29500000Y-34600000D01*
D20*
X25600000Y-34100000D02*
X26400000Y-34100000D01*
X26900000Y-34600000D02*
X28000000Y-34600000D01*
X26400000Y-34100000D02*
X26900000Y-34600000D01*
D21*
%TO.N,+12V*%
X24412500Y-23412500D02*
X24400000Y-23400000D01*
X27100000Y-23412500D02*
X24412500Y-23412500D01*
D20*
X20900000Y-36520000D02*
X20900000Y-34500000D01*
X21300000Y-34100000D02*
X22625000Y-34100000D01*
X20900000Y-34500000D02*
X21300000Y-34100000D01*
%TO.N,+3V3*%
X41800000Y-40500000D02*
X38100000Y-40500000D01*
X38100000Y-40500000D02*
X32000000Y-46600000D01*
D19*
X54900000Y-49100000D02*
X76900000Y-49100000D01*
X83012500Y-42987500D02*
X83012500Y-25800000D01*
X76900000Y-49100000D02*
X83012500Y-42987500D01*
X54900000Y-50900000D02*
X54900000Y-49100000D01*
X61800000Y-55600000D02*
X59600000Y-55600000D01*
X59600000Y-55600000D02*
X54900000Y-50900000D01*
X66100000Y-59900000D02*
X61800000Y-55600000D01*
X66100000Y-69000000D02*
X66100000Y-59900000D01*
D20*
X25100000Y-46600000D02*
X32000000Y-46600000D01*
X20100000Y-53600000D02*
X25100000Y-48600000D01*
X25100000Y-46600000D02*
X25100000Y-48600000D01*
X20100000Y-55400000D02*
X20100000Y-53600000D01*
D19*
X84012500Y-24800000D02*
X83012500Y-25800000D01*
X84600000Y-24800000D02*
X84012500Y-24800000D01*
D20*
X40100000Y-55925000D02*
X40100000Y-54400000D01*
X40100000Y-54400000D02*
X39600000Y-53900000D01*
X39600000Y-53900000D02*
X23500000Y-53900000D01*
X22000000Y-55400000D02*
X20100000Y-55400000D01*
X23500000Y-53900000D02*
X22000000Y-55400000D01*
D19*
%TO.N,ADC1_IN4*%
X53000000Y-41000000D02*
X53400000Y-40600000D01*
X53000000Y-51400000D02*
X53000000Y-41000000D01*
X58500000Y-56900000D02*
X53000000Y-51400000D01*
X53400000Y-40600000D02*
X53400000Y-37300000D01*
X61100000Y-56900000D02*
X58500000Y-56900000D01*
X60100000Y-71900000D02*
X60100000Y-67200000D01*
X60100000Y-67200000D02*
X63300000Y-64000000D01*
X63300000Y-64000000D02*
X63300000Y-59100000D01*
X63300000Y-59100000D02*
X61100000Y-56900000D01*
%TO.N,Net-(C16-Pad1)*%
X85100000Y-20000000D02*
X83300000Y-20000000D01*
X83300000Y-20000000D02*
X83100000Y-20000000D01*
%TO.N,/NRST*%
X50600000Y-48100000D02*
X43800000Y-48100000D01*
X43800000Y-48100000D02*
X40800000Y-51100000D01*
%TO.N,Net-(J2-Pad4)*%
X50000000Y-54700000D02*
X44300000Y-54700000D01*
D20*
%TO.N,Net-(J3-Pad1)*%
X37600000Y-58900000D02*
X37600000Y-61400000D01*
%TO.N,Net-(J3-Pad2)*%
X40100000Y-61360000D02*
X40140000Y-61400000D01*
X40100000Y-58900000D02*
X40100000Y-61360000D01*
D19*
%TO.N,Net-(R4-Pad2)*%
X27925000Y-31700000D02*
X28000000Y-31625000D01*
X25587500Y-31700000D02*
X27925000Y-31700000D01*
%TD*%
D22*
%TO.N,GND*%
G36*
X108073000Y-88073000D02*
G01*
X12327000Y-88073000D01*
X12327000Y-60550000D01*
X21907157Y-60550000D01*
X21907157Y-62250000D01*
X21914513Y-62324689D01*
X21936299Y-62396508D01*
X21971678Y-62462696D01*
X22019289Y-62520711D01*
X22077304Y-62568322D01*
X22143492Y-62603701D01*
X22215311Y-62625487D01*
X22290000Y-62632843D01*
X23990000Y-62632843D01*
X24064689Y-62625487D01*
X24136508Y-62603701D01*
X24202696Y-62568322D01*
X24260711Y-62520711D01*
X24308322Y-62462696D01*
X24343701Y-62396508D01*
X24365487Y-62324689D01*
X24372843Y-62250000D01*
X24372843Y-61278757D01*
X24449000Y-61278757D01*
X24449000Y-61521243D01*
X24496307Y-61759069D01*
X24589102Y-61983097D01*
X24723820Y-62184717D01*
X24895283Y-62356180D01*
X25096903Y-62490898D01*
X25320931Y-62583693D01*
X25558757Y-62631000D01*
X25801243Y-62631000D01*
X26039069Y-62583693D01*
X26263097Y-62490898D01*
X26464717Y-62356180D01*
X26636180Y-62184717D01*
X26770898Y-61983097D01*
X26863693Y-61759069D01*
X26911000Y-61521243D01*
X26911000Y-61278757D01*
X26989000Y-61278757D01*
X26989000Y-61521243D01*
X27036307Y-61759069D01*
X27129102Y-61983097D01*
X27263820Y-62184717D01*
X27435283Y-62356180D01*
X27636903Y-62490898D01*
X27860931Y-62583693D01*
X28098757Y-62631000D01*
X28341243Y-62631000D01*
X28579069Y-62583693D01*
X28803097Y-62490898D01*
X29004717Y-62356180D01*
X29176180Y-62184717D01*
X29310898Y-61983097D01*
X29403693Y-61759069D01*
X29451000Y-61521243D01*
X29451000Y-61278757D01*
X29529000Y-61278757D01*
X29529000Y-61521243D01*
X29576307Y-61759069D01*
X29669102Y-61983097D01*
X29803820Y-62184717D01*
X29975283Y-62356180D01*
X30176903Y-62490898D01*
X30400931Y-62583693D01*
X30638757Y-62631000D01*
X30881243Y-62631000D01*
X31119069Y-62583693D01*
X31343097Y-62490898D01*
X31544717Y-62356180D01*
X31716180Y-62184717D01*
X31850898Y-61983097D01*
X31943693Y-61759069D01*
X31952064Y-61716981D01*
X32110505Y-61716981D01*
X32195201Y-61942949D01*
X32322353Y-62148052D01*
X32487076Y-62324408D01*
X32683039Y-62465239D01*
X32902712Y-62565134D01*
X32983020Y-62589489D01*
X33173000Y-62528627D01*
X33173000Y-61527000D01*
X33427000Y-61527000D01*
X33427000Y-62528627D01*
X33616980Y-62589489D01*
X33697288Y-62565134D01*
X33916961Y-62465239D01*
X34112924Y-62324408D01*
X34277647Y-62148052D01*
X34404799Y-61942949D01*
X34489495Y-61716981D01*
X34429187Y-61527000D01*
X33427000Y-61527000D01*
X33173000Y-61527000D01*
X32170813Y-61527000D01*
X32110505Y-61716981D01*
X31952064Y-61716981D01*
X31991000Y-61521243D01*
X31991000Y-61278757D01*
X31952065Y-61083019D01*
X32110505Y-61083019D01*
X32170813Y-61273000D01*
X33173000Y-61273000D01*
X33173000Y-60271373D01*
X33427000Y-60271373D01*
X33427000Y-61273000D01*
X34429187Y-61273000D01*
X34489495Y-61083019D01*
X34404799Y-60857051D01*
X34277647Y-60651948D01*
X34112924Y-60475592D01*
X33916961Y-60334761D01*
X33697288Y-60234866D01*
X33616980Y-60210511D01*
X33427000Y-60271373D01*
X33173000Y-60271373D01*
X32983020Y-60210511D01*
X32902712Y-60234866D01*
X32683039Y-60334761D01*
X32487076Y-60475592D01*
X32322353Y-60651948D01*
X32195201Y-60857051D01*
X32110505Y-61083019D01*
X31952065Y-61083019D01*
X31943693Y-61040931D01*
X31850898Y-60816903D01*
X31716180Y-60615283D01*
X31544717Y-60443820D01*
X31343097Y-60309102D01*
X31119069Y-60216307D01*
X30881243Y-60169000D01*
X30638757Y-60169000D01*
X30400931Y-60216307D01*
X30176903Y-60309102D01*
X29975283Y-60443820D01*
X29803820Y-60615283D01*
X29669102Y-60816903D01*
X29576307Y-61040931D01*
X29529000Y-61278757D01*
X29451000Y-61278757D01*
X29403693Y-61040931D01*
X29310898Y-60816903D01*
X29176180Y-60615283D01*
X29004717Y-60443820D01*
X28803097Y-60309102D01*
X28579069Y-60216307D01*
X28341243Y-60169000D01*
X28098757Y-60169000D01*
X27860931Y-60216307D01*
X27636903Y-60309102D01*
X27435283Y-60443820D01*
X27263820Y-60615283D01*
X27129102Y-60816903D01*
X27036307Y-61040931D01*
X26989000Y-61278757D01*
X26911000Y-61278757D01*
X26863693Y-61040931D01*
X26770898Y-60816903D01*
X26636180Y-60615283D01*
X26464717Y-60443820D01*
X26263097Y-60309102D01*
X26039069Y-60216307D01*
X25801243Y-60169000D01*
X25558757Y-60169000D01*
X25320931Y-60216307D01*
X25096903Y-60309102D01*
X24895283Y-60443820D01*
X24723820Y-60615283D01*
X24589102Y-60816903D01*
X24496307Y-61040931D01*
X24449000Y-61278757D01*
X24372843Y-61278757D01*
X24372843Y-60550000D01*
X24365487Y-60475311D01*
X24343701Y-60403492D01*
X24308322Y-60337304D01*
X24260711Y-60279289D01*
X24202696Y-60231678D01*
X24136508Y-60196299D01*
X24064689Y-60174513D01*
X23990000Y-60167157D01*
X22290000Y-60167157D01*
X22215311Y-60174513D01*
X22143492Y-60196299D01*
X22077304Y-60231678D01*
X22019289Y-60279289D01*
X21971678Y-60337304D01*
X21936299Y-60403492D01*
X21914513Y-60475311D01*
X21907157Y-60550000D01*
X12327000Y-60550000D01*
X12327000Y-58437500D01*
X36342157Y-58437500D01*
X36342157Y-59362500D01*
X36354317Y-59485962D01*
X36390329Y-59604679D01*
X36448810Y-59714089D01*
X36527512Y-59809988D01*
X36623411Y-59888690D01*
X36732821Y-59947171D01*
X36851538Y-59983183D01*
X36969000Y-59994752D01*
X36969001Y-60167157D01*
X36750000Y-60167157D01*
X36675311Y-60174513D01*
X36603492Y-60196299D01*
X36537304Y-60231678D01*
X36479289Y-60279289D01*
X36431678Y-60337304D01*
X36396299Y-60403492D01*
X36374513Y-60475311D01*
X36367157Y-60550000D01*
X36367157Y-62250000D01*
X36374513Y-62324689D01*
X36396299Y-62396508D01*
X36431678Y-62462696D01*
X36479289Y-62520711D01*
X36537304Y-62568322D01*
X36603492Y-62603701D01*
X36675311Y-62625487D01*
X36750000Y-62632843D01*
X38450000Y-62632843D01*
X38524689Y-62625487D01*
X38596508Y-62603701D01*
X38662696Y-62568322D01*
X38720711Y-62520711D01*
X38768322Y-62462696D01*
X38803701Y-62396508D01*
X38825487Y-62324689D01*
X38832843Y-62250000D01*
X38832843Y-60550000D01*
X38825487Y-60475311D01*
X38803701Y-60403492D01*
X38768322Y-60337304D01*
X38720711Y-60279289D01*
X38662696Y-60231678D01*
X38596508Y-60196299D01*
X38524689Y-60174513D01*
X38450000Y-60167157D01*
X38231000Y-60167157D01*
X38231000Y-59994752D01*
X38348462Y-59983183D01*
X38467179Y-59947171D01*
X38576589Y-59888690D01*
X38672488Y-59809988D01*
X38751190Y-59714089D01*
X38809671Y-59604679D01*
X38845683Y-59485962D01*
X38850000Y-59442131D01*
X38854317Y-59485962D01*
X38890329Y-59604679D01*
X38948810Y-59714089D01*
X39027512Y-59809988D01*
X39123411Y-59888690D01*
X39232821Y-59947171D01*
X39351538Y-59983183D01*
X39469000Y-59994752D01*
X39469001Y-60367836D01*
X39355283Y-60443820D01*
X39183820Y-60615283D01*
X39049102Y-60816903D01*
X38956307Y-61040931D01*
X38909000Y-61278757D01*
X38909000Y-61521243D01*
X38956307Y-61759069D01*
X39049102Y-61983097D01*
X39183820Y-62184717D01*
X39355283Y-62356180D01*
X39556903Y-62490898D01*
X39780931Y-62583693D01*
X40018757Y-62631000D01*
X40261243Y-62631000D01*
X40499069Y-62583693D01*
X40723097Y-62490898D01*
X40924717Y-62356180D01*
X41096180Y-62184717D01*
X41230898Y-61983097D01*
X41323693Y-61759069D01*
X41371000Y-61521243D01*
X41371000Y-61278757D01*
X41449000Y-61278757D01*
X41449000Y-61521243D01*
X41496307Y-61759069D01*
X41589102Y-61983097D01*
X41723820Y-62184717D01*
X41895283Y-62356180D01*
X42096903Y-62490898D01*
X42320931Y-62583693D01*
X42558757Y-62631000D01*
X42801243Y-62631000D01*
X43039069Y-62583693D01*
X43263097Y-62490898D01*
X43464717Y-62356180D01*
X43636180Y-62184717D01*
X43770898Y-61983097D01*
X43863693Y-61759069D01*
X43911000Y-61521243D01*
X43911000Y-61278757D01*
X43989000Y-61278757D01*
X43989000Y-61521243D01*
X44036307Y-61759069D01*
X44129102Y-61983097D01*
X44263820Y-62184717D01*
X44435283Y-62356180D01*
X44636903Y-62490898D01*
X44860931Y-62583693D01*
X45098757Y-62631000D01*
X45341243Y-62631000D01*
X45579069Y-62583693D01*
X45803097Y-62490898D01*
X46004717Y-62356180D01*
X46176180Y-62184717D01*
X46310898Y-61983097D01*
X46403693Y-61759069D01*
X46451000Y-61521243D01*
X46451000Y-61278757D01*
X46529000Y-61278757D01*
X46529000Y-61521243D01*
X46576307Y-61759069D01*
X46669102Y-61983097D01*
X46803820Y-62184717D01*
X46975283Y-62356180D01*
X47176903Y-62490898D01*
X47400931Y-62583693D01*
X47638757Y-62631000D01*
X47881243Y-62631000D01*
X48119069Y-62583693D01*
X48343097Y-62490898D01*
X48544717Y-62356180D01*
X48716180Y-62184717D01*
X48850898Y-61983097D01*
X48943693Y-61759069D01*
X48991000Y-61521243D01*
X48991000Y-61278757D01*
X49069000Y-61278757D01*
X49069000Y-61521243D01*
X49116307Y-61759069D01*
X49209102Y-61983097D01*
X49343820Y-62184717D01*
X49515283Y-62356180D01*
X49716903Y-62490898D01*
X49940931Y-62583693D01*
X50178757Y-62631000D01*
X50421243Y-62631000D01*
X50659069Y-62583693D01*
X50883097Y-62490898D01*
X51084717Y-62356180D01*
X51256180Y-62184717D01*
X51390898Y-61983097D01*
X51483693Y-61759069D01*
X51531000Y-61521243D01*
X51531000Y-61278757D01*
X51609000Y-61278757D01*
X51609000Y-61521243D01*
X51656307Y-61759069D01*
X51749102Y-61983097D01*
X51883820Y-62184717D01*
X52055283Y-62356180D01*
X52256903Y-62490898D01*
X52480931Y-62583693D01*
X52718757Y-62631000D01*
X52961243Y-62631000D01*
X53199069Y-62583693D01*
X53423097Y-62490898D01*
X53624717Y-62356180D01*
X53796180Y-62184717D01*
X53930898Y-61983097D01*
X54023693Y-61759069D01*
X54071000Y-61521243D01*
X54071000Y-61278757D01*
X54149000Y-61278757D01*
X54149000Y-61521243D01*
X54196307Y-61759069D01*
X54289102Y-61983097D01*
X54423820Y-62184717D01*
X54595283Y-62356180D01*
X54796903Y-62490898D01*
X55020931Y-62583693D01*
X55258757Y-62631000D01*
X55501243Y-62631000D01*
X55739069Y-62583693D01*
X55963097Y-62490898D01*
X56164717Y-62356180D01*
X56336180Y-62184717D01*
X56470898Y-61983097D01*
X56563693Y-61759069D01*
X56611000Y-61521243D01*
X56611000Y-61278757D01*
X56689000Y-61278757D01*
X56689000Y-61521243D01*
X56736307Y-61759069D01*
X56829102Y-61983097D01*
X56963820Y-62184717D01*
X57135283Y-62356180D01*
X57336903Y-62490898D01*
X57560931Y-62583693D01*
X57798757Y-62631000D01*
X58041243Y-62631000D01*
X58279069Y-62583693D01*
X58503097Y-62490898D01*
X58704717Y-62356180D01*
X58876180Y-62184717D01*
X59010898Y-61983097D01*
X59103693Y-61759069D01*
X59112064Y-61716981D01*
X59270505Y-61716981D01*
X59355201Y-61942949D01*
X59482353Y-62148052D01*
X59647076Y-62324408D01*
X59843039Y-62465239D01*
X60062712Y-62565134D01*
X60143020Y-62589489D01*
X60333000Y-62528627D01*
X60333000Y-61527000D01*
X60587000Y-61527000D01*
X60587000Y-62528627D01*
X60776980Y-62589489D01*
X60857288Y-62565134D01*
X61076961Y-62465239D01*
X61272924Y-62324408D01*
X61437647Y-62148052D01*
X61564799Y-61942949D01*
X61649495Y-61716981D01*
X61589187Y-61527000D01*
X60587000Y-61527000D01*
X60333000Y-61527000D01*
X59330813Y-61527000D01*
X59270505Y-61716981D01*
X59112064Y-61716981D01*
X59151000Y-61521243D01*
X59151000Y-61278757D01*
X59112065Y-61083019D01*
X59270505Y-61083019D01*
X59330813Y-61273000D01*
X60333000Y-61273000D01*
X60333000Y-60271373D01*
X60587000Y-60271373D01*
X60587000Y-61273000D01*
X61589187Y-61273000D01*
X61649495Y-61083019D01*
X61564799Y-60857051D01*
X61437647Y-60651948D01*
X61272924Y-60475592D01*
X61076961Y-60334761D01*
X60857288Y-60234866D01*
X60776980Y-60210511D01*
X60587000Y-60271373D01*
X60333000Y-60271373D01*
X60143020Y-60210511D01*
X60062712Y-60234866D01*
X59843039Y-60334761D01*
X59647076Y-60475592D01*
X59482353Y-60651948D01*
X59355201Y-60857051D01*
X59270505Y-61083019D01*
X59112065Y-61083019D01*
X59103693Y-61040931D01*
X59010898Y-60816903D01*
X58876180Y-60615283D01*
X58704717Y-60443820D01*
X58503097Y-60309102D01*
X58279069Y-60216307D01*
X58041243Y-60169000D01*
X57798757Y-60169000D01*
X57560931Y-60216307D01*
X57336903Y-60309102D01*
X57135283Y-60443820D01*
X56963820Y-60615283D01*
X56829102Y-60816903D01*
X56736307Y-61040931D01*
X56689000Y-61278757D01*
X56611000Y-61278757D01*
X56563693Y-61040931D01*
X56470898Y-60816903D01*
X56336180Y-60615283D01*
X56164717Y-60443820D01*
X55963097Y-60309102D01*
X55739069Y-60216307D01*
X55501243Y-60169000D01*
X55258757Y-60169000D01*
X55020931Y-60216307D01*
X54796903Y-60309102D01*
X54595283Y-60443820D01*
X54423820Y-60615283D01*
X54289102Y-60816903D01*
X54196307Y-61040931D01*
X54149000Y-61278757D01*
X54071000Y-61278757D01*
X54023693Y-61040931D01*
X53930898Y-60816903D01*
X53796180Y-60615283D01*
X53624717Y-60443820D01*
X53423097Y-60309102D01*
X53199069Y-60216307D01*
X52961243Y-60169000D01*
X52718757Y-60169000D01*
X52480931Y-60216307D01*
X52256903Y-60309102D01*
X52055283Y-60443820D01*
X51883820Y-60615283D01*
X51749102Y-60816903D01*
X51656307Y-61040931D01*
X51609000Y-61278757D01*
X51531000Y-61278757D01*
X51483693Y-61040931D01*
X51390898Y-60816903D01*
X51256180Y-60615283D01*
X51084717Y-60443820D01*
X50883097Y-60309102D01*
X50659069Y-60216307D01*
X50421243Y-60169000D01*
X50178757Y-60169000D01*
X49940931Y-60216307D01*
X49716903Y-60309102D01*
X49515283Y-60443820D01*
X49343820Y-60615283D01*
X49209102Y-60816903D01*
X49116307Y-61040931D01*
X49069000Y-61278757D01*
X48991000Y-61278757D01*
X48943693Y-61040931D01*
X48850898Y-60816903D01*
X48716180Y-60615283D01*
X48544717Y-60443820D01*
X48343097Y-60309102D01*
X48119069Y-60216307D01*
X47881243Y-60169000D01*
X47638757Y-60169000D01*
X47400931Y-60216307D01*
X47176903Y-60309102D01*
X46975283Y-60443820D01*
X46803820Y-60615283D01*
X46669102Y-60816903D01*
X46576307Y-61040931D01*
X46529000Y-61278757D01*
X46451000Y-61278757D01*
X46403693Y-61040931D01*
X46310898Y-60816903D01*
X46176180Y-60615283D01*
X46004717Y-60443820D01*
X45803097Y-60309102D01*
X45579069Y-60216307D01*
X45341243Y-60169000D01*
X45098757Y-60169000D01*
X44860931Y-60216307D01*
X44636903Y-60309102D01*
X44435283Y-60443820D01*
X44263820Y-60615283D01*
X44129102Y-60816903D01*
X44036307Y-61040931D01*
X43989000Y-61278757D01*
X43911000Y-61278757D01*
X43863693Y-61040931D01*
X43770898Y-60816903D01*
X43636180Y-60615283D01*
X43464717Y-60443820D01*
X43263097Y-60309102D01*
X43039069Y-60216307D01*
X42801243Y-60169000D01*
X42558757Y-60169000D01*
X42320931Y-60216307D01*
X42096903Y-60309102D01*
X41895283Y-60443820D01*
X41723820Y-60615283D01*
X41589102Y-60816903D01*
X41496307Y-61040931D01*
X41449000Y-61278757D01*
X41371000Y-61278757D01*
X41323693Y-61040931D01*
X41230898Y-60816903D01*
X41096180Y-60615283D01*
X40924717Y-60443820D01*
X40731000Y-60314383D01*
X40731000Y-59994752D01*
X40848462Y-59983183D01*
X40967179Y-59947171D01*
X41076589Y-59888690D01*
X41172488Y-59809988D01*
X41251190Y-59714089D01*
X41309671Y-59604679D01*
X41345683Y-59485962D01*
X41357843Y-59362500D01*
X41357843Y-58437500D01*
X41345683Y-58314038D01*
X41309671Y-58195321D01*
X41251190Y-58085911D01*
X41172488Y-57990012D01*
X41076589Y-57911310D01*
X40967179Y-57852829D01*
X40848462Y-57816817D01*
X40725000Y-57804657D01*
X39475000Y-57804657D01*
X39351538Y-57816817D01*
X39232821Y-57852829D01*
X39123411Y-57911310D01*
X39027512Y-57990012D01*
X38948810Y-58085911D01*
X38890329Y-58195321D01*
X38854317Y-58314038D01*
X38850000Y-58357869D01*
X38845683Y-58314038D01*
X38809671Y-58195321D01*
X38751190Y-58085911D01*
X38672488Y-57990012D01*
X38576589Y-57911310D01*
X38467179Y-57852829D01*
X38348462Y-57816817D01*
X38225000Y-57804657D01*
X36975000Y-57804657D01*
X36851538Y-57816817D01*
X36732821Y-57852829D01*
X36623411Y-57911310D01*
X36527512Y-57990012D01*
X36448810Y-58085911D01*
X36390329Y-58195321D01*
X36354317Y-58314038D01*
X36342157Y-58437500D01*
X12327000Y-58437500D01*
X12327000Y-44200000D01*
X17665948Y-44200000D01*
X17669001Y-44231000D01*
X17669000Y-55769010D01*
X17665948Y-55800000D01*
X17669000Y-55830990D01*
X17669000Y-55830997D01*
X17678130Y-55923697D01*
X17714211Y-56042641D01*
X17772804Y-56152260D01*
X17851657Y-56248343D01*
X17875737Y-56268105D01*
X18631899Y-57024268D01*
X18651657Y-57048343D01*
X18675732Y-57068101D01*
X18675734Y-57068103D01*
X18719704Y-57104188D01*
X18747739Y-57127196D01*
X18857358Y-57185789D01*
X18976302Y-57221870D01*
X19069002Y-57231000D01*
X19069009Y-57231000D01*
X19100000Y-57234052D01*
X19130990Y-57231000D01*
X23169010Y-57231000D01*
X23200000Y-57234052D01*
X23230990Y-57231000D01*
X23230998Y-57231000D01*
X23323698Y-57221870D01*
X23442642Y-57185789D01*
X23552261Y-57127196D01*
X23648343Y-57048343D01*
X23668105Y-57024263D01*
X24136369Y-56556000D01*
X36367979Y-56556000D01*
X36390329Y-56629679D01*
X36448810Y-56739089D01*
X36527512Y-56834988D01*
X36623411Y-56913690D01*
X36732821Y-56972171D01*
X36851538Y-57008183D01*
X36975000Y-57020343D01*
X38225000Y-57020343D01*
X38348462Y-57008183D01*
X38467179Y-56972171D01*
X38576589Y-56913690D01*
X38672488Y-56834988D01*
X38751190Y-56739089D01*
X38809671Y-56629679D01*
X38845683Y-56510962D01*
X38850000Y-56467131D01*
X38854317Y-56510962D01*
X38890329Y-56629679D01*
X38948810Y-56739089D01*
X39027512Y-56834988D01*
X39123411Y-56913690D01*
X39232821Y-56972171D01*
X39351538Y-57008183D01*
X39475000Y-57020343D01*
X40725000Y-57020343D01*
X40848462Y-57008183D01*
X40967179Y-56972171D01*
X41076589Y-56913690D01*
X41172488Y-56834988D01*
X41251190Y-56739089D01*
X41309671Y-56629679D01*
X41345683Y-56510962D01*
X41357843Y-56387500D01*
X41357843Y-55462500D01*
X41345683Y-55339038D01*
X41309671Y-55220321D01*
X41251190Y-55110911D01*
X41172488Y-55015012D01*
X41076589Y-54936310D01*
X40967179Y-54877829D01*
X40848462Y-54841817D01*
X40731000Y-54830248D01*
X40731000Y-54623078D01*
X43519000Y-54623078D01*
X43519000Y-54776922D01*
X43549013Y-54927809D01*
X43607887Y-55069942D01*
X43693358Y-55197859D01*
X43802141Y-55306642D01*
X43930058Y-55392113D01*
X44072191Y-55450987D01*
X44223078Y-55481000D01*
X44376922Y-55481000D01*
X44527809Y-55450987D01*
X44669942Y-55392113D01*
X44797859Y-55306642D01*
X44873501Y-55231000D01*
X49426499Y-55231000D01*
X49502141Y-55306642D01*
X49630058Y-55392113D01*
X49772191Y-55450987D01*
X49923078Y-55481000D01*
X50076922Y-55481000D01*
X50227809Y-55450987D01*
X50369942Y-55392113D01*
X50497859Y-55306642D01*
X50606642Y-55197859D01*
X50692113Y-55069942D01*
X50750987Y-54927809D01*
X50781000Y-54776922D01*
X50781000Y-54623078D01*
X50750987Y-54472191D01*
X50692113Y-54330058D01*
X50606642Y-54202141D01*
X50497859Y-54093358D01*
X50369942Y-54007887D01*
X50227809Y-53949013D01*
X50076922Y-53919000D01*
X49923078Y-53919000D01*
X49772191Y-53949013D01*
X49630058Y-54007887D01*
X49502141Y-54093358D01*
X49426499Y-54169000D01*
X44873501Y-54169000D01*
X44797859Y-54093358D01*
X44669942Y-54007887D01*
X44527809Y-53949013D01*
X44376922Y-53919000D01*
X44223078Y-53919000D01*
X44072191Y-53949013D01*
X43930058Y-54007887D01*
X43802141Y-54093358D01*
X43693358Y-54202141D01*
X43607887Y-54330058D01*
X43549013Y-54472191D01*
X43519000Y-54623078D01*
X40731000Y-54623078D01*
X40731000Y-54430990D01*
X40734052Y-54400000D01*
X40731000Y-54369009D01*
X40731000Y-54369002D01*
X40721870Y-54276302D01*
X40685789Y-54157358D01*
X40627196Y-54047739D01*
X40548343Y-53951657D01*
X40524268Y-53931899D01*
X40068105Y-53475737D01*
X40048343Y-53451657D01*
X39952261Y-53372804D01*
X39842642Y-53314211D01*
X39723698Y-53278130D01*
X39630998Y-53269000D01*
X39630990Y-53269000D01*
X39600000Y-53265948D01*
X39569010Y-53269000D01*
X23530987Y-53269000D01*
X23499999Y-53265948D01*
X23469011Y-53269000D01*
X23469002Y-53269000D01*
X23376302Y-53278130D01*
X23257358Y-53314211D01*
X23147739Y-53372804D01*
X23051657Y-53451657D01*
X23031899Y-53475732D01*
X21738632Y-54769000D01*
X20731000Y-54769000D01*
X20731000Y-53861368D01*
X23569290Y-51023078D01*
X40019000Y-51023078D01*
X40019000Y-51176922D01*
X40049013Y-51327809D01*
X40107887Y-51469942D01*
X40193358Y-51597859D01*
X40302141Y-51706642D01*
X40430058Y-51792113D01*
X40572191Y-51850987D01*
X40723078Y-51881000D01*
X40876922Y-51881000D01*
X41027809Y-51850987D01*
X41169942Y-51792113D01*
X41297859Y-51706642D01*
X41406642Y-51597859D01*
X41492113Y-51469942D01*
X41550987Y-51327809D01*
X41581000Y-51176922D01*
X41581000Y-51069946D01*
X44019948Y-48631000D01*
X50026499Y-48631000D01*
X50102141Y-48706642D01*
X50230058Y-48792113D01*
X50372191Y-48850987D01*
X50523078Y-48881000D01*
X50676922Y-48881000D01*
X50827809Y-48850987D01*
X50969942Y-48792113D01*
X51097859Y-48706642D01*
X51206642Y-48597859D01*
X51292113Y-48469942D01*
X51350987Y-48327809D01*
X51381000Y-48176922D01*
X51381000Y-48023078D01*
X51350987Y-47872191D01*
X51292113Y-47730058D01*
X51206642Y-47602141D01*
X51097859Y-47493358D01*
X50969942Y-47407887D01*
X50827809Y-47349013D01*
X50676922Y-47319000D01*
X50523078Y-47319000D01*
X50372191Y-47349013D01*
X50230058Y-47407887D01*
X50102141Y-47493358D01*
X50026499Y-47569000D01*
X43826074Y-47569000D01*
X43800000Y-47566432D01*
X43773926Y-47569000D01*
X43773916Y-47569000D01*
X43695906Y-47576683D01*
X43607531Y-47603492D01*
X43595812Y-47607047D01*
X43503564Y-47656354D01*
X43442970Y-47706082D01*
X43442964Y-47706088D01*
X43422710Y-47722710D01*
X43406088Y-47742964D01*
X40830054Y-50319000D01*
X40723078Y-50319000D01*
X40572191Y-50349013D01*
X40430058Y-50407887D01*
X40302141Y-50493358D01*
X40193358Y-50602141D01*
X40107887Y-50730058D01*
X40049013Y-50872191D01*
X40019000Y-51023078D01*
X23569290Y-51023078D01*
X25524268Y-49068101D01*
X25548343Y-49048343D01*
X25591377Y-48995907D01*
X25627196Y-48952261D01*
X25685789Y-48842642D01*
X25721870Y-48723698D01*
X25723550Y-48706642D01*
X25731000Y-48630998D01*
X25731000Y-48630991D01*
X25734052Y-48600000D01*
X25731000Y-48569010D01*
X25731000Y-47231000D01*
X31969010Y-47231000D01*
X32000000Y-47234052D01*
X32030990Y-47231000D01*
X32030998Y-47231000D01*
X32123698Y-47221870D01*
X32242642Y-47185789D01*
X32352261Y-47127196D01*
X32448343Y-47048343D01*
X32468105Y-47024263D01*
X38361369Y-41131000D01*
X41338595Y-41131000D01*
X41430058Y-41192113D01*
X41572191Y-41250987D01*
X41723078Y-41281000D01*
X41876922Y-41281000D01*
X42027809Y-41250987D01*
X42169942Y-41192113D01*
X42297859Y-41106642D01*
X42406642Y-40997859D01*
X42492113Y-40869942D01*
X42550987Y-40727809D01*
X42581000Y-40576922D01*
X42581000Y-40423078D01*
X42550987Y-40272191D01*
X42492113Y-40130058D01*
X42406642Y-40002141D01*
X42297859Y-39893358D01*
X42169942Y-39807887D01*
X42027809Y-39749013D01*
X41876922Y-39719000D01*
X41723078Y-39719000D01*
X41572191Y-39749013D01*
X41430058Y-39807887D01*
X41338595Y-39869000D01*
X38130990Y-39869000D01*
X38100000Y-39865948D01*
X38069009Y-39869000D01*
X38069002Y-39869000D01*
X37976302Y-39878130D01*
X37857358Y-39914211D01*
X37747739Y-39972804D01*
X37651657Y-40051657D01*
X37631899Y-40075732D01*
X31738632Y-45969000D01*
X25561405Y-45969000D01*
X25469942Y-45907887D01*
X25327809Y-45849013D01*
X25176922Y-45819000D01*
X25023078Y-45819000D01*
X24872191Y-45849013D01*
X24730058Y-45907887D01*
X24602141Y-45993358D01*
X24493358Y-46102141D01*
X24407887Y-46230058D01*
X24349013Y-46372191D01*
X24319000Y-46523078D01*
X24319000Y-46676922D01*
X24349013Y-46827809D01*
X24407887Y-46969942D01*
X24469000Y-47061405D01*
X24469001Y-48338630D01*
X19675733Y-53131899D01*
X19651658Y-53151657D01*
X19631900Y-53175732D01*
X19631897Y-53175735D01*
X19572804Y-53247740D01*
X19514211Y-53357359D01*
X19478130Y-53476303D01*
X19465948Y-53600000D01*
X19469001Y-53631000D01*
X19469000Y-54938595D01*
X19407887Y-55030058D01*
X19349013Y-55172191D01*
X19319000Y-55323078D01*
X19319000Y-55476922D01*
X19349013Y-55627809D01*
X19407887Y-55769942D01*
X19493358Y-55897859D01*
X19564499Y-55969000D01*
X19361369Y-55969000D01*
X18931000Y-55538632D01*
X18931000Y-44461368D01*
X20474028Y-42918340D01*
X20497177Y-42927929D01*
X20564042Y-42941229D01*
X20629277Y-42961018D01*
X20697118Y-42967700D01*
X20763983Y-42981000D01*
X26267843Y-42981000D01*
X26470723Y-42961018D01*
X26731043Y-42882051D01*
X26916648Y-42782843D01*
X27000000Y-42782843D01*
X27074689Y-42775487D01*
X27146508Y-42753701D01*
X27212696Y-42718322D01*
X27270711Y-42670711D01*
X27318322Y-42612696D01*
X27353701Y-42546508D01*
X27375487Y-42474689D01*
X27382843Y-42400000D01*
X27382843Y-42316648D01*
X27482051Y-42131043D01*
X27561018Y-41870723D01*
X27587682Y-41600000D01*
X27561018Y-41329277D01*
X27482051Y-41068957D01*
X27382843Y-40883352D01*
X27382843Y-40800000D01*
X27375487Y-40725311D01*
X27353701Y-40653492D01*
X27318322Y-40587304D01*
X27270711Y-40529289D01*
X27212696Y-40481678D01*
X27146508Y-40446299D01*
X27074689Y-40424513D01*
X27000000Y-40417157D01*
X26916648Y-40417157D01*
X26731043Y-40317949D01*
X26498558Y-40247426D01*
X26510012Y-40245505D01*
X26727532Y-40163014D01*
X26790782Y-40129207D01*
X26876737Y-39956342D01*
X26200000Y-39279605D01*
X25523263Y-39956342D01*
X25609218Y-40129207D01*
X25808722Y-40219000D01*
X21628635Y-40219000D01*
X21719662Y-40059267D01*
X20900000Y-39239605D01*
X20080338Y-40059267D01*
X20190510Y-40252596D01*
X20350692Y-40327712D01*
X20308834Y-40350085D01*
X20245851Y-40376174D01*
X20189166Y-40414049D01*
X20129045Y-40446185D01*
X20076350Y-40489430D01*
X20019664Y-40527307D01*
X19971455Y-40575516D01*
X19918761Y-40618761D01*
X19875516Y-40671455D01*
X19827307Y-40719664D01*
X19789430Y-40776350D01*
X19746185Y-40829045D01*
X19714049Y-40889166D01*
X19676174Y-40945851D01*
X19650085Y-41008834D01*
X19617949Y-41068957D01*
X19598160Y-41134193D01*
X19572071Y-41197177D01*
X19558771Y-41264042D01*
X19538982Y-41329277D01*
X19532300Y-41397119D01*
X19519000Y-41463983D01*
X19519000Y-41532157D01*
X19512318Y-41600000D01*
X19519000Y-41667843D01*
X19519000Y-41736017D01*
X19532300Y-41802881D01*
X19538982Y-41870723D01*
X19558771Y-41935958D01*
X19572071Y-42002823D01*
X19581660Y-42025972D01*
X17875733Y-43731899D01*
X17851658Y-43751657D01*
X17831900Y-43775732D01*
X17831897Y-43775735D01*
X17772804Y-43847740D01*
X17714211Y-43957359D01*
X17678130Y-44076303D01*
X17665948Y-44200000D01*
X12327000Y-44200000D01*
X12327000Y-39132651D01*
X19514222Y-39132651D01*
X19555023Y-39401607D01*
X19647510Y-39657435D01*
X19707404Y-39769490D01*
X19900733Y-39879662D01*
X20720395Y-39060000D01*
X21079605Y-39060000D01*
X21899267Y-39879662D01*
X22092596Y-39769490D01*
X22208095Y-39523194D01*
X22253959Y-39337500D01*
X22442157Y-39337500D01*
X22449513Y-39412189D01*
X22471299Y-39484008D01*
X22506678Y-39550196D01*
X22554289Y-39608211D01*
X22612304Y-39655822D01*
X22678492Y-39691201D01*
X22750311Y-39712987D01*
X22825000Y-39720343D01*
X23477750Y-39718500D01*
X23573000Y-39623250D01*
X23573000Y-38752000D01*
X23827000Y-38752000D01*
X23827000Y-39623250D01*
X23922250Y-39718500D01*
X24575000Y-39720343D01*
X24649689Y-39712987D01*
X24721508Y-39691201D01*
X24787696Y-39655822D01*
X24845711Y-39608211D01*
X24893322Y-39550196D01*
X24928701Y-39484008D01*
X24950487Y-39412189D01*
X24957843Y-39337500D01*
X24957254Y-39180578D01*
X25016025Y-39180578D01*
X25054495Y-39410012D01*
X25136986Y-39627532D01*
X25170793Y-39690782D01*
X25343658Y-39776737D01*
X26020395Y-39100000D01*
X26379605Y-39100000D01*
X27056342Y-39776737D01*
X27229207Y-39690782D01*
X27324687Y-39478642D01*
X27376945Y-39251952D01*
X27383975Y-39019422D01*
X27345505Y-38789988D01*
X27263014Y-38572468D01*
X27251005Y-38550000D01*
X31267157Y-38550000D01*
X31267157Y-40250000D01*
X31274513Y-40324689D01*
X31296299Y-40396508D01*
X31331678Y-40462696D01*
X31379289Y-40520711D01*
X31437304Y-40568322D01*
X31503492Y-40603701D01*
X31575311Y-40625487D01*
X31650000Y-40632843D01*
X33350000Y-40632843D01*
X33424689Y-40625487D01*
X33496508Y-40603701D01*
X33562696Y-40568322D01*
X33620711Y-40520711D01*
X33668322Y-40462696D01*
X33703701Y-40396508D01*
X33725487Y-40324689D01*
X33732843Y-40250000D01*
X33732843Y-38550000D01*
X33725487Y-38475311D01*
X33703701Y-38403492D01*
X33668322Y-38337304D01*
X33620711Y-38279289D01*
X33562696Y-38231678D01*
X33496508Y-38196299D01*
X33424689Y-38174513D01*
X33350000Y-38167157D01*
X31650000Y-38167157D01*
X31575311Y-38174513D01*
X31503492Y-38196299D01*
X31437304Y-38231678D01*
X31379289Y-38279289D01*
X31331678Y-38337304D01*
X31296299Y-38403492D01*
X31274513Y-38475311D01*
X31267157Y-38550000D01*
X27251005Y-38550000D01*
X27229207Y-38509218D01*
X27056342Y-38423263D01*
X26379605Y-39100000D01*
X26020395Y-39100000D01*
X25343658Y-38423263D01*
X25170793Y-38509218D01*
X25075313Y-38721358D01*
X25023055Y-38948048D01*
X25016025Y-39180578D01*
X24957254Y-39180578D01*
X24956000Y-38847250D01*
X24860750Y-38752000D01*
X23827000Y-38752000D01*
X23573000Y-38752000D01*
X22539250Y-38752000D01*
X22444000Y-38847250D01*
X22442157Y-39337500D01*
X22253959Y-39337500D01*
X22273324Y-39259097D01*
X22285778Y-38987349D01*
X22244977Y-38718393D01*
X22152490Y-38462565D01*
X22092596Y-38350510D01*
X21899267Y-38240338D01*
X21079605Y-39060000D01*
X20720395Y-39060000D01*
X19900733Y-38240338D01*
X19707404Y-38350510D01*
X19591905Y-38596806D01*
X19526676Y-38860903D01*
X19514222Y-39132651D01*
X12327000Y-39132651D01*
X12327000Y-36383983D01*
X19519000Y-36383983D01*
X19519000Y-36656017D01*
X19572071Y-36922823D01*
X19676174Y-37174149D01*
X19827307Y-37400336D01*
X20019664Y-37592693D01*
X20245851Y-37743826D01*
X20354377Y-37788779D01*
X20302565Y-37807510D01*
X20190510Y-37867404D01*
X20080338Y-38060733D01*
X20900000Y-38880395D01*
X21719662Y-38060733D01*
X21635189Y-37912500D01*
X22442157Y-37912500D01*
X22444000Y-38402750D01*
X22539250Y-38498000D01*
X23573000Y-38498000D01*
X23573000Y-37626750D01*
X23827000Y-37626750D01*
X23827000Y-38498000D01*
X24860750Y-38498000D01*
X24956000Y-38402750D01*
X24956598Y-38243658D01*
X25523263Y-38243658D01*
X26200000Y-38920395D01*
X26876737Y-38243658D01*
X26790782Y-38070793D01*
X26578642Y-37975313D01*
X26351952Y-37923055D01*
X26119422Y-37916025D01*
X25889988Y-37954495D01*
X25672468Y-38036986D01*
X25609218Y-38070793D01*
X25523263Y-38243658D01*
X24956598Y-38243658D01*
X24957843Y-37912500D01*
X24950487Y-37837811D01*
X24928701Y-37765992D01*
X24893322Y-37699804D01*
X24845711Y-37641789D01*
X24787696Y-37594178D01*
X24721508Y-37558799D01*
X24649689Y-37537013D01*
X24575000Y-37529657D01*
X23922250Y-37531500D01*
X23827000Y-37626750D01*
X23573000Y-37626750D01*
X23477750Y-37531500D01*
X22825000Y-37529657D01*
X22750311Y-37537013D01*
X22678492Y-37558799D01*
X22612304Y-37594178D01*
X22554289Y-37641789D01*
X22506678Y-37699804D01*
X22471299Y-37765992D01*
X22449513Y-37837811D01*
X22442157Y-37912500D01*
X21635189Y-37912500D01*
X21609490Y-37867404D01*
X21443607Y-37789614D01*
X21554149Y-37743826D01*
X21780336Y-37592693D01*
X21972693Y-37400336D01*
X22123826Y-37174149D01*
X22227929Y-36922823D01*
X22281000Y-36656017D01*
X22281000Y-36383983D01*
X22227929Y-36117177D01*
X22123826Y-35865851D01*
X21972693Y-35639664D01*
X21780336Y-35447307D01*
X21554149Y-35296174D01*
X21531000Y-35286585D01*
X21531000Y-34761368D01*
X21533038Y-34759329D01*
X21541817Y-34848462D01*
X21577829Y-34967179D01*
X21636310Y-35076589D01*
X21715012Y-35172488D01*
X21810911Y-35251190D01*
X21920321Y-35309671D01*
X22039038Y-35345683D01*
X22162500Y-35357843D01*
X23087500Y-35357843D01*
X23210962Y-35345683D01*
X23329679Y-35309671D01*
X23439089Y-35251190D01*
X23534988Y-35172488D01*
X23613690Y-35076589D01*
X23672171Y-34967179D01*
X23708183Y-34848462D01*
X23720343Y-34725000D01*
X23720343Y-33475000D01*
X23708183Y-33351538D01*
X23672171Y-33232821D01*
X23613690Y-33123411D01*
X23534988Y-33027512D01*
X23439089Y-32948810D01*
X23426826Y-32942255D01*
X23471508Y-32928701D01*
X23537696Y-32893322D01*
X23595711Y-32845711D01*
X23643322Y-32787696D01*
X23678701Y-32721508D01*
X23700487Y-32649689D01*
X23707843Y-32575000D01*
X23706000Y-31922250D01*
X23610750Y-31827000D01*
X22739500Y-31827000D01*
X22739500Y-31847000D01*
X22485500Y-31847000D01*
X22485500Y-31827000D01*
X21614250Y-31827000D01*
X21519000Y-31922250D01*
X21517157Y-32575000D01*
X21524513Y-32649689D01*
X21546299Y-32721508D01*
X21581678Y-32787696D01*
X21629289Y-32845711D01*
X21687304Y-32893322D01*
X21753492Y-32928701D01*
X21814123Y-32947093D01*
X21810911Y-32948810D01*
X21715012Y-33027512D01*
X21636310Y-33123411D01*
X21577829Y-33232821D01*
X21541817Y-33351538D01*
X21530248Y-33469000D01*
X21330987Y-33469000D01*
X21299999Y-33465948D01*
X21269011Y-33469000D01*
X21269002Y-33469000D01*
X21176302Y-33478130D01*
X21057358Y-33514211D01*
X20947739Y-33572804D01*
X20851657Y-33651657D01*
X20831890Y-33675742D01*
X20475733Y-34031899D01*
X20451658Y-34051657D01*
X20431900Y-34075732D01*
X20431897Y-34075735D01*
X20372804Y-34147740D01*
X20314211Y-34257359D01*
X20278130Y-34376303D01*
X20265948Y-34500000D01*
X20269001Y-34531000D01*
X20269001Y-35286585D01*
X20245851Y-35296174D01*
X20019664Y-35447307D01*
X19827307Y-35639664D01*
X19676174Y-35865851D01*
X19572071Y-36117177D01*
X19519000Y-36383983D01*
X12327000Y-36383983D01*
X12327000Y-30825000D01*
X21517157Y-30825000D01*
X21519000Y-31477750D01*
X21614250Y-31573000D01*
X22485500Y-31573000D01*
X22485500Y-30539250D01*
X22739500Y-30539250D01*
X22739500Y-31573000D01*
X23610750Y-31573000D01*
X23706000Y-31477750D01*
X23707137Y-31075000D01*
X24492157Y-31075000D01*
X24492157Y-32325000D01*
X24504317Y-32448462D01*
X24540329Y-32567179D01*
X24598810Y-32676589D01*
X24677512Y-32772488D01*
X24773411Y-32851190D01*
X24870978Y-32903341D01*
X24785911Y-32948810D01*
X24690012Y-33027512D01*
X24611310Y-33123411D01*
X24552829Y-33232821D01*
X24516817Y-33351538D01*
X24504657Y-33475000D01*
X24504657Y-34725000D01*
X24516817Y-34848462D01*
X24552829Y-34967179D01*
X24611310Y-35076589D01*
X24690012Y-35172488D01*
X24785911Y-35251190D01*
X24895321Y-35309671D01*
X25014038Y-35345683D01*
X25137500Y-35357843D01*
X26062500Y-35357843D01*
X26185962Y-35345683D01*
X26304679Y-35309671D01*
X26414089Y-35251190D01*
X26509988Y-35172488D01*
X26547392Y-35126911D01*
X26547739Y-35127196D01*
X26657358Y-35185789D01*
X26764085Y-35218164D01*
X26790329Y-35304679D01*
X26848810Y-35414089D01*
X26927512Y-35509988D01*
X27023411Y-35588690D01*
X27132821Y-35647171D01*
X27251538Y-35683183D01*
X27375000Y-35695343D01*
X28625000Y-35695343D01*
X28748462Y-35683183D01*
X28867179Y-35647171D01*
X28976589Y-35588690D01*
X29072488Y-35509988D01*
X29151190Y-35414089D01*
X29209671Y-35304679D01*
X29245683Y-35185962D01*
X29251096Y-35131000D01*
X29280054Y-35131000D01*
X30506083Y-36357030D01*
X30522710Y-36377290D01*
X30542970Y-36393917D01*
X30603564Y-36443646D01*
X30695812Y-36492953D01*
X30795906Y-36523317D01*
X30873916Y-36531000D01*
X30873926Y-36531000D01*
X30900000Y-36533568D01*
X30926074Y-36531000D01*
X36873926Y-36531000D01*
X36900000Y-36533568D01*
X36926074Y-36531000D01*
X36926084Y-36531000D01*
X37004094Y-36523317D01*
X37104188Y-36492953D01*
X37196435Y-36443646D01*
X37277290Y-36377290D01*
X37293921Y-36357025D01*
X37519947Y-36131000D01*
X44938572Y-36131000D01*
X44937304Y-36131678D01*
X44879289Y-36179289D01*
X44831678Y-36237304D01*
X44796299Y-36303492D01*
X44774513Y-36375311D01*
X44767157Y-36450000D01*
X44767157Y-38150000D01*
X44774513Y-38224689D01*
X44796299Y-38296508D01*
X44831678Y-38362696D01*
X44879289Y-38420711D01*
X44937304Y-38468322D01*
X45003492Y-38503701D01*
X45075311Y-38525487D01*
X45150000Y-38532843D01*
X46850000Y-38532843D01*
X46924689Y-38525487D01*
X46996508Y-38503701D01*
X47062696Y-38468322D01*
X47120711Y-38420711D01*
X47168322Y-38362696D01*
X47203701Y-38296508D01*
X47225487Y-38224689D01*
X47232843Y-38150000D01*
X47232843Y-36450000D01*
X47225487Y-36375311D01*
X47203701Y-36303492D01*
X47168322Y-36237304D01*
X47120711Y-36179289D01*
X47062696Y-36131678D01*
X47061428Y-36131000D01*
X48638572Y-36131000D01*
X48637304Y-36131678D01*
X48579289Y-36179289D01*
X48531678Y-36237304D01*
X48496299Y-36303492D01*
X48474513Y-36375311D01*
X48467157Y-36450000D01*
X48467157Y-38150000D01*
X48474513Y-38224689D01*
X48496299Y-38296508D01*
X48531678Y-38362696D01*
X48579289Y-38420711D01*
X48637304Y-38468322D01*
X48703492Y-38503701D01*
X48775311Y-38525487D01*
X48850000Y-38532843D01*
X50550000Y-38532843D01*
X50624689Y-38525487D01*
X50696508Y-38503701D01*
X50762696Y-38468322D01*
X50820711Y-38420711D01*
X50868322Y-38362696D01*
X50903701Y-38296508D01*
X50925487Y-38224689D01*
X50932843Y-38150000D01*
X50932843Y-36450000D01*
X50925487Y-36375311D01*
X50903701Y-36303492D01*
X50868322Y-36237304D01*
X50820711Y-36179289D01*
X50762696Y-36131678D01*
X50761428Y-36131000D01*
X52338572Y-36131000D01*
X52337304Y-36131678D01*
X52279289Y-36179289D01*
X52231678Y-36237304D01*
X52196299Y-36303492D01*
X52174513Y-36375311D01*
X52167157Y-36450000D01*
X52167157Y-38150000D01*
X52174513Y-38224689D01*
X52196299Y-38296508D01*
X52231678Y-38362696D01*
X52279289Y-38420711D01*
X52337304Y-38468322D01*
X52403492Y-38503701D01*
X52475311Y-38525487D01*
X52550000Y-38532843D01*
X52869001Y-38532843D01*
X52869000Y-40380053D01*
X52642970Y-40606084D01*
X52622711Y-40622710D01*
X52606084Y-40642970D01*
X52606083Y-40642971D01*
X52556354Y-40703565D01*
X52507047Y-40795813D01*
X52495814Y-40832843D01*
X52476862Y-40895321D01*
X52476684Y-40895907D01*
X52466432Y-41000000D01*
X52469001Y-41026084D01*
X52469000Y-51373926D01*
X52466432Y-51400000D01*
X52469000Y-51426074D01*
X52469000Y-51426083D01*
X52476683Y-51504093D01*
X52507047Y-51604187D01*
X52556354Y-51696435D01*
X52622710Y-51777290D01*
X52642975Y-51793921D01*
X58106088Y-57257036D01*
X58122710Y-57277290D01*
X58142964Y-57293912D01*
X58142970Y-57293918D01*
X58203564Y-57343646D01*
X58295812Y-57392953D01*
X58395906Y-57423317D01*
X58473916Y-57431000D01*
X58473926Y-57431000D01*
X58500000Y-57433568D01*
X58526074Y-57431000D01*
X60880054Y-57431000D01*
X62769001Y-59319948D01*
X62769000Y-63780053D01*
X59742971Y-66806083D01*
X59722711Y-66822710D01*
X59706084Y-66842970D01*
X59706083Y-66842971D01*
X59656354Y-66903565D01*
X59607047Y-66995813D01*
X59576684Y-67095907D01*
X59566432Y-67200000D01*
X59569001Y-67226084D01*
X59569000Y-71326499D01*
X59493358Y-71402141D01*
X59407887Y-71530058D01*
X59349013Y-71672191D01*
X59319000Y-71823078D01*
X59319000Y-71976922D01*
X59349013Y-72127809D01*
X59407887Y-72269942D01*
X59493358Y-72397859D01*
X59602141Y-72506642D01*
X59730058Y-72592113D01*
X59872191Y-72650987D01*
X60023078Y-72681000D01*
X60176922Y-72681000D01*
X60327809Y-72650987D01*
X60469942Y-72592113D01*
X60597859Y-72506642D01*
X60706642Y-72397859D01*
X60792113Y-72269942D01*
X60850987Y-72127809D01*
X60881000Y-71976922D01*
X60881000Y-71823078D01*
X60850987Y-71672191D01*
X60792113Y-71530058D01*
X60706642Y-71402141D01*
X60631000Y-71326499D01*
X60631000Y-67419946D01*
X63657030Y-64393917D01*
X63677290Y-64377290D01*
X63693917Y-64357030D01*
X63743646Y-64296436D01*
X63760821Y-64264304D01*
X63792953Y-64204188D01*
X63823317Y-64104094D01*
X63831000Y-64026084D01*
X63831000Y-64026075D01*
X63833568Y-64000001D01*
X63831000Y-63973927D01*
X63831000Y-59126074D01*
X63833568Y-59100000D01*
X63831000Y-59073926D01*
X63831000Y-59073916D01*
X63823317Y-58995906D01*
X63792953Y-58895812D01*
X63778623Y-58869002D01*
X63743646Y-58803564D01*
X63693917Y-58742970D01*
X63677290Y-58722710D01*
X63657030Y-58706083D01*
X61493921Y-56542975D01*
X61477290Y-56522710D01*
X61396435Y-56456354D01*
X61304188Y-56407047D01*
X61204094Y-56376683D01*
X61126084Y-56369000D01*
X61126074Y-56369000D01*
X61100000Y-56366432D01*
X61073926Y-56369000D01*
X58719948Y-56369000D01*
X53531000Y-51180054D01*
X53531000Y-49023078D01*
X54119000Y-49023078D01*
X54119000Y-49176922D01*
X54149013Y-49327809D01*
X54207887Y-49469942D01*
X54293358Y-49597859D01*
X54369001Y-49673502D01*
X54369000Y-50873926D01*
X54366432Y-50900000D01*
X54369000Y-50926074D01*
X54369000Y-50926083D01*
X54376683Y-51004093D01*
X54407047Y-51104187D01*
X54456354Y-51196435D01*
X54522710Y-51277290D01*
X54542975Y-51293921D01*
X59206088Y-55957036D01*
X59222710Y-55977290D01*
X59242964Y-55993912D01*
X59242970Y-55993918D01*
X59303564Y-56043646D01*
X59394240Y-56092113D01*
X59395812Y-56092953D01*
X59495906Y-56123317D01*
X59573916Y-56131000D01*
X59573926Y-56131000D01*
X59600000Y-56133568D01*
X59626074Y-56131000D01*
X61580054Y-56131000D01*
X65569001Y-60119948D01*
X65569000Y-68426499D01*
X65493358Y-68502141D01*
X65407887Y-68630058D01*
X65349013Y-68772191D01*
X65319000Y-68923078D01*
X65319000Y-69076922D01*
X65349013Y-69227809D01*
X65407887Y-69369942D01*
X65493358Y-69497859D01*
X65602141Y-69606642D01*
X65730058Y-69692113D01*
X65872191Y-69750987D01*
X66023078Y-69781000D01*
X66176922Y-69781000D01*
X66327809Y-69750987D01*
X66469942Y-69692113D01*
X66597859Y-69606642D01*
X66706642Y-69497859D01*
X66792113Y-69369942D01*
X66850987Y-69227809D01*
X66881000Y-69076922D01*
X66881000Y-68923078D01*
X66850987Y-68772191D01*
X66792113Y-68630058D01*
X66706642Y-68502141D01*
X66631000Y-68426499D01*
X66631000Y-59926073D01*
X66633568Y-59899999D01*
X66631000Y-59873925D01*
X66631000Y-59873916D01*
X66623317Y-59795906D01*
X66592953Y-59695812D01*
X66554203Y-59623316D01*
X66543646Y-59603564D01*
X66493917Y-59542970D01*
X66477290Y-59522710D01*
X66457030Y-59506083D01*
X62193921Y-55242975D01*
X62177290Y-55222710D01*
X62096435Y-55156354D01*
X62004188Y-55107047D01*
X61904094Y-55076683D01*
X61826084Y-55069000D01*
X61826074Y-55069000D01*
X61800000Y-55066432D01*
X61773926Y-55069000D01*
X59819948Y-55069000D01*
X55769704Y-51018757D01*
X99969000Y-51018757D01*
X99969000Y-51261243D01*
X100016307Y-51499069D01*
X100109102Y-51723097D01*
X100243820Y-51924717D01*
X100415283Y-52096180D01*
X100616903Y-52230898D01*
X100840931Y-52323693D01*
X101078757Y-52371000D01*
X101321243Y-52371000D01*
X101559069Y-52323693D01*
X101783097Y-52230898D01*
X101984717Y-52096180D01*
X102156180Y-51924717D01*
X102290898Y-51723097D01*
X102383693Y-51499069D01*
X102431000Y-51261243D01*
X102431000Y-51018757D01*
X102383693Y-50780931D01*
X102290898Y-50556903D01*
X102156180Y-50355283D01*
X101984717Y-50183820D01*
X101783097Y-50049102D01*
X101559069Y-49956307D01*
X101321243Y-49909000D01*
X101078757Y-49909000D01*
X100840931Y-49956307D01*
X100616903Y-50049102D01*
X100415283Y-50183820D01*
X100243820Y-50355283D01*
X100109102Y-50556903D01*
X100016307Y-50780931D01*
X99969000Y-51018757D01*
X55769704Y-51018757D01*
X55431000Y-50680054D01*
X55431000Y-49673501D01*
X55473501Y-49631000D01*
X76873926Y-49631000D01*
X76900000Y-49633568D01*
X76926074Y-49631000D01*
X76926084Y-49631000D01*
X77004094Y-49623317D01*
X77104188Y-49592953D01*
X77196435Y-49543646D01*
X77277290Y-49477290D01*
X77293921Y-49457025D01*
X79000946Y-47750000D01*
X99967157Y-47750000D01*
X99967157Y-49450000D01*
X99974513Y-49524689D01*
X99996299Y-49596508D01*
X100031678Y-49662696D01*
X100079289Y-49720711D01*
X100137304Y-49768322D01*
X100203492Y-49803701D01*
X100275311Y-49825487D01*
X100350000Y-49832843D01*
X102050000Y-49832843D01*
X102124689Y-49825487D01*
X102196508Y-49803701D01*
X102262696Y-49768322D01*
X102320711Y-49720711D01*
X102368322Y-49662696D01*
X102403701Y-49596508D01*
X102425487Y-49524689D01*
X102432843Y-49450000D01*
X102432843Y-47750000D01*
X102425487Y-47675311D01*
X102403701Y-47603492D01*
X102368322Y-47537304D01*
X102320711Y-47479289D01*
X102262696Y-47431678D01*
X102196508Y-47396299D01*
X102124689Y-47374513D01*
X102050000Y-47367157D01*
X100350000Y-47367157D01*
X100275311Y-47374513D01*
X100203492Y-47396299D01*
X100137304Y-47431678D01*
X100079289Y-47479289D01*
X100031678Y-47537304D01*
X99996299Y-47603492D01*
X99974513Y-47675311D01*
X99967157Y-47750000D01*
X79000946Y-47750000D01*
X83369530Y-43381417D01*
X83389790Y-43364790D01*
X83406417Y-43344530D01*
X83456146Y-43283936D01*
X83473321Y-43251804D01*
X83505453Y-43191688D01*
X83535817Y-43091594D01*
X83543500Y-43013584D01*
X83543500Y-43013575D01*
X83546068Y-42987501D01*
X83543500Y-42961427D01*
X83543500Y-26019946D01*
X84134910Y-25428537D01*
X84230058Y-25492113D01*
X84372191Y-25550987D01*
X84523078Y-25581000D01*
X84676922Y-25581000D01*
X84827809Y-25550987D01*
X84969942Y-25492113D01*
X85097859Y-25406642D01*
X85206642Y-25297859D01*
X85292113Y-25169942D01*
X85350987Y-25027809D01*
X85381000Y-24876922D01*
X85381000Y-24723078D01*
X85350987Y-24572191D01*
X85292113Y-24430058D01*
X85206642Y-24302141D01*
X85097859Y-24193358D01*
X84969942Y-24107887D01*
X84827809Y-24049013D01*
X84676922Y-24019000D01*
X84523078Y-24019000D01*
X84372191Y-24049013D01*
X84230058Y-24107887D01*
X84102141Y-24193358D01*
X84027582Y-24267917D01*
X84012500Y-24266432D01*
X83986426Y-24269000D01*
X83986416Y-24269000D01*
X83908406Y-24276683D01*
X83808312Y-24307047D01*
X83716064Y-24356354D01*
X83655470Y-24406082D01*
X83655464Y-24406088D01*
X83635210Y-24422710D01*
X83618587Y-24442965D01*
X82655470Y-25406084D01*
X82635211Y-25422710D01*
X82618584Y-25442970D01*
X82618583Y-25442971D01*
X82568854Y-25503565D01*
X82519547Y-25595813D01*
X82489184Y-25695907D01*
X82478932Y-25800000D01*
X82481501Y-25826084D01*
X82481500Y-42767553D01*
X76680054Y-48569000D01*
X55473501Y-48569000D01*
X55397859Y-48493358D01*
X55269942Y-48407887D01*
X55127809Y-48349013D01*
X54976922Y-48319000D01*
X54823078Y-48319000D01*
X54672191Y-48349013D01*
X54530058Y-48407887D01*
X54402141Y-48493358D01*
X54293358Y-48602141D01*
X54207887Y-48730058D01*
X54149013Y-48872191D01*
X54119000Y-49023078D01*
X53531000Y-49023078D01*
X53531000Y-46150000D01*
X55967157Y-46150000D01*
X55967157Y-47850000D01*
X55974513Y-47924689D01*
X55996299Y-47996508D01*
X56031678Y-48062696D01*
X56079289Y-48120711D01*
X56137304Y-48168322D01*
X56203492Y-48203701D01*
X56275311Y-48225487D01*
X56350000Y-48232843D01*
X58050000Y-48232843D01*
X58124689Y-48225487D01*
X58196508Y-48203701D01*
X58262696Y-48168322D01*
X58320711Y-48120711D01*
X58368322Y-48062696D01*
X58403701Y-47996508D01*
X58425487Y-47924689D01*
X58432843Y-47850000D01*
X58432843Y-46150000D01*
X58425487Y-46075311D01*
X58403701Y-46003492D01*
X58368322Y-45937304D01*
X58320711Y-45879289D01*
X58262696Y-45831678D01*
X58196508Y-45796299D01*
X58124689Y-45774513D01*
X58050000Y-45767157D01*
X56350000Y-45767157D01*
X56275311Y-45774513D01*
X56203492Y-45796299D01*
X56137304Y-45831678D01*
X56079289Y-45879289D01*
X56031678Y-45937304D01*
X55996299Y-46003492D01*
X55974513Y-46075311D01*
X55967157Y-46150000D01*
X53531000Y-46150000D01*
X53531000Y-42450000D01*
X55967157Y-42450000D01*
X55967157Y-44150000D01*
X55974513Y-44224689D01*
X55996299Y-44296508D01*
X56031678Y-44362696D01*
X56079289Y-44420711D01*
X56137304Y-44468322D01*
X56203492Y-44503701D01*
X56275311Y-44525487D01*
X56350000Y-44532843D01*
X58050000Y-44532843D01*
X58124689Y-44525487D01*
X58196508Y-44503701D01*
X58262696Y-44468322D01*
X58320711Y-44420711D01*
X58368322Y-44362696D01*
X58403701Y-44296508D01*
X58425487Y-44224689D01*
X58432843Y-44150000D01*
X58432843Y-42450000D01*
X58425487Y-42375311D01*
X58403701Y-42303492D01*
X58368322Y-42237304D01*
X58320711Y-42179289D01*
X58262696Y-42131678D01*
X58196508Y-42096299D01*
X58124689Y-42074513D01*
X58050000Y-42067157D01*
X56350000Y-42067157D01*
X56275311Y-42074513D01*
X56203492Y-42096299D01*
X56137304Y-42131678D01*
X56079289Y-42179289D01*
X56031678Y-42237304D01*
X55996299Y-42303492D01*
X55974513Y-42375311D01*
X55967157Y-42450000D01*
X53531000Y-42450000D01*
X53531000Y-41219946D01*
X53757030Y-40993917D01*
X53777290Y-40977290D01*
X53801046Y-40948343D01*
X53843646Y-40896436D01*
X53867257Y-40852261D01*
X53892953Y-40804188D01*
X53923317Y-40704094D01*
X53931000Y-40626084D01*
X53931000Y-40626073D01*
X53933568Y-40600001D01*
X53931000Y-40573929D01*
X53931000Y-38532843D01*
X54250000Y-38532843D01*
X54324689Y-38525487D01*
X54396508Y-38503701D01*
X54462696Y-38468322D01*
X54520711Y-38420711D01*
X54568322Y-38362696D01*
X54603701Y-38296508D01*
X54625487Y-38224689D01*
X54632843Y-38150000D01*
X54632843Y-36450000D01*
X54625487Y-36375311D01*
X54603701Y-36303492D01*
X54568322Y-36237304D01*
X54520711Y-36179289D01*
X54462696Y-36131678D01*
X54461428Y-36131000D01*
X54880054Y-36131000D01*
X56669001Y-37919948D01*
X56669001Y-38367157D01*
X56350000Y-38367157D01*
X56275311Y-38374513D01*
X56203492Y-38396299D01*
X56137304Y-38431678D01*
X56079289Y-38479289D01*
X56031678Y-38537304D01*
X55996299Y-38603492D01*
X55974513Y-38675311D01*
X55967157Y-38750000D01*
X55967157Y-40450000D01*
X55974513Y-40524689D01*
X55996299Y-40596508D01*
X56031678Y-40662696D01*
X56079289Y-40720711D01*
X56137304Y-40768322D01*
X56203492Y-40803701D01*
X56275311Y-40825487D01*
X56350000Y-40832843D01*
X58050000Y-40832843D01*
X58124689Y-40825487D01*
X58196508Y-40803701D01*
X58262696Y-40768322D01*
X58320711Y-40720711D01*
X58368322Y-40662696D01*
X58403701Y-40596508D01*
X58425487Y-40524689D01*
X58432843Y-40450000D01*
X58432843Y-38750000D01*
X58425487Y-38675311D01*
X58403701Y-38603492D01*
X58368322Y-38537304D01*
X58320711Y-38479289D01*
X58262696Y-38431678D01*
X58196508Y-38396299D01*
X58124689Y-38374513D01*
X58050000Y-38367157D01*
X57731000Y-38367157D01*
X57731000Y-37726071D01*
X57733568Y-37699999D01*
X57731000Y-37673927D01*
X57731000Y-37673916D01*
X57723317Y-37595906D01*
X57692953Y-37495812D01*
X57670001Y-37452871D01*
X57643646Y-37403564D01*
X57593917Y-37342970D01*
X57577290Y-37322710D01*
X57557030Y-37306083D01*
X55493921Y-35242975D01*
X55477290Y-35222710D01*
X55396435Y-35156354D01*
X55304188Y-35107047D01*
X55204094Y-35076683D01*
X55126084Y-35069000D01*
X55126074Y-35069000D01*
X55100000Y-35066432D01*
X55073926Y-35069000D01*
X37326071Y-35069000D01*
X37299999Y-35066432D01*
X37273927Y-35069000D01*
X37273916Y-35069000D01*
X37195906Y-35076683D01*
X37095812Y-35107047D01*
X37045289Y-35134052D01*
X37003564Y-35156354D01*
X36942970Y-35206083D01*
X36922710Y-35222710D01*
X36906083Y-35242970D01*
X36680054Y-35469000D01*
X31119947Y-35469000D01*
X29893921Y-34242975D01*
X29877290Y-34222710D01*
X29796435Y-34156354D01*
X29704188Y-34107047D01*
X29604094Y-34076683D01*
X29526084Y-34069000D01*
X29526074Y-34069000D01*
X29500000Y-34066432D01*
X29473926Y-34069000D01*
X29251096Y-34069000D01*
X29245683Y-34014038D01*
X29209671Y-33895321D01*
X29151190Y-33785911D01*
X29072488Y-33690012D01*
X28976589Y-33611310D01*
X28867179Y-33552829D01*
X28748462Y-33516817D01*
X28625000Y-33504657D01*
X27375000Y-33504657D01*
X27251538Y-33516817D01*
X27132821Y-33552829D01*
X27023411Y-33611310D01*
X26927512Y-33690012D01*
X26907169Y-33714801D01*
X26868105Y-33675737D01*
X26848343Y-33651657D01*
X26752261Y-33572804D01*
X26695343Y-33542380D01*
X26695343Y-33475000D01*
X26683183Y-33351538D01*
X26647171Y-33232821D01*
X26588690Y-33123411D01*
X26509988Y-33027512D01*
X26414089Y-32948810D01*
X26316522Y-32896659D01*
X26401589Y-32851190D01*
X26497488Y-32772488D01*
X26576190Y-32676589D01*
X26634671Y-32567179D01*
X26670683Y-32448462D01*
X26682843Y-32325000D01*
X26682843Y-32231000D01*
X26760395Y-32231000D01*
X26790329Y-32329679D01*
X26848810Y-32439089D01*
X26927512Y-32534988D01*
X27023411Y-32613690D01*
X27132821Y-32672171D01*
X27251538Y-32708183D01*
X27375000Y-32720343D01*
X28625000Y-32720343D01*
X28748462Y-32708183D01*
X28867179Y-32672171D01*
X28976589Y-32613690D01*
X29072488Y-32534988D01*
X29151190Y-32439089D01*
X29209671Y-32329679D01*
X29245683Y-32210962D01*
X29257843Y-32087500D01*
X29257843Y-31450000D01*
X40467157Y-31450000D01*
X40467157Y-33150000D01*
X40474513Y-33224689D01*
X40496299Y-33296508D01*
X40531678Y-33362696D01*
X40579289Y-33420711D01*
X40637304Y-33468322D01*
X40703492Y-33503701D01*
X40775311Y-33525487D01*
X40850000Y-33532843D01*
X42550000Y-33532843D01*
X42624689Y-33525487D01*
X42696508Y-33503701D01*
X42762696Y-33468322D01*
X42820711Y-33420711D01*
X42868322Y-33362696D01*
X42903701Y-33296508D01*
X42925487Y-33224689D01*
X42932843Y-33150000D01*
X42932843Y-31450000D01*
X42925487Y-31375311D01*
X42903701Y-31303492D01*
X42868322Y-31237304D01*
X42820711Y-31179289D01*
X42762696Y-31131678D01*
X42696508Y-31096299D01*
X42624689Y-31074513D01*
X42550000Y-31067157D01*
X40850000Y-31067157D01*
X40775311Y-31074513D01*
X40703492Y-31096299D01*
X40637304Y-31131678D01*
X40579289Y-31179289D01*
X40531678Y-31237304D01*
X40496299Y-31303492D01*
X40474513Y-31375311D01*
X40467157Y-31450000D01*
X29257843Y-31450000D01*
X29257843Y-31162500D01*
X29245683Y-31039038D01*
X29209671Y-30920321D01*
X29151190Y-30810911D01*
X29072488Y-30715012D01*
X28976589Y-30636310D01*
X28867179Y-30577829D01*
X28748462Y-30541817D01*
X28625000Y-30529657D01*
X27375000Y-30529657D01*
X27251538Y-30541817D01*
X27132821Y-30577829D01*
X27023411Y-30636310D01*
X26927512Y-30715012D01*
X26848810Y-30810911D01*
X26790329Y-30920321D01*
X26754317Y-31039038D01*
X26742157Y-31162500D01*
X26742157Y-31169000D01*
X26682843Y-31169000D01*
X26682843Y-31075000D01*
X26670683Y-30951538D01*
X26634671Y-30832821D01*
X26576190Y-30723411D01*
X26497488Y-30627512D01*
X26401589Y-30548810D01*
X26292179Y-30490329D01*
X26173462Y-30454317D01*
X26050000Y-30442157D01*
X25125000Y-30442157D01*
X25001538Y-30454317D01*
X24882821Y-30490329D01*
X24773411Y-30548810D01*
X24677512Y-30627512D01*
X24598810Y-30723411D01*
X24540329Y-30832821D01*
X24504317Y-30951538D01*
X24492157Y-31075000D01*
X23707137Y-31075000D01*
X23707843Y-30825000D01*
X23700487Y-30750311D01*
X23678701Y-30678492D01*
X23643322Y-30612304D01*
X23595711Y-30554289D01*
X23537696Y-30506678D01*
X23471508Y-30471299D01*
X23399689Y-30449513D01*
X23325000Y-30442157D01*
X22834750Y-30444000D01*
X22739500Y-30539250D01*
X22485500Y-30539250D01*
X22390250Y-30444000D01*
X21900000Y-30442157D01*
X21825311Y-30449513D01*
X21753492Y-30471299D01*
X21687304Y-30506678D01*
X21629289Y-30554289D01*
X21581678Y-30612304D01*
X21546299Y-30678492D01*
X21524513Y-30750311D01*
X21517157Y-30825000D01*
X12327000Y-30825000D01*
X12327000Y-29541970D01*
X23537635Y-29541970D01*
X23671949Y-29755780D01*
X23952360Y-29891274D01*
X24253816Y-29969460D01*
X24564732Y-29987331D01*
X24873161Y-29944202D01*
X25167251Y-29841731D01*
X25328051Y-29755780D01*
X25462365Y-29541970D01*
X24500000Y-28579605D01*
X23537635Y-29541970D01*
X12327000Y-29541970D01*
X12327000Y-28464732D01*
X22912669Y-28464732D01*
X22955798Y-28773161D01*
X23058269Y-29067251D01*
X23144220Y-29228051D01*
X23358030Y-29362365D01*
X24320395Y-28400000D01*
X24679605Y-28400000D01*
X25641970Y-29362365D01*
X25855780Y-29228051D01*
X25991274Y-28947640D01*
X26069460Y-28646184D01*
X26087331Y-28335268D01*
X26044202Y-28026839D01*
X25941731Y-27732749D01*
X25855780Y-27571949D01*
X25641970Y-27437635D01*
X24679605Y-28400000D01*
X24320395Y-28400000D01*
X23358030Y-27437635D01*
X23144220Y-27571949D01*
X23008726Y-27852360D01*
X22930540Y-28153816D01*
X22912669Y-28464732D01*
X12327000Y-28464732D01*
X12327000Y-27258030D01*
X23537635Y-27258030D01*
X24500000Y-28220395D01*
X25462365Y-27258030D01*
X25363092Y-27100000D01*
X25842157Y-27100000D01*
X25849513Y-27174689D01*
X25871299Y-27246508D01*
X25906678Y-27312696D01*
X25954289Y-27370711D01*
X26012304Y-27418322D01*
X26078492Y-27453701D01*
X26150311Y-27475487D01*
X26225000Y-27482843D01*
X26877750Y-27481000D01*
X26973000Y-27385750D01*
X26973000Y-26514500D01*
X27227000Y-26514500D01*
X27227000Y-27385750D01*
X27322250Y-27481000D01*
X27975000Y-27482843D01*
X28049689Y-27475487D01*
X28121508Y-27453701D01*
X28187696Y-27418322D01*
X28245711Y-27370711D01*
X28293322Y-27312696D01*
X28328701Y-27246508D01*
X28350487Y-27174689D01*
X28352918Y-27150000D01*
X37667157Y-27150000D01*
X37667157Y-28850000D01*
X37674513Y-28924689D01*
X37696299Y-28996508D01*
X37731678Y-29062696D01*
X37779289Y-29120711D01*
X37837304Y-29168322D01*
X37903492Y-29203701D01*
X37975311Y-29225487D01*
X38050000Y-29232843D01*
X39750000Y-29232843D01*
X39824689Y-29225487D01*
X39896508Y-29203701D01*
X39962696Y-29168322D01*
X40020711Y-29120711D01*
X40068322Y-29062696D01*
X40103701Y-28996508D01*
X40125487Y-28924689D01*
X40132843Y-28850000D01*
X40132843Y-28199267D01*
X72080338Y-28199267D01*
X72190510Y-28392596D01*
X72436806Y-28508095D01*
X72700903Y-28573324D01*
X72972651Y-28585778D01*
X73241607Y-28544977D01*
X73497435Y-28452490D01*
X73609490Y-28392596D01*
X73719662Y-28199267D01*
X72900000Y-27379605D01*
X72080338Y-28199267D01*
X40132843Y-28199267D01*
X40132843Y-27272651D01*
X71514222Y-27272651D01*
X71555023Y-27541607D01*
X71647510Y-27797435D01*
X71707404Y-27909490D01*
X71900733Y-28019662D01*
X72720395Y-27200000D01*
X73079605Y-27200000D01*
X73899267Y-28019662D01*
X74092596Y-27909490D01*
X74208095Y-27663194D01*
X74273324Y-27399097D01*
X74285778Y-27127349D01*
X74244977Y-26858393D01*
X74152490Y-26602565D01*
X74092596Y-26490510D01*
X73899267Y-26380338D01*
X73079605Y-27200000D01*
X72720395Y-27200000D01*
X71900733Y-26380338D01*
X71707404Y-26490510D01*
X71591905Y-26736806D01*
X71526676Y-27000903D01*
X71514222Y-27272651D01*
X40132843Y-27272651D01*
X40132843Y-27150000D01*
X40125487Y-27075311D01*
X40103701Y-27003492D01*
X40068322Y-26937304D01*
X40020711Y-26879289D01*
X39962696Y-26831678D01*
X39896508Y-26796299D01*
X39824689Y-26774513D01*
X39750000Y-26767157D01*
X38050000Y-26767157D01*
X37975311Y-26774513D01*
X37903492Y-26796299D01*
X37837304Y-26831678D01*
X37779289Y-26879289D01*
X37731678Y-26937304D01*
X37696299Y-27003492D01*
X37674513Y-27075311D01*
X37667157Y-27150000D01*
X28352918Y-27150000D01*
X28357843Y-27100000D01*
X28356000Y-26609750D01*
X28260750Y-26514500D01*
X27227000Y-26514500D01*
X26973000Y-26514500D01*
X25939250Y-26514500D01*
X25844000Y-26609750D01*
X25842157Y-27100000D01*
X25363092Y-27100000D01*
X25328051Y-27044220D01*
X25047640Y-26908726D01*
X24746184Y-26830540D01*
X24435268Y-26812669D01*
X24126839Y-26855798D01*
X23832749Y-26958269D01*
X23671949Y-27044220D01*
X23537635Y-27258030D01*
X12327000Y-27258030D01*
X12327000Y-25675000D01*
X25842157Y-25675000D01*
X25844000Y-26165250D01*
X25939250Y-26260500D01*
X26973000Y-26260500D01*
X26973000Y-25389250D01*
X27227000Y-25389250D01*
X27227000Y-26260500D01*
X28260750Y-26260500D01*
X28320517Y-26200733D01*
X72080338Y-26200733D01*
X72900000Y-27020395D01*
X73719662Y-26200733D01*
X73719245Y-26200000D01*
X76517157Y-26200000D01*
X76517157Y-28200000D01*
X76524513Y-28274689D01*
X76546299Y-28346508D01*
X76581678Y-28412696D01*
X76629289Y-28470711D01*
X76687304Y-28518322D01*
X76753492Y-28553701D01*
X76825311Y-28575487D01*
X76900000Y-28582843D01*
X78900000Y-28582843D01*
X78974689Y-28575487D01*
X79046508Y-28553701D01*
X79112696Y-28518322D01*
X79170711Y-28470711D01*
X79218322Y-28412696D01*
X79253701Y-28346508D01*
X79275487Y-28274689D01*
X79282843Y-28200000D01*
X79282843Y-26200000D01*
X79275487Y-26125311D01*
X79253701Y-26053492D01*
X79218322Y-25987304D01*
X79170711Y-25929289D01*
X79112696Y-25881678D01*
X79046508Y-25846299D01*
X78974689Y-25824513D01*
X78900000Y-25817157D01*
X76900000Y-25817157D01*
X76825311Y-25824513D01*
X76753492Y-25846299D01*
X76687304Y-25881678D01*
X76629289Y-25929289D01*
X76581678Y-25987304D01*
X76546299Y-26053492D01*
X76524513Y-26125311D01*
X76517157Y-26200000D01*
X73719245Y-26200000D01*
X73609490Y-26007404D01*
X73363194Y-25891905D01*
X73099097Y-25826676D01*
X72827349Y-25814222D01*
X72558393Y-25855023D01*
X72302565Y-25947510D01*
X72190510Y-26007404D01*
X72080338Y-26200733D01*
X28320517Y-26200733D01*
X28356000Y-26165250D01*
X28357843Y-25675000D01*
X28350487Y-25600311D01*
X28328701Y-25528492D01*
X28293322Y-25462304D01*
X28245711Y-25404289D01*
X28187696Y-25356678D01*
X28121508Y-25321299D01*
X28049689Y-25299513D01*
X27975000Y-25292157D01*
X27322250Y-25294000D01*
X27227000Y-25389250D01*
X26973000Y-25389250D01*
X26877750Y-25294000D01*
X26225000Y-25292157D01*
X26150311Y-25299513D01*
X26078492Y-25321299D01*
X26012304Y-25356678D01*
X25954289Y-25404289D01*
X25906678Y-25462304D01*
X25871299Y-25528492D01*
X25849513Y-25600311D01*
X25842157Y-25675000D01*
X12327000Y-25675000D01*
X12327000Y-22200000D01*
X22917157Y-22200000D01*
X22917157Y-24600000D01*
X22924513Y-24674689D01*
X22946299Y-24746508D01*
X22981678Y-24812696D01*
X23029289Y-24870711D01*
X23087304Y-24918322D01*
X23153492Y-24953701D01*
X23225311Y-24975487D01*
X23300000Y-24982843D01*
X25700000Y-24982843D01*
X25774689Y-24975487D01*
X25776294Y-24975000D01*
X73829657Y-24975000D01*
X73837013Y-25049689D01*
X73858799Y-25121508D01*
X73894178Y-25187696D01*
X73941789Y-25245711D01*
X73999804Y-25293322D01*
X74065992Y-25328701D01*
X74137811Y-25350487D01*
X74212500Y-25357843D01*
X74702750Y-25356000D01*
X74798000Y-25260750D01*
X74798000Y-24227000D01*
X75052000Y-24227000D01*
X75052000Y-25260750D01*
X75147250Y-25356000D01*
X75637500Y-25357843D01*
X75712189Y-25350487D01*
X75784008Y-25328701D01*
X75850196Y-25293322D01*
X75908211Y-25245711D01*
X75955822Y-25187696D01*
X75991201Y-25121508D01*
X76012987Y-25049689D01*
X76020343Y-24975000D01*
X76018500Y-24322250D01*
X75923250Y-24227000D01*
X75052000Y-24227000D01*
X74798000Y-24227000D01*
X73926750Y-24227000D01*
X73831500Y-24322250D01*
X73829657Y-24975000D01*
X25776294Y-24975000D01*
X25846508Y-24953701D01*
X25912696Y-24918322D01*
X25970711Y-24870711D01*
X26018322Y-24812696D01*
X26028583Y-24793500D01*
X27167843Y-24793500D01*
X27370723Y-24773518D01*
X27631043Y-24694551D01*
X27870955Y-24566315D01*
X28063887Y-24407979D01*
X28076589Y-24401190D01*
X28172488Y-24322488D01*
X28251190Y-24226589D01*
X28309671Y-24117179D01*
X28336480Y-24028799D01*
X28382051Y-23943543D01*
X28461018Y-23683223D01*
X28487682Y-23412500D01*
X28469215Y-23225000D01*
X73829657Y-23225000D01*
X73831500Y-23877750D01*
X73926750Y-23973000D01*
X74798000Y-23973000D01*
X74798000Y-22939250D01*
X75052000Y-22939250D01*
X75052000Y-23973000D01*
X75923250Y-23973000D01*
X76018500Y-23877750D01*
X76019637Y-23475000D01*
X76804657Y-23475000D01*
X76804657Y-24725000D01*
X76816817Y-24848462D01*
X76852829Y-24967179D01*
X76911310Y-25076589D01*
X76990012Y-25172488D01*
X77085911Y-25251190D01*
X77195321Y-25309671D01*
X77314038Y-25345683D01*
X77437500Y-25357843D01*
X78362500Y-25357843D01*
X78485962Y-25345683D01*
X78604679Y-25309671D01*
X78714089Y-25251190D01*
X78809988Y-25172488D01*
X78888690Y-25076589D01*
X78947171Y-24967179D01*
X78983183Y-24848462D01*
X78995343Y-24725000D01*
X78995343Y-23475000D01*
X78983183Y-23351538D01*
X78947171Y-23232821D01*
X78888690Y-23123411D01*
X78809988Y-23027512D01*
X78714089Y-22948810D01*
X78604679Y-22890329D01*
X78485962Y-22854317D01*
X78362500Y-22842157D01*
X77437500Y-22842157D01*
X77314038Y-22854317D01*
X77195321Y-22890329D01*
X77085911Y-22948810D01*
X76990012Y-23027512D01*
X76911310Y-23123411D01*
X76852829Y-23232821D01*
X76816817Y-23351538D01*
X76804657Y-23475000D01*
X76019637Y-23475000D01*
X76020343Y-23225000D01*
X76012987Y-23150311D01*
X75991201Y-23078492D01*
X75955822Y-23012304D01*
X75908211Y-22954289D01*
X75850196Y-22906678D01*
X75784008Y-22871299D01*
X75712189Y-22849513D01*
X75637500Y-22842157D01*
X75147250Y-22844000D01*
X75052000Y-22939250D01*
X74798000Y-22939250D01*
X74702750Y-22844000D01*
X74212500Y-22842157D01*
X74137811Y-22849513D01*
X74065992Y-22871299D01*
X73999804Y-22906678D01*
X73941789Y-22954289D01*
X73894178Y-23012304D01*
X73858799Y-23078492D01*
X73837013Y-23150311D01*
X73829657Y-23225000D01*
X28469215Y-23225000D01*
X28461018Y-23141777D01*
X28382051Y-22881457D01*
X28336480Y-22796201D01*
X28309671Y-22707821D01*
X28251190Y-22598411D01*
X28172488Y-22502512D01*
X28076589Y-22423810D01*
X28063887Y-22417021D01*
X27870955Y-22258685D01*
X27631043Y-22130449D01*
X27370723Y-22051482D01*
X27167843Y-22031500D01*
X26041946Y-22031500D01*
X26018322Y-21987304D01*
X25970711Y-21929289D01*
X25912696Y-21881678D01*
X25846508Y-21846299D01*
X25774689Y-21824513D01*
X25700000Y-21817157D01*
X23300000Y-21817157D01*
X23225311Y-21824513D01*
X23153492Y-21846299D01*
X23087304Y-21881678D01*
X23029289Y-21929289D01*
X22981678Y-21987304D01*
X22946299Y-22053492D01*
X22924513Y-22125311D01*
X22917157Y-22200000D01*
X12327000Y-22200000D01*
X12327000Y-19356980D01*
X13410511Y-19356980D01*
X13434866Y-19437288D01*
X13534761Y-19656961D01*
X13675592Y-19852924D01*
X13851948Y-20017647D01*
X14057051Y-20144799D01*
X14283019Y-20229495D01*
X14473000Y-20169187D01*
X14473000Y-19167000D01*
X14727000Y-19167000D01*
X14727000Y-20169187D01*
X14916981Y-20229495D01*
X15142949Y-20144799D01*
X15348052Y-20017647D01*
X15449299Y-19923078D01*
X82319000Y-19923078D01*
X82319000Y-20076922D01*
X82349013Y-20227809D01*
X82407887Y-20369942D01*
X82493358Y-20497859D01*
X82602141Y-20606642D01*
X82730058Y-20692113D01*
X82872191Y-20750987D01*
X83023078Y-20781000D01*
X83176922Y-20781000D01*
X83327809Y-20750987D01*
X83469942Y-20692113D01*
X83597859Y-20606642D01*
X83673501Y-20531000D01*
X84526499Y-20531000D01*
X84602141Y-20606642D01*
X84730058Y-20692113D01*
X84872191Y-20750987D01*
X85023078Y-20781000D01*
X85176922Y-20781000D01*
X85327809Y-20750987D01*
X85469942Y-20692113D01*
X85597859Y-20606642D01*
X85706642Y-20497859D01*
X85792113Y-20369942D01*
X85850987Y-20227809D01*
X85881000Y-20076922D01*
X85881000Y-19923078D01*
X85850987Y-19772191D01*
X85792113Y-19630058D01*
X85706642Y-19502141D01*
X85597859Y-19393358D01*
X85469942Y-19307887D01*
X85327809Y-19249013D01*
X85176922Y-19219000D01*
X85023078Y-19219000D01*
X84872191Y-19249013D01*
X84730058Y-19307887D01*
X84602141Y-19393358D01*
X84526499Y-19469000D01*
X83673501Y-19469000D01*
X83597859Y-19393358D01*
X83469942Y-19307887D01*
X83327809Y-19249013D01*
X83176922Y-19219000D01*
X83023078Y-19219000D01*
X82872191Y-19249013D01*
X82730058Y-19307887D01*
X82602141Y-19393358D01*
X82493358Y-19502141D01*
X82407887Y-19630058D01*
X82349013Y-19772191D01*
X82319000Y-19923078D01*
X15449299Y-19923078D01*
X15524408Y-19852924D01*
X15665239Y-19656961D01*
X15765134Y-19437288D01*
X15789489Y-19356980D01*
X15728627Y-19167000D01*
X14727000Y-19167000D01*
X14473000Y-19167000D01*
X13471373Y-19167000D01*
X13410511Y-19356980D01*
X12327000Y-19356980D01*
X12327000Y-18723020D01*
X13410511Y-18723020D01*
X13471373Y-18913000D01*
X14473000Y-18913000D01*
X14473000Y-17910813D01*
X14727000Y-17910813D01*
X14727000Y-18913000D01*
X15728627Y-18913000D01*
X15789489Y-18723020D01*
X15765134Y-18642712D01*
X15665239Y-18423039D01*
X15524408Y-18227076D01*
X15348052Y-18062353D01*
X15142949Y-17935201D01*
X14916981Y-17850505D01*
X14727000Y-17910813D01*
X14473000Y-17910813D01*
X14283019Y-17850505D01*
X14057051Y-17935201D01*
X13851948Y-18062353D01*
X13675592Y-18227076D01*
X13534761Y-18423039D01*
X13434866Y-18642712D01*
X13410511Y-18723020D01*
X12327000Y-18723020D01*
X12327000Y-15650000D01*
X13367157Y-15650000D01*
X13367157Y-17350000D01*
X13374513Y-17424689D01*
X13396299Y-17496508D01*
X13431678Y-17562696D01*
X13479289Y-17620711D01*
X13537304Y-17668322D01*
X13603492Y-17703701D01*
X13675311Y-17725487D01*
X13750000Y-17732843D01*
X15450000Y-17732843D01*
X15524689Y-17725487D01*
X15596508Y-17703701D01*
X15662696Y-17668322D01*
X15720711Y-17620711D01*
X15768322Y-17562696D01*
X15803701Y-17496508D01*
X15825487Y-17424689D01*
X15832843Y-17350000D01*
X15832843Y-15650000D01*
X15825487Y-15575311D01*
X15803701Y-15503492D01*
X15768322Y-15437304D01*
X15720711Y-15379289D01*
X15662696Y-15331678D01*
X15596508Y-15296299D01*
X15524689Y-15274513D01*
X15450000Y-15267157D01*
X13750000Y-15267157D01*
X13675311Y-15274513D01*
X13603492Y-15296299D01*
X13537304Y-15331678D01*
X13479289Y-15379289D01*
X13431678Y-15437304D01*
X13396299Y-15503492D01*
X13374513Y-15575311D01*
X13367157Y-15650000D01*
X12327000Y-15650000D01*
X12327000Y-15263983D01*
X17879000Y-15263983D01*
X17879000Y-15536017D01*
X17932071Y-15802823D01*
X18036174Y-16054149D01*
X18187307Y-16280336D01*
X18379664Y-16472693D01*
X18605851Y-16623826D01*
X18857177Y-16727929D01*
X19123983Y-16781000D01*
X19396017Y-16781000D01*
X19662823Y-16727929D01*
X19914149Y-16623826D01*
X20140336Y-16472693D01*
X20332693Y-16280336D01*
X20483826Y-16054149D01*
X20587929Y-15802823D01*
X20641000Y-15536017D01*
X20641000Y-15263983D01*
X22959000Y-15263983D01*
X22959000Y-15536017D01*
X23012071Y-15802823D01*
X23116174Y-16054149D01*
X23267307Y-16280336D01*
X23459664Y-16472693D01*
X23685851Y-16623826D01*
X23937177Y-16727929D01*
X24203983Y-16781000D01*
X24476017Y-16781000D01*
X24742823Y-16727929D01*
X24994149Y-16623826D01*
X25220336Y-16472693D01*
X25412693Y-16280336D01*
X25563826Y-16054149D01*
X25667929Y-15802823D01*
X25721000Y-15536017D01*
X25721000Y-15263983D01*
X25667929Y-14997177D01*
X25563826Y-14745851D01*
X25412693Y-14519664D01*
X25220336Y-14327307D01*
X24994149Y-14176174D01*
X24742823Y-14072071D01*
X24476017Y-14019000D01*
X24203983Y-14019000D01*
X23937177Y-14072071D01*
X23685851Y-14176174D01*
X23459664Y-14327307D01*
X23267307Y-14519664D01*
X23116174Y-14745851D01*
X23012071Y-14997177D01*
X22959000Y-15263983D01*
X20641000Y-15263983D01*
X20587929Y-14997177D01*
X20483826Y-14745851D01*
X20332693Y-14519664D01*
X20140336Y-14327307D01*
X19914149Y-14176174D01*
X19662823Y-14072071D01*
X19396017Y-14019000D01*
X19123983Y-14019000D01*
X18857177Y-14072071D01*
X18605851Y-14176174D01*
X18379664Y-14327307D01*
X18187307Y-14519664D01*
X18036174Y-14745851D01*
X17932071Y-14997177D01*
X17879000Y-15263983D01*
X12327000Y-15263983D01*
X12327000Y-12327000D01*
X108073000Y-12327000D01*
X108073000Y-88073000D01*
G37*
X108073000Y-88073000D02*
X12327000Y-88073000D01*
X12327000Y-60550000D01*
X21907157Y-60550000D01*
X21907157Y-62250000D01*
X21914513Y-62324689D01*
X21936299Y-62396508D01*
X21971678Y-62462696D01*
X22019289Y-62520711D01*
X22077304Y-62568322D01*
X22143492Y-62603701D01*
X22215311Y-62625487D01*
X22290000Y-62632843D01*
X23990000Y-62632843D01*
X24064689Y-62625487D01*
X24136508Y-62603701D01*
X24202696Y-62568322D01*
X24260711Y-62520711D01*
X24308322Y-62462696D01*
X24343701Y-62396508D01*
X24365487Y-62324689D01*
X24372843Y-62250000D01*
X24372843Y-61278757D01*
X24449000Y-61278757D01*
X24449000Y-61521243D01*
X24496307Y-61759069D01*
X24589102Y-61983097D01*
X24723820Y-62184717D01*
X24895283Y-62356180D01*
X25096903Y-62490898D01*
X25320931Y-62583693D01*
X25558757Y-62631000D01*
X25801243Y-62631000D01*
X26039069Y-62583693D01*
X26263097Y-62490898D01*
X26464717Y-62356180D01*
X26636180Y-62184717D01*
X26770898Y-61983097D01*
X26863693Y-61759069D01*
X26911000Y-61521243D01*
X26911000Y-61278757D01*
X26989000Y-61278757D01*
X26989000Y-61521243D01*
X27036307Y-61759069D01*
X27129102Y-61983097D01*
X27263820Y-62184717D01*
X27435283Y-62356180D01*
X27636903Y-62490898D01*
X27860931Y-62583693D01*
X28098757Y-62631000D01*
X28341243Y-62631000D01*
X28579069Y-62583693D01*
X28803097Y-62490898D01*
X29004717Y-62356180D01*
X29176180Y-62184717D01*
X29310898Y-61983097D01*
X29403693Y-61759069D01*
X29451000Y-61521243D01*
X29451000Y-61278757D01*
X29529000Y-61278757D01*
X29529000Y-61521243D01*
X29576307Y-61759069D01*
X29669102Y-61983097D01*
X29803820Y-62184717D01*
X29975283Y-62356180D01*
X30176903Y-62490898D01*
X30400931Y-62583693D01*
X30638757Y-62631000D01*
X30881243Y-62631000D01*
X31119069Y-62583693D01*
X31343097Y-62490898D01*
X31544717Y-62356180D01*
X31716180Y-62184717D01*
X31850898Y-61983097D01*
X31943693Y-61759069D01*
X31952064Y-61716981D01*
X32110505Y-61716981D01*
X32195201Y-61942949D01*
X32322353Y-62148052D01*
X32487076Y-62324408D01*
X32683039Y-62465239D01*
X32902712Y-62565134D01*
X32983020Y-62589489D01*
X33173000Y-62528627D01*
X33173000Y-61527000D01*
X33427000Y-61527000D01*
X33427000Y-62528627D01*
X33616980Y-62589489D01*
X33697288Y-62565134D01*
X33916961Y-62465239D01*
X34112924Y-62324408D01*
X34277647Y-62148052D01*
X34404799Y-61942949D01*
X34489495Y-61716981D01*
X34429187Y-61527000D01*
X33427000Y-61527000D01*
X33173000Y-61527000D01*
X32170813Y-61527000D01*
X32110505Y-61716981D01*
X31952064Y-61716981D01*
X31991000Y-61521243D01*
X31991000Y-61278757D01*
X31952065Y-61083019D01*
X32110505Y-61083019D01*
X32170813Y-61273000D01*
X33173000Y-61273000D01*
X33173000Y-60271373D01*
X33427000Y-60271373D01*
X33427000Y-61273000D01*
X34429187Y-61273000D01*
X34489495Y-61083019D01*
X34404799Y-60857051D01*
X34277647Y-60651948D01*
X34112924Y-60475592D01*
X33916961Y-60334761D01*
X33697288Y-60234866D01*
X33616980Y-60210511D01*
X33427000Y-60271373D01*
X33173000Y-60271373D01*
X32983020Y-60210511D01*
X32902712Y-60234866D01*
X32683039Y-60334761D01*
X32487076Y-60475592D01*
X32322353Y-60651948D01*
X32195201Y-60857051D01*
X32110505Y-61083019D01*
X31952065Y-61083019D01*
X31943693Y-61040931D01*
X31850898Y-60816903D01*
X31716180Y-60615283D01*
X31544717Y-60443820D01*
X31343097Y-60309102D01*
X31119069Y-60216307D01*
X30881243Y-60169000D01*
X30638757Y-60169000D01*
X30400931Y-60216307D01*
X30176903Y-60309102D01*
X29975283Y-60443820D01*
X29803820Y-60615283D01*
X29669102Y-60816903D01*
X29576307Y-61040931D01*
X29529000Y-61278757D01*
X29451000Y-61278757D01*
X29403693Y-61040931D01*
X29310898Y-60816903D01*
X29176180Y-60615283D01*
X29004717Y-60443820D01*
X28803097Y-60309102D01*
X28579069Y-60216307D01*
X28341243Y-60169000D01*
X28098757Y-60169000D01*
X27860931Y-60216307D01*
X27636903Y-60309102D01*
X27435283Y-60443820D01*
X27263820Y-60615283D01*
X27129102Y-60816903D01*
X27036307Y-61040931D01*
X26989000Y-61278757D01*
X26911000Y-61278757D01*
X26863693Y-61040931D01*
X26770898Y-60816903D01*
X26636180Y-60615283D01*
X26464717Y-60443820D01*
X26263097Y-60309102D01*
X26039069Y-60216307D01*
X25801243Y-60169000D01*
X25558757Y-60169000D01*
X25320931Y-60216307D01*
X25096903Y-60309102D01*
X24895283Y-60443820D01*
X24723820Y-60615283D01*
X24589102Y-60816903D01*
X24496307Y-61040931D01*
X24449000Y-61278757D01*
X24372843Y-61278757D01*
X24372843Y-60550000D01*
X24365487Y-60475311D01*
X24343701Y-60403492D01*
X24308322Y-60337304D01*
X24260711Y-60279289D01*
X24202696Y-60231678D01*
X24136508Y-60196299D01*
X24064689Y-60174513D01*
X23990000Y-60167157D01*
X22290000Y-60167157D01*
X22215311Y-60174513D01*
X22143492Y-60196299D01*
X22077304Y-60231678D01*
X22019289Y-60279289D01*
X21971678Y-60337304D01*
X21936299Y-60403492D01*
X21914513Y-60475311D01*
X21907157Y-60550000D01*
X12327000Y-60550000D01*
X12327000Y-58437500D01*
X36342157Y-58437500D01*
X36342157Y-59362500D01*
X36354317Y-59485962D01*
X36390329Y-59604679D01*
X36448810Y-59714089D01*
X36527512Y-59809988D01*
X36623411Y-59888690D01*
X36732821Y-59947171D01*
X36851538Y-59983183D01*
X36969000Y-59994752D01*
X36969001Y-60167157D01*
X36750000Y-60167157D01*
X36675311Y-60174513D01*
X36603492Y-60196299D01*
X36537304Y-60231678D01*
X36479289Y-60279289D01*
X36431678Y-60337304D01*
X36396299Y-60403492D01*
X36374513Y-60475311D01*
X36367157Y-60550000D01*
X36367157Y-62250000D01*
X36374513Y-62324689D01*
X36396299Y-62396508D01*
X36431678Y-62462696D01*
X36479289Y-62520711D01*
X36537304Y-62568322D01*
X36603492Y-62603701D01*
X36675311Y-62625487D01*
X36750000Y-62632843D01*
X38450000Y-62632843D01*
X38524689Y-62625487D01*
X38596508Y-62603701D01*
X38662696Y-62568322D01*
X38720711Y-62520711D01*
X38768322Y-62462696D01*
X38803701Y-62396508D01*
X38825487Y-62324689D01*
X38832843Y-62250000D01*
X38832843Y-60550000D01*
X38825487Y-60475311D01*
X38803701Y-60403492D01*
X38768322Y-60337304D01*
X38720711Y-60279289D01*
X38662696Y-60231678D01*
X38596508Y-60196299D01*
X38524689Y-60174513D01*
X38450000Y-60167157D01*
X38231000Y-60167157D01*
X38231000Y-59994752D01*
X38348462Y-59983183D01*
X38467179Y-59947171D01*
X38576589Y-59888690D01*
X38672488Y-59809988D01*
X38751190Y-59714089D01*
X38809671Y-59604679D01*
X38845683Y-59485962D01*
X38850000Y-59442131D01*
X38854317Y-59485962D01*
X38890329Y-59604679D01*
X38948810Y-59714089D01*
X39027512Y-59809988D01*
X39123411Y-59888690D01*
X39232821Y-59947171D01*
X39351538Y-59983183D01*
X39469000Y-59994752D01*
X39469001Y-60367836D01*
X39355283Y-60443820D01*
X39183820Y-60615283D01*
X39049102Y-60816903D01*
X38956307Y-61040931D01*
X38909000Y-61278757D01*
X38909000Y-61521243D01*
X38956307Y-61759069D01*
X39049102Y-61983097D01*
X39183820Y-62184717D01*
X39355283Y-62356180D01*
X39556903Y-62490898D01*
X39780931Y-62583693D01*
X40018757Y-62631000D01*
X40261243Y-62631000D01*
X40499069Y-62583693D01*
X40723097Y-62490898D01*
X40924717Y-62356180D01*
X41096180Y-62184717D01*
X41230898Y-61983097D01*
X41323693Y-61759069D01*
X41371000Y-61521243D01*
X41371000Y-61278757D01*
X41449000Y-61278757D01*
X41449000Y-61521243D01*
X41496307Y-61759069D01*
X41589102Y-61983097D01*
X41723820Y-62184717D01*
X41895283Y-62356180D01*
X42096903Y-62490898D01*
X42320931Y-62583693D01*
X42558757Y-62631000D01*
X42801243Y-62631000D01*
X43039069Y-62583693D01*
X43263097Y-62490898D01*
X43464717Y-62356180D01*
X43636180Y-62184717D01*
X43770898Y-61983097D01*
X43863693Y-61759069D01*
X43911000Y-61521243D01*
X43911000Y-61278757D01*
X43989000Y-61278757D01*
X43989000Y-61521243D01*
X44036307Y-61759069D01*
X44129102Y-61983097D01*
X44263820Y-62184717D01*
X44435283Y-62356180D01*
X44636903Y-62490898D01*
X44860931Y-62583693D01*
X45098757Y-62631000D01*
X45341243Y-62631000D01*
X45579069Y-62583693D01*
X45803097Y-62490898D01*
X46004717Y-62356180D01*
X46176180Y-62184717D01*
X46310898Y-61983097D01*
X46403693Y-61759069D01*
X46451000Y-61521243D01*
X46451000Y-61278757D01*
X46529000Y-61278757D01*
X46529000Y-61521243D01*
X46576307Y-61759069D01*
X46669102Y-61983097D01*
X46803820Y-62184717D01*
X46975283Y-62356180D01*
X47176903Y-62490898D01*
X47400931Y-62583693D01*
X47638757Y-62631000D01*
X47881243Y-62631000D01*
X48119069Y-62583693D01*
X48343097Y-62490898D01*
X48544717Y-62356180D01*
X48716180Y-62184717D01*
X48850898Y-61983097D01*
X48943693Y-61759069D01*
X48991000Y-61521243D01*
X48991000Y-61278757D01*
X49069000Y-61278757D01*
X49069000Y-61521243D01*
X49116307Y-61759069D01*
X49209102Y-61983097D01*
X49343820Y-62184717D01*
X49515283Y-62356180D01*
X49716903Y-62490898D01*
X49940931Y-62583693D01*
X50178757Y-62631000D01*
X50421243Y-62631000D01*
X50659069Y-62583693D01*
X50883097Y-62490898D01*
X51084717Y-62356180D01*
X51256180Y-62184717D01*
X51390898Y-61983097D01*
X51483693Y-61759069D01*
X51531000Y-61521243D01*
X51531000Y-61278757D01*
X51609000Y-61278757D01*
X51609000Y-61521243D01*
X51656307Y-61759069D01*
X51749102Y-61983097D01*
X51883820Y-62184717D01*
X52055283Y-62356180D01*
X52256903Y-62490898D01*
X52480931Y-62583693D01*
X52718757Y-62631000D01*
X52961243Y-62631000D01*
X53199069Y-62583693D01*
X53423097Y-62490898D01*
X53624717Y-62356180D01*
X53796180Y-62184717D01*
X53930898Y-61983097D01*
X54023693Y-61759069D01*
X54071000Y-61521243D01*
X54071000Y-61278757D01*
X54149000Y-61278757D01*
X54149000Y-61521243D01*
X54196307Y-61759069D01*
X54289102Y-61983097D01*
X54423820Y-62184717D01*
X54595283Y-62356180D01*
X54796903Y-62490898D01*
X55020931Y-62583693D01*
X55258757Y-62631000D01*
X55501243Y-62631000D01*
X55739069Y-62583693D01*
X55963097Y-62490898D01*
X56164717Y-62356180D01*
X56336180Y-62184717D01*
X56470898Y-61983097D01*
X56563693Y-61759069D01*
X56611000Y-61521243D01*
X56611000Y-61278757D01*
X56689000Y-61278757D01*
X56689000Y-61521243D01*
X56736307Y-61759069D01*
X56829102Y-61983097D01*
X56963820Y-62184717D01*
X57135283Y-62356180D01*
X57336903Y-62490898D01*
X57560931Y-62583693D01*
X57798757Y-62631000D01*
X58041243Y-62631000D01*
X58279069Y-62583693D01*
X58503097Y-62490898D01*
X58704717Y-62356180D01*
X58876180Y-62184717D01*
X59010898Y-61983097D01*
X59103693Y-61759069D01*
X59112064Y-61716981D01*
X59270505Y-61716981D01*
X59355201Y-61942949D01*
X59482353Y-62148052D01*
X59647076Y-62324408D01*
X59843039Y-62465239D01*
X60062712Y-62565134D01*
X60143020Y-62589489D01*
X60333000Y-62528627D01*
X60333000Y-61527000D01*
X60587000Y-61527000D01*
X60587000Y-62528627D01*
X60776980Y-62589489D01*
X60857288Y-62565134D01*
X61076961Y-62465239D01*
X61272924Y-62324408D01*
X61437647Y-62148052D01*
X61564799Y-61942949D01*
X61649495Y-61716981D01*
X61589187Y-61527000D01*
X60587000Y-61527000D01*
X60333000Y-61527000D01*
X59330813Y-61527000D01*
X59270505Y-61716981D01*
X59112064Y-61716981D01*
X59151000Y-61521243D01*
X59151000Y-61278757D01*
X59112065Y-61083019D01*
X59270505Y-61083019D01*
X59330813Y-61273000D01*
X60333000Y-61273000D01*
X60333000Y-60271373D01*
X60587000Y-60271373D01*
X60587000Y-61273000D01*
X61589187Y-61273000D01*
X61649495Y-61083019D01*
X61564799Y-60857051D01*
X61437647Y-60651948D01*
X61272924Y-60475592D01*
X61076961Y-60334761D01*
X60857288Y-60234866D01*
X60776980Y-60210511D01*
X60587000Y-60271373D01*
X60333000Y-60271373D01*
X60143020Y-60210511D01*
X60062712Y-60234866D01*
X59843039Y-60334761D01*
X59647076Y-60475592D01*
X59482353Y-60651948D01*
X59355201Y-60857051D01*
X59270505Y-61083019D01*
X59112065Y-61083019D01*
X59103693Y-61040931D01*
X59010898Y-60816903D01*
X58876180Y-60615283D01*
X58704717Y-60443820D01*
X58503097Y-60309102D01*
X58279069Y-60216307D01*
X58041243Y-60169000D01*
X57798757Y-60169000D01*
X57560931Y-60216307D01*
X57336903Y-60309102D01*
X57135283Y-60443820D01*
X56963820Y-60615283D01*
X56829102Y-60816903D01*
X56736307Y-61040931D01*
X56689000Y-61278757D01*
X56611000Y-61278757D01*
X56563693Y-61040931D01*
X56470898Y-60816903D01*
X56336180Y-60615283D01*
X56164717Y-60443820D01*
X55963097Y-60309102D01*
X55739069Y-60216307D01*
X55501243Y-60169000D01*
X55258757Y-60169000D01*
X55020931Y-60216307D01*
X54796903Y-60309102D01*
X54595283Y-60443820D01*
X54423820Y-60615283D01*
X54289102Y-60816903D01*
X54196307Y-61040931D01*
X54149000Y-61278757D01*
X54071000Y-61278757D01*
X54023693Y-61040931D01*
X53930898Y-60816903D01*
X53796180Y-60615283D01*
X53624717Y-60443820D01*
X53423097Y-60309102D01*
X53199069Y-60216307D01*
X52961243Y-60169000D01*
X52718757Y-60169000D01*
X52480931Y-60216307D01*
X52256903Y-60309102D01*
X52055283Y-60443820D01*
X51883820Y-60615283D01*
X51749102Y-60816903D01*
X51656307Y-61040931D01*
X51609000Y-61278757D01*
X51531000Y-61278757D01*
X51483693Y-61040931D01*
X51390898Y-60816903D01*
X51256180Y-60615283D01*
X51084717Y-60443820D01*
X50883097Y-60309102D01*
X50659069Y-60216307D01*
X50421243Y-60169000D01*
X50178757Y-60169000D01*
X49940931Y-60216307D01*
X49716903Y-60309102D01*
X49515283Y-60443820D01*
X49343820Y-60615283D01*
X49209102Y-60816903D01*
X49116307Y-61040931D01*
X49069000Y-61278757D01*
X48991000Y-61278757D01*
X48943693Y-61040931D01*
X48850898Y-60816903D01*
X48716180Y-60615283D01*
X48544717Y-60443820D01*
X48343097Y-60309102D01*
X48119069Y-60216307D01*
X47881243Y-60169000D01*
X47638757Y-60169000D01*
X47400931Y-60216307D01*
X47176903Y-60309102D01*
X46975283Y-60443820D01*
X46803820Y-60615283D01*
X46669102Y-60816903D01*
X46576307Y-61040931D01*
X46529000Y-61278757D01*
X46451000Y-61278757D01*
X46403693Y-61040931D01*
X46310898Y-60816903D01*
X46176180Y-60615283D01*
X46004717Y-60443820D01*
X45803097Y-60309102D01*
X45579069Y-60216307D01*
X45341243Y-60169000D01*
X45098757Y-60169000D01*
X44860931Y-60216307D01*
X44636903Y-60309102D01*
X44435283Y-60443820D01*
X44263820Y-60615283D01*
X44129102Y-60816903D01*
X44036307Y-61040931D01*
X43989000Y-61278757D01*
X43911000Y-61278757D01*
X43863693Y-61040931D01*
X43770898Y-60816903D01*
X43636180Y-60615283D01*
X43464717Y-60443820D01*
X43263097Y-60309102D01*
X43039069Y-60216307D01*
X42801243Y-60169000D01*
X42558757Y-60169000D01*
X42320931Y-60216307D01*
X42096903Y-60309102D01*
X41895283Y-60443820D01*
X41723820Y-60615283D01*
X41589102Y-60816903D01*
X41496307Y-61040931D01*
X41449000Y-61278757D01*
X41371000Y-61278757D01*
X41323693Y-61040931D01*
X41230898Y-60816903D01*
X41096180Y-60615283D01*
X40924717Y-60443820D01*
X40731000Y-60314383D01*
X40731000Y-59994752D01*
X40848462Y-59983183D01*
X40967179Y-59947171D01*
X41076589Y-59888690D01*
X41172488Y-59809988D01*
X41251190Y-59714089D01*
X41309671Y-59604679D01*
X41345683Y-59485962D01*
X41357843Y-59362500D01*
X41357843Y-58437500D01*
X41345683Y-58314038D01*
X41309671Y-58195321D01*
X41251190Y-58085911D01*
X41172488Y-57990012D01*
X41076589Y-57911310D01*
X40967179Y-57852829D01*
X40848462Y-57816817D01*
X40725000Y-57804657D01*
X39475000Y-57804657D01*
X39351538Y-57816817D01*
X39232821Y-57852829D01*
X39123411Y-57911310D01*
X39027512Y-57990012D01*
X38948810Y-58085911D01*
X38890329Y-58195321D01*
X38854317Y-58314038D01*
X38850000Y-58357869D01*
X38845683Y-58314038D01*
X38809671Y-58195321D01*
X38751190Y-58085911D01*
X38672488Y-57990012D01*
X38576589Y-57911310D01*
X38467179Y-57852829D01*
X38348462Y-57816817D01*
X38225000Y-57804657D01*
X36975000Y-57804657D01*
X36851538Y-57816817D01*
X36732821Y-57852829D01*
X36623411Y-57911310D01*
X36527512Y-57990012D01*
X36448810Y-58085911D01*
X36390329Y-58195321D01*
X36354317Y-58314038D01*
X36342157Y-58437500D01*
X12327000Y-58437500D01*
X12327000Y-44200000D01*
X17665948Y-44200000D01*
X17669001Y-44231000D01*
X17669000Y-55769010D01*
X17665948Y-55800000D01*
X17669000Y-55830990D01*
X17669000Y-55830997D01*
X17678130Y-55923697D01*
X17714211Y-56042641D01*
X17772804Y-56152260D01*
X17851657Y-56248343D01*
X17875737Y-56268105D01*
X18631899Y-57024268D01*
X18651657Y-57048343D01*
X18675732Y-57068101D01*
X18675734Y-57068103D01*
X18719704Y-57104188D01*
X18747739Y-57127196D01*
X18857358Y-57185789D01*
X18976302Y-57221870D01*
X19069002Y-57231000D01*
X19069009Y-57231000D01*
X19100000Y-57234052D01*
X19130990Y-57231000D01*
X23169010Y-57231000D01*
X23200000Y-57234052D01*
X23230990Y-57231000D01*
X23230998Y-57231000D01*
X23323698Y-57221870D01*
X23442642Y-57185789D01*
X23552261Y-57127196D01*
X23648343Y-57048343D01*
X23668105Y-57024263D01*
X24136369Y-56556000D01*
X36367979Y-56556000D01*
X36390329Y-56629679D01*
X36448810Y-56739089D01*
X36527512Y-56834988D01*
X36623411Y-56913690D01*
X36732821Y-56972171D01*
X36851538Y-57008183D01*
X36975000Y-57020343D01*
X38225000Y-57020343D01*
X38348462Y-57008183D01*
X38467179Y-56972171D01*
X38576589Y-56913690D01*
X38672488Y-56834988D01*
X38751190Y-56739089D01*
X38809671Y-56629679D01*
X38845683Y-56510962D01*
X38850000Y-56467131D01*
X38854317Y-56510962D01*
X38890329Y-56629679D01*
X38948810Y-56739089D01*
X39027512Y-56834988D01*
X39123411Y-56913690D01*
X39232821Y-56972171D01*
X39351538Y-57008183D01*
X39475000Y-57020343D01*
X40725000Y-57020343D01*
X40848462Y-57008183D01*
X40967179Y-56972171D01*
X41076589Y-56913690D01*
X41172488Y-56834988D01*
X41251190Y-56739089D01*
X41309671Y-56629679D01*
X41345683Y-56510962D01*
X41357843Y-56387500D01*
X41357843Y-55462500D01*
X41345683Y-55339038D01*
X41309671Y-55220321D01*
X41251190Y-55110911D01*
X41172488Y-55015012D01*
X41076589Y-54936310D01*
X40967179Y-54877829D01*
X40848462Y-54841817D01*
X40731000Y-54830248D01*
X40731000Y-54623078D01*
X43519000Y-54623078D01*
X43519000Y-54776922D01*
X43549013Y-54927809D01*
X43607887Y-55069942D01*
X43693358Y-55197859D01*
X43802141Y-55306642D01*
X43930058Y-55392113D01*
X44072191Y-55450987D01*
X44223078Y-55481000D01*
X44376922Y-55481000D01*
X44527809Y-55450987D01*
X44669942Y-55392113D01*
X44797859Y-55306642D01*
X44873501Y-55231000D01*
X49426499Y-55231000D01*
X49502141Y-55306642D01*
X49630058Y-55392113D01*
X49772191Y-55450987D01*
X49923078Y-55481000D01*
X50076922Y-55481000D01*
X50227809Y-55450987D01*
X50369942Y-55392113D01*
X50497859Y-55306642D01*
X50606642Y-55197859D01*
X50692113Y-55069942D01*
X50750987Y-54927809D01*
X50781000Y-54776922D01*
X50781000Y-54623078D01*
X50750987Y-54472191D01*
X50692113Y-54330058D01*
X50606642Y-54202141D01*
X50497859Y-54093358D01*
X50369942Y-54007887D01*
X50227809Y-53949013D01*
X50076922Y-53919000D01*
X49923078Y-53919000D01*
X49772191Y-53949013D01*
X49630058Y-54007887D01*
X49502141Y-54093358D01*
X49426499Y-54169000D01*
X44873501Y-54169000D01*
X44797859Y-54093358D01*
X44669942Y-54007887D01*
X44527809Y-53949013D01*
X44376922Y-53919000D01*
X44223078Y-53919000D01*
X44072191Y-53949013D01*
X43930058Y-54007887D01*
X43802141Y-54093358D01*
X43693358Y-54202141D01*
X43607887Y-54330058D01*
X43549013Y-54472191D01*
X43519000Y-54623078D01*
X40731000Y-54623078D01*
X40731000Y-54430990D01*
X40734052Y-54400000D01*
X40731000Y-54369009D01*
X40731000Y-54369002D01*
X40721870Y-54276302D01*
X40685789Y-54157358D01*
X40627196Y-54047739D01*
X40548343Y-53951657D01*
X40524268Y-53931899D01*
X40068105Y-53475737D01*
X40048343Y-53451657D01*
X39952261Y-53372804D01*
X39842642Y-53314211D01*
X39723698Y-53278130D01*
X39630998Y-53269000D01*
X39630990Y-53269000D01*
X39600000Y-53265948D01*
X39569010Y-53269000D01*
X23530987Y-53269000D01*
X23499999Y-53265948D01*
X23469011Y-53269000D01*
X23469002Y-53269000D01*
X23376302Y-53278130D01*
X23257358Y-53314211D01*
X23147739Y-53372804D01*
X23051657Y-53451657D01*
X23031899Y-53475732D01*
X21738632Y-54769000D01*
X20731000Y-54769000D01*
X20731000Y-53861368D01*
X23569290Y-51023078D01*
X40019000Y-51023078D01*
X40019000Y-51176922D01*
X40049013Y-51327809D01*
X40107887Y-51469942D01*
X40193358Y-51597859D01*
X40302141Y-51706642D01*
X40430058Y-51792113D01*
X40572191Y-51850987D01*
X40723078Y-51881000D01*
X40876922Y-51881000D01*
X41027809Y-51850987D01*
X41169942Y-51792113D01*
X41297859Y-51706642D01*
X41406642Y-51597859D01*
X41492113Y-51469942D01*
X41550987Y-51327809D01*
X41581000Y-51176922D01*
X41581000Y-51069946D01*
X44019948Y-48631000D01*
X50026499Y-48631000D01*
X50102141Y-48706642D01*
X50230058Y-48792113D01*
X50372191Y-48850987D01*
X50523078Y-48881000D01*
X50676922Y-48881000D01*
X50827809Y-48850987D01*
X50969942Y-48792113D01*
X51097859Y-48706642D01*
X51206642Y-48597859D01*
X51292113Y-48469942D01*
X51350987Y-48327809D01*
X51381000Y-48176922D01*
X51381000Y-48023078D01*
X51350987Y-47872191D01*
X51292113Y-47730058D01*
X51206642Y-47602141D01*
X51097859Y-47493358D01*
X50969942Y-47407887D01*
X50827809Y-47349013D01*
X50676922Y-47319000D01*
X50523078Y-47319000D01*
X50372191Y-47349013D01*
X50230058Y-47407887D01*
X50102141Y-47493358D01*
X50026499Y-47569000D01*
X43826074Y-47569000D01*
X43800000Y-47566432D01*
X43773926Y-47569000D01*
X43773916Y-47569000D01*
X43695906Y-47576683D01*
X43607531Y-47603492D01*
X43595812Y-47607047D01*
X43503564Y-47656354D01*
X43442970Y-47706082D01*
X43442964Y-47706088D01*
X43422710Y-47722710D01*
X43406088Y-47742964D01*
X40830054Y-50319000D01*
X40723078Y-50319000D01*
X40572191Y-50349013D01*
X40430058Y-50407887D01*
X40302141Y-50493358D01*
X40193358Y-50602141D01*
X40107887Y-50730058D01*
X40049013Y-50872191D01*
X40019000Y-51023078D01*
X23569290Y-51023078D01*
X25524268Y-49068101D01*
X25548343Y-49048343D01*
X25591377Y-48995907D01*
X25627196Y-48952261D01*
X25685789Y-48842642D01*
X25721870Y-48723698D01*
X25723550Y-48706642D01*
X25731000Y-48630998D01*
X25731000Y-48630991D01*
X25734052Y-48600000D01*
X25731000Y-48569010D01*
X25731000Y-47231000D01*
X31969010Y-47231000D01*
X32000000Y-47234052D01*
X32030990Y-47231000D01*
X32030998Y-47231000D01*
X32123698Y-47221870D01*
X32242642Y-47185789D01*
X32352261Y-47127196D01*
X32448343Y-47048343D01*
X32468105Y-47024263D01*
X38361369Y-41131000D01*
X41338595Y-41131000D01*
X41430058Y-41192113D01*
X41572191Y-41250987D01*
X41723078Y-41281000D01*
X41876922Y-41281000D01*
X42027809Y-41250987D01*
X42169942Y-41192113D01*
X42297859Y-41106642D01*
X42406642Y-40997859D01*
X42492113Y-40869942D01*
X42550987Y-40727809D01*
X42581000Y-40576922D01*
X42581000Y-40423078D01*
X42550987Y-40272191D01*
X42492113Y-40130058D01*
X42406642Y-40002141D01*
X42297859Y-39893358D01*
X42169942Y-39807887D01*
X42027809Y-39749013D01*
X41876922Y-39719000D01*
X41723078Y-39719000D01*
X41572191Y-39749013D01*
X41430058Y-39807887D01*
X41338595Y-39869000D01*
X38130990Y-39869000D01*
X38100000Y-39865948D01*
X38069009Y-39869000D01*
X38069002Y-39869000D01*
X37976302Y-39878130D01*
X37857358Y-39914211D01*
X37747739Y-39972804D01*
X37651657Y-40051657D01*
X37631899Y-40075732D01*
X31738632Y-45969000D01*
X25561405Y-45969000D01*
X25469942Y-45907887D01*
X25327809Y-45849013D01*
X25176922Y-45819000D01*
X25023078Y-45819000D01*
X24872191Y-45849013D01*
X24730058Y-45907887D01*
X24602141Y-45993358D01*
X24493358Y-46102141D01*
X24407887Y-46230058D01*
X24349013Y-46372191D01*
X24319000Y-46523078D01*
X24319000Y-46676922D01*
X24349013Y-46827809D01*
X24407887Y-46969942D01*
X24469000Y-47061405D01*
X24469001Y-48338630D01*
X19675733Y-53131899D01*
X19651658Y-53151657D01*
X19631900Y-53175732D01*
X19631897Y-53175735D01*
X19572804Y-53247740D01*
X19514211Y-53357359D01*
X19478130Y-53476303D01*
X19465948Y-53600000D01*
X19469001Y-53631000D01*
X19469000Y-54938595D01*
X19407887Y-55030058D01*
X19349013Y-55172191D01*
X19319000Y-55323078D01*
X19319000Y-55476922D01*
X19349013Y-55627809D01*
X19407887Y-55769942D01*
X19493358Y-55897859D01*
X19564499Y-55969000D01*
X19361369Y-55969000D01*
X18931000Y-55538632D01*
X18931000Y-44461368D01*
X20474028Y-42918340D01*
X20497177Y-42927929D01*
X20564042Y-42941229D01*
X20629277Y-42961018D01*
X20697118Y-42967700D01*
X20763983Y-42981000D01*
X26267843Y-42981000D01*
X26470723Y-42961018D01*
X26731043Y-42882051D01*
X26916648Y-42782843D01*
X27000000Y-42782843D01*
X27074689Y-42775487D01*
X27146508Y-42753701D01*
X27212696Y-42718322D01*
X27270711Y-42670711D01*
X27318322Y-42612696D01*
X27353701Y-42546508D01*
X27375487Y-42474689D01*
X27382843Y-42400000D01*
X27382843Y-42316648D01*
X27482051Y-42131043D01*
X27561018Y-41870723D01*
X27587682Y-41600000D01*
X27561018Y-41329277D01*
X27482051Y-41068957D01*
X27382843Y-40883352D01*
X27382843Y-40800000D01*
X27375487Y-40725311D01*
X27353701Y-40653492D01*
X27318322Y-40587304D01*
X27270711Y-40529289D01*
X27212696Y-40481678D01*
X27146508Y-40446299D01*
X27074689Y-40424513D01*
X27000000Y-40417157D01*
X26916648Y-40417157D01*
X26731043Y-40317949D01*
X26498558Y-40247426D01*
X26510012Y-40245505D01*
X26727532Y-40163014D01*
X26790782Y-40129207D01*
X26876737Y-39956342D01*
X26200000Y-39279605D01*
X25523263Y-39956342D01*
X25609218Y-40129207D01*
X25808722Y-40219000D01*
X21628635Y-40219000D01*
X21719662Y-40059267D01*
X20900000Y-39239605D01*
X20080338Y-40059267D01*
X20190510Y-40252596D01*
X20350692Y-40327712D01*
X20308834Y-40350085D01*
X20245851Y-40376174D01*
X20189166Y-40414049D01*
X20129045Y-40446185D01*
X20076350Y-40489430D01*
X20019664Y-40527307D01*
X19971455Y-40575516D01*
X19918761Y-40618761D01*
X19875516Y-40671455D01*
X19827307Y-40719664D01*
X19789430Y-40776350D01*
X19746185Y-40829045D01*
X19714049Y-40889166D01*
X19676174Y-40945851D01*
X19650085Y-41008834D01*
X19617949Y-41068957D01*
X19598160Y-41134193D01*
X19572071Y-41197177D01*
X19558771Y-41264042D01*
X19538982Y-41329277D01*
X19532300Y-41397119D01*
X19519000Y-41463983D01*
X19519000Y-41532157D01*
X19512318Y-41600000D01*
X19519000Y-41667843D01*
X19519000Y-41736017D01*
X19532300Y-41802881D01*
X19538982Y-41870723D01*
X19558771Y-41935958D01*
X19572071Y-42002823D01*
X19581660Y-42025972D01*
X17875733Y-43731899D01*
X17851658Y-43751657D01*
X17831900Y-43775732D01*
X17831897Y-43775735D01*
X17772804Y-43847740D01*
X17714211Y-43957359D01*
X17678130Y-44076303D01*
X17665948Y-44200000D01*
X12327000Y-44200000D01*
X12327000Y-39132651D01*
X19514222Y-39132651D01*
X19555023Y-39401607D01*
X19647510Y-39657435D01*
X19707404Y-39769490D01*
X19900733Y-39879662D01*
X20720395Y-39060000D01*
X21079605Y-39060000D01*
X21899267Y-39879662D01*
X22092596Y-39769490D01*
X22208095Y-39523194D01*
X22253959Y-39337500D01*
X22442157Y-39337500D01*
X22449513Y-39412189D01*
X22471299Y-39484008D01*
X22506678Y-39550196D01*
X22554289Y-39608211D01*
X22612304Y-39655822D01*
X22678492Y-39691201D01*
X22750311Y-39712987D01*
X22825000Y-39720343D01*
X23477750Y-39718500D01*
X23573000Y-39623250D01*
X23573000Y-38752000D01*
X23827000Y-38752000D01*
X23827000Y-39623250D01*
X23922250Y-39718500D01*
X24575000Y-39720343D01*
X24649689Y-39712987D01*
X24721508Y-39691201D01*
X24787696Y-39655822D01*
X24845711Y-39608211D01*
X24893322Y-39550196D01*
X24928701Y-39484008D01*
X24950487Y-39412189D01*
X24957843Y-39337500D01*
X24957254Y-39180578D01*
X25016025Y-39180578D01*
X25054495Y-39410012D01*
X25136986Y-39627532D01*
X25170793Y-39690782D01*
X25343658Y-39776737D01*
X26020395Y-39100000D01*
X26379605Y-39100000D01*
X27056342Y-39776737D01*
X27229207Y-39690782D01*
X27324687Y-39478642D01*
X27376945Y-39251952D01*
X27383975Y-39019422D01*
X27345505Y-38789988D01*
X27263014Y-38572468D01*
X27251005Y-38550000D01*
X31267157Y-38550000D01*
X31267157Y-40250000D01*
X31274513Y-40324689D01*
X31296299Y-40396508D01*
X31331678Y-40462696D01*
X31379289Y-40520711D01*
X31437304Y-40568322D01*
X31503492Y-40603701D01*
X31575311Y-40625487D01*
X31650000Y-40632843D01*
X33350000Y-40632843D01*
X33424689Y-40625487D01*
X33496508Y-40603701D01*
X33562696Y-40568322D01*
X33620711Y-40520711D01*
X33668322Y-40462696D01*
X33703701Y-40396508D01*
X33725487Y-40324689D01*
X33732843Y-40250000D01*
X33732843Y-38550000D01*
X33725487Y-38475311D01*
X33703701Y-38403492D01*
X33668322Y-38337304D01*
X33620711Y-38279289D01*
X33562696Y-38231678D01*
X33496508Y-38196299D01*
X33424689Y-38174513D01*
X33350000Y-38167157D01*
X31650000Y-38167157D01*
X31575311Y-38174513D01*
X31503492Y-38196299D01*
X31437304Y-38231678D01*
X31379289Y-38279289D01*
X31331678Y-38337304D01*
X31296299Y-38403492D01*
X31274513Y-38475311D01*
X31267157Y-38550000D01*
X27251005Y-38550000D01*
X27229207Y-38509218D01*
X27056342Y-38423263D01*
X26379605Y-39100000D01*
X26020395Y-39100000D01*
X25343658Y-38423263D01*
X25170793Y-38509218D01*
X25075313Y-38721358D01*
X25023055Y-38948048D01*
X25016025Y-39180578D01*
X24957254Y-39180578D01*
X24956000Y-38847250D01*
X24860750Y-38752000D01*
X23827000Y-38752000D01*
X23573000Y-38752000D01*
X22539250Y-38752000D01*
X22444000Y-38847250D01*
X22442157Y-39337500D01*
X22253959Y-39337500D01*
X22273324Y-39259097D01*
X22285778Y-38987349D01*
X22244977Y-38718393D01*
X22152490Y-38462565D01*
X22092596Y-38350510D01*
X21899267Y-38240338D01*
X21079605Y-39060000D01*
X20720395Y-39060000D01*
X19900733Y-38240338D01*
X19707404Y-38350510D01*
X19591905Y-38596806D01*
X19526676Y-38860903D01*
X19514222Y-39132651D01*
X12327000Y-39132651D01*
X12327000Y-36383983D01*
X19519000Y-36383983D01*
X19519000Y-36656017D01*
X19572071Y-36922823D01*
X19676174Y-37174149D01*
X19827307Y-37400336D01*
X20019664Y-37592693D01*
X20245851Y-37743826D01*
X20354377Y-37788779D01*
X20302565Y-37807510D01*
X20190510Y-37867404D01*
X20080338Y-38060733D01*
X20900000Y-38880395D01*
X21719662Y-38060733D01*
X21635189Y-37912500D01*
X22442157Y-37912500D01*
X22444000Y-38402750D01*
X22539250Y-38498000D01*
X23573000Y-38498000D01*
X23573000Y-37626750D01*
X23827000Y-37626750D01*
X23827000Y-38498000D01*
X24860750Y-38498000D01*
X24956000Y-38402750D01*
X24956598Y-38243658D01*
X25523263Y-38243658D01*
X26200000Y-38920395D01*
X26876737Y-38243658D01*
X26790782Y-38070793D01*
X26578642Y-37975313D01*
X26351952Y-37923055D01*
X26119422Y-37916025D01*
X25889988Y-37954495D01*
X25672468Y-38036986D01*
X25609218Y-38070793D01*
X25523263Y-38243658D01*
X24956598Y-38243658D01*
X24957843Y-37912500D01*
X24950487Y-37837811D01*
X24928701Y-37765992D01*
X24893322Y-37699804D01*
X24845711Y-37641789D01*
X24787696Y-37594178D01*
X24721508Y-37558799D01*
X24649689Y-37537013D01*
X24575000Y-37529657D01*
X23922250Y-37531500D01*
X23827000Y-37626750D01*
X23573000Y-37626750D01*
X23477750Y-37531500D01*
X22825000Y-37529657D01*
X22750311Y-37537013D01*
X22678492Y-37558799D01*
X22612304Y-37594178D01*
X22554289Y-37641789D01*
X22506678Y-37699804D01*
X22471299Y-37765992D01*
X22449513Y-37837811D01*
X22442157Y-37912500D01*
X21635189Y-37912500D01*
X21609490Y-37867404D01*
X21443607Y-37789614D01*
X21554149Y-37743826D01*
X21780336Y-37592693D01*
X21972693Y-37400336D01*
X22123826Y-37174149D01*
X22227929Y-36922823D01*
X22281000Y-36656017D01*
X22281000Y-36383983D01*
X22227929Y-36117177D01*
X22123826Y-35865851D01*
X21972693Y-35639664D01*
X21780336Y-35447307D01*
X21554149Y-35296174D01*
X21531000Y-35286585D01*
X21531000Y-34761368D01*
X21533038Y-34759329D01*
X21541817Y-34848462D01*
X21577829Y-34967179D01*
X21636310Y-35076589D01*
X21715012Y-35172488D01*
X21810911Y-35251190D01*
X21920321Y-35309671D01*
X22039038Y-35345683D01*
X22162500Y-35357843D01*
X23087500Y-35357843D01*
X23210962Y-35345683D01*
X23329679Y-35309671D01*
X23439089Y-35251190D01*
X23534988Y-35172488D01*
X23613690Y-35076589D01*
X23672171Y-34967179D01*
X23708183Y-34848462D01*
X23720343Y-34725000D01*
X23720343Y-33475000D01*
X23708183Y-33351538D01*
X23672171Y-33232821D01*
X23613690Y-33123411D01*
X23534988Y-33027512D01*
X23439089Y-32948810D01*
X23426826Y-32942255D01*
X23471508Y-32928701D01*
X23537696Y-32893322D01*
X23595711Y-32845711D01*
X23643322Y-32787696D01*
X23678701Y-32721508D01*
X23700487Y-32649689D01*
X23707843Y-32575000D01*
X23706000Y-31922250D01*
X23610750Y-31827000D01*
X22739500Y-31827000D01*
X22739500Y-31847000D01*
X22485500Y-31847000D01*
X22485500Y-31827000D01*
X21614250Y-31827000D01*
X21519000Y-31922250D01*
X21517157Y-32575000D01*
X21524513Y-32649689D01*
X21546299Y-32721508D01*
X21581678Y-32787696D01*
X21629289Y-32845711D01*
X21687304Y-32893322D01*
X21753492Y-32928701D01*
X21814123Y-32947093D01*
X21810911Y-32948810D01*
X21715012Y-33027512D01*
X21636310Y-33123411D01*
X21577829Y-33232821D01*
X21541817Y-33351538D01*
X21530248Y-33469000D01*
X21330987Y-33469000D01*
X21299999Y-33465948D01*
X21269011Y-33469000D01*
X21269002Y-33469000D01*
X21176302Y-33478130D01*
X21057358Y-33514211D01*
X20947739Y-33572804D01*
X20851657Y-33651657D01*
X20831890Y-33675742D01*
X20475733Y-34031899D01*
X20451658Y-34051657D01*
X20431900Y-34075732D01*
X20431897Y-34075735D01*
X20372804Y-34147740D01*
X20314211Y-34257359D01*
X20278130Y-34376303D01*
X20265948Y-34500000D01*
X20269001Y-34531000D01*
X20269001Y-35286585D01*
X20245851Y-35296174D01*
X20019664Y-35447307D01*
X19827307Y-35639664D01*
X19676174Y-35865851D01*
X19572071Y-36117177D01*
X19519000Y-36383983D01*
X12327000Y-36383983D01*
X12327000Y-30825000D01*
X21517157Y-30825000D01*
X21519000Y-31477750D01*
X21614250Y-31573000D01*
X22485500Y-31573000D01*
X22485500Y-30539250D01*
X22739500Y-30539250D01*
X22739500Y-31573000D01*
X23610750Y-31573000D01*
X23706000Y-31477750D01*
X23707137Y-31075000D01*
X24492157Y-31075000D01*
X24492157Y-32325000D01*
X24504317Y-32448462D01*
X24540329Y-32567179D01*
X24598810Y-32676589D01*
X24677512Y-32772488D01*
X24773411Y-32851190D01*
X24870978Y-32903341D01*
X24785911Y-32948810D01*
X24690012Y-33027512D01*
X24611310Y-33123411D01*
X24552829Y-33232821D01*
X24516817Y-33351538D01*
X24504657Y-33475000D01*
X24504657Y-34725000D01*
X24516817Y-34848462D01*
X24552829Y-34967179D01*
X24611310Y-35076589D01*
X24690012Y-35172488D01*
X24785911Y-35251190D01*
X24895321Y-35309671D01*
X25014038Y-35345683D01*
X25137500Y-35357843D01*
X26062500Y-35357843D01*
X26185962Y-35345683D01*
X26304679Y-35309671D01*
X26414089Y-35251190D01*
X26509988Y-35172488D01*
X26547392Y-35126911D01*
X26547739Y-35127196D01*
X26657358Y-35185789D01*
X26764085Y-35218164D01*
X26790329Y-35304679D01*
X26848810Y-35414089D01*
X26927512Y-35509988D01*
X27023411Y-35588690D01*
X27132821Y-35647171D01*
X27251538Y-35683183D01*
X27375000Y-35695343D01*
X28625000Y-35695343D01*
X28748462Y-35683183D01*
X28867179Y-35647171D01*
X28976589Y-35588690D01*
X29072488Y-35509988D01*
X29151190Y-35414089D01*
X29209671Y-35304679D01*
X29245683Y-35185962D01*
X29251096Y-35131000D01*
X29280054Y-35131000D01*
X30506083Y-36357030D01*
X30522710Y-36377290D01*
X30542970Y-36393917D01*
X30603564Y-36443646D01*
X30695812Y-36492953D01*
X30795906Y-36523317D01*
X30873916Y-36531000D01*
X30873926Y-36531000D01*
X30900000Y-36533568D01*
X30926074Y-36531000D01*
X36873926Y-36531000D01*
X36900000Y-36533568D01*
X36926074Y-36531000D01*
X36926084Y-36531000D01*
X37004094Y-36523317D01*
X37104188Y-36492953D01*
X37196435Y-36443646D01*
X37277290Y-36377290D01*
X37293921Y-36357025D01*
X37519947Y-36131000D01*
X44938572Y-36131000D01*
X44937304Y-36131678D01*
X44879289Y-36179289D01*
X44831678Y-36237304D01*
X44796299Y-36303492D01*
X44774513Y-36375311D01*
X44767157Y-36450000D01*
X44767157Y-38150000D01*
X44774513Y-38224689D01*
X44796299Y-38296508D01*
X44831678Y-38362696D01*
X44879289Y-38420711D01*
X44937304Y-38468322D01*
X45003492Y-38503701D01*
X45075311Y-38525487D01*
X45150000Y-38532843D01*
X46850000Y-38532843D01*
X46924689Y-38525487D01*
X46996508Y-38503701D01*
X47062696Y-38468322D01*
X47120711Y-38420711D01*
X47168322Y-38362696D01*
X47203701Y-38296508D01*
X47225487Y-38224689D01*
X47232843Y-38150000D01*
X47232843Y-36450000D01*
X47225487Y-36375311D01*
X47203701Y-36303492D01*
X47168322Y-36237304D01*
X47120711Y-36179289D01*
X47062696Y-36131678D01*
X47061428Y-36131000D01*
X48638572Y-36131000D01*
X48637304Y-36131678D01*
X48579289Y-36179289D01*
X48531678Y-36237304D01*
X48496299Y-36303492D01*
X48474513Y-36375311D01*
X48467157Y-36450000D01*
X48467157Y-38150000D01*
X48474513Y-38224689D01*
X48496299Y-38296508D01*
X48531678Y-38362696D01*
X48579289Y-38420711D01*
X48637304Y-38468322D01*
X48703492Y-38503701D01*
X48775311Y-38525487D01*
X48850000Y-38532843D01*
X50550000Y-38532843D01*
X50624689Y-38525487D01*
X50696508Y-38503701D01*
X50762696Y-38468322D01*
X50820711Y-38420711D01*
X50868322Y-38362696D01*
X50903701Y-38296508D01*
X50925487Y-38224689D01*
X50932843Y-38150000D01*
X50932843Y-36450000D01*
X50925487Y-36375311D01*
X50903701Y-36303492D01*
X50868322Y-36237304D01*
X50820711Y-36179289D01*
X50762696Y-36131678D01*
X50761428Y-36131000D01*
X52338572Y-36131000D01*
X52337304Y-36131678D01*
X52279289Y-36179289D01*
X52231678Y-36237304D01*
X52196299Y-36303492D01*
X52174513Y-36375311D01*
X52167157Y-36450000D01*
X52167157Y-38150000D01*
X52174513Y-38224689D01*
X52196299Y-38296508D01*
X52231678Y-38362696D01*
X52279289Y-38420711D01*
X52337304Y-38468322D01*
X52403492Y-38503701D01*
X52475311Y-38525487D01*
X52550000Y-38532843D01*
X52869001Y-38532843D01*
X52869000Y-40380053D01*
X52642970Y-40606084D01*
X52622711Y-40622710D01*
X52606084Y-40642970D01*
X52606083Y-40642971D01*
X52556354Y-40703565D01*
X52507047Y-40795813D01*
X52495814Y-40832843D01*
X52476862Y-40895321D01*
X52476684Y-40895907D01*
X52466432Y-41000000D01*
X52469001Y-41026084D01*
X52469000Y-51373926D01*
X52466432Y-51400000D01*
X52469000Y-51426074D01*
X52469000Y-51426083D01*
X52476683Y-51504093D01*
X52507047Y-51604187D01*
X52556354Y-51696435D01*
X52622710Y-51777290D01*
X52642975Y-51793921D01*
X58106088Y-57257036D01*
X58122710Y-57277290D01*
X58142964Y-57293912D01*
X58142970Y-57293918D01*
X58203564Y-57343646D01*
X58295812Y-57392953D01*
X58395906Y-57423317D01*
X58473916Y-57431000D01*
X58473926Y-57431000D01*
X58500000Y-57433568D01*
X58526074Y-57431000D01*
X60880054Y-57431000D01*
X62769001Y-59319948D01*
X62769000Y-63780053D01*
X59742971Y-66806083D01*
X59722711Y-66822710D01*
X59706084Y-66842970D01*
X59706083Y-66842971D01*
X59656354Y-66903565D01*
X59607047Y-66995813D01*
X59576684Y-67095907D01*
X59566432Y-67200000D01*
X59569001Y-67226084D01*
X59569000Y-71326499D01*
X59493358Y-71402141D01*
X59407887Y-71530058D01*
X59349013Y-71672191D01*
X59319000Y-71823078D01*
X59319000Y-71976922D01*
X59349013Y-72127809D01*
X59407887Y-72269942D01*
X59493358Y-72397859D01*
X59602141Y-72506642D01*
X59730058Y-72592113D01*
X59872191Y-72650987D01*
X60023078Y-72681000D01*
X60176922Y-72681000D01*
X60327809Y-72650987D01*
X60469942Y-72592113D01*
X60597859Y-72506642D01*
X60706642Y-72397859D01*
X60792113Y-72269942D01*
X60850987Y-72127809D01*
X60881000Y-71976922D01*
X60881000Y-71823078D01*
X60850987Y-71672191D01*
X60792113Y-71530058D01*
X60706642Y-71402141D01*
X60631000Y-71326499D01*
X60631000Y-67419946D01*
X63657030Y-64393917D01*
X63677290Y-64377290D01*
X63693917Y-64357030D01*
X63743646Y-64296436D01*
X63760821Y-64264304D01*
X63792953Y-64204188D01*
X63823317Y-64104094D01*
X63831000Y-64026084D01*
X63831000Y-64026075D01*
X63833568Y-64000001D01*
X63831000Y-63973927D01*
X63831000Y-59126074D01*
X63833568Y-59100000D01*
X63831000Y-59073926D01*
X63831000Y-59073916D01*
X63823317Y-58995906D01*
X63792953Y-58895812D01*
X63778623Y-58869002D01*
X63743646Y-58803564D01*
X63693917Y-58742970D01*
X63677290Y-58722710D01*
X63657030Y-58706083D01*
X61493921Y-56542975D01*
X61477290Y-56522710D01*
X61396435Y-56456354D01*
X61304188Y-56407047D01*
X61204094Y-56376683D01*
X61126084Y-56369000D01*
X61126074Y-56369000D01*
X61100000Y-56366432D01*
X61073926Y-56369000D01*
X58719948Y-56369000D01*
X53531000Y-51180054D01*
X53531000Y-49023078D01*
X54119000Y-49023078D01*
X54119000Y-49176922D01*
X54149013Y-49327809D01*
X54207887Y-49469942D01*
X54293358Y-49597859D01*
X54369001Y-49673502D01*
X54369000Y-50873926D01*
X54366432Y-50900000D01*
X54369000Y-50926074D01*
X54369000Y-50926083D01*
X54376683Y-51004093D01*
X54407047Y-51104187D01*
X54456354Y-51196435D01*
X54522710Y-51277290D01*
X54542975Y-51293921D01*
X59206088Y-55957036D01*
X59222710Y-55977290D01*
X59242964Y-55993912D01*
X59242970Y-55993918D01*
X59303564Y-56043646D01*
X59394240Y-56092113D01*
X59395812Y-56092953D01*
X59495906Y-56123317D01*
X59573916Y-56131000D01*
X59573926Y-56131000D01*
X59600000Y-56133568D01*
X59626074Y-56131000D01*
X61580054Y-56131000D01*
X65569001Y-60119948D01*
X65569000Y-68426499D01*
X65493358Y-68502141D01*
X65407887Y-68630058D01*
X65349013Y-68772191D01*
X65319000Y-68923078D01*
X65319000Y-69076922D01*
X65349013Y-69227809D01*
X65407887Y-69369942D01*
X65493358Y-69497859D01*
X65602141Y-69606642D01*
X65730058Y-69692113D01*
X65872191Y-69750987D01*
X66023078Y-69781000D01*
X66176922Y-69781000D01*
X66327809Y-69750987D01*
X66469942Y-69692113D01*
X66597859Y-69606642D01*
X66706642Y-69497859D01*
X66792113Y-69369942D01*
X66850987Y-69227809D01*
X66881000Y-69076922D01*
X66881000Y-68923078D01*
X66850987Y-68772191D01*
X66792113Y-68630058D01*
X66706642Y-68502141D01*
X66631000Y-68426499D01*
X66631000Y-59926073D01*
X66633568Y-59899999D01*
X66631000Y-59873925D01*
X66631000Y-59873916D01*
X66623317Y-59795906D01*
X66592953Y-59695812D01*
X66554203Y-59623316D01*
X66543646Y-59603564D01*
X66493917Y-59542970D01*
X66477290Y-59522710D01*
X66457030Y-59506083D01*
X62193921Y-55242975D01*
X62177290Y-55222710D01*
X62096435Y-55156354D01*
X62004188Y-55107047D01*
X61904094Y-55076683D01*
X61826084Y-55069000D01*
X61826074Y-55069000D01*
X61800000Y-55066432D01*
X61773926Y-55069000D01*
X59819948Y-55069000D01*
X55769704Y-51018757D01*
X99969000Y-51018757D01*
X99969000Y-51261243D01*
X100016307Y-51499069D01*
X100109102Y-51723097D01*
X100243820Y-51924717D01*
X100415283Y-52096180D01*
X100616903Y-52230898D01*
X100840931Y-52323693D01*
X101078757Y-52371000D01*
X101321243Y-52371000D01*
X101559069Y-52323693D01*
X101783097Y-52230898D01*
X101984717Y-52096180D01*
X102156180Y-51924717D01*
X102290898Y-51723097D01*
X102383693Y-51499069D01*
X102431000Y-51261243D01*
X102431000Y-51018757D01*
X102383693Y-50780931D01*
X102290898Y-50556903D01*
X102156180Y-50355283D01*
X101984717Y-50183820D01*
X101783097Y-50049102D01*
X101559069Y-49956307D01*
X101321243Y-49909000D01*
X101078757Y-49909000D01*
X100840931Y-49956307D01*
X100616903Y-50049102D01*
X100415283Y-50183820D01*
X100243820Y-50355283D01*
X100109102Y-50556903D01*
X100016307Y-50780931D01*
X99969000Y-51018757D01*
X55769704Y-51018757D01*
X55431000Y-50680054D01*
X55431000Y-49673501D01*
X55473501Y-49631000D01*
X76873926Y-49631000D01*
X76900000Y-49633568D01*
X76926074Y-49631000D01*
X76926084Y-49631000D01*
X77004094Y-49623317D01*
X77104188Y-49592953D01*
X77196435Y-49543646D01*
X77277290Y-49477290D01*
X77293921Y-49457025D01*
X79000946Y-47750000D01*
X99967157Y-47750000D01*
X99967157Y-49450000D01*
X99974513Y-49524689D01*
X99996299Y-49596508D01*
X100031678Y-49662696D01*
X100079289Y-49720711D01*
X100137304Y-49768322D01*
X100203492Y-49803701D01*
X100275311Y-49825487D01*
X100350000Y-49832843D01*
X102050000Y-49832843D01*
X102124689Y-49825487D01*
X102196508Y-49803701D01*
X102262696Y-49768322D01*
X102320711Y-49720711D01*
X102368322Y-49662696D01*
X102403701Y-49596508D01*
X102425487Y-49524689D01*
X102432843Y-49450000D01*
X102432843Y-47750000D01*
X102425487Y-47675311D01*
X102403701Y-47603492D01*
X102368322Y-47537304D01*
X102320711Y-47479289D01*
X102262696Y-47431678D01*
X102196508Y-47396299D01*
X102124689Y-47374513D01*
X102050000Y-47367157D01*
X100350000Y-47367157D01*
X100275311Y-47374513D01*
X100203492Y-47396299D01*
X100137304Y-47431678D01*
X100079289Y-47479289D01*
X100031678Y-47537304D01*
X99996299Y-47603492D01*
X99974513Y-47675311D01*
X99967157Y-47750000D01*
X79000946Y-47750000D01*
X83369530Y-43381417D01*
X83389790Y-43364790D01*
X83406417Y-43344530D01*
X83456146Y-43283936D01*
X83473321Y-43251804D01*
X83505453Y-43191688D01*
X83535817Y-43091594D01*
X83543500Y-43013584D01*
X83543500Y-43013575D01*
X83546068Y-42987501D01*
X83543500Y-42961427D01*
X83543500Y-26019946D01*
X84134910Y-25428537D01*
X84230058Y-25492113D01*
X84372191Y-25550987D01*
X84523078Y-25581000D01*
X84676922Y-25581000D01*
X84827809Y-25550987D01*
X84969942Y-25492113D01*
X85097859Y-25406642D01*
X85206642Y-25297859D01*
X85292113Y-25169942D01*
X85350987Y-25027809D01*
X85381000Y-24876922D01*
X85381000Y-24723078D01*
X85350987Y-24572191D01*
X85292113Y-24430058D01*
X85206642Y-24302141D01*
X85097859Y-24193358D01*
X84969942Y-24107887D01*
X84827809Y-24049013D01*
X84676922Y-24019000D01*
X84523078Y-24019000D01*
X84372191Y-24049013D01*
X84230058Y-24107887D01*
X84102141Y-24193358D01*
X84027582Y-24267917D01*
X84012500Y-24266432D01*
X83986426Y-24269000D01*
X83986416Y-24269000D01*
X83908406Y-24276683D01*
X83808312Y-24307047D01*
X83716064Y-24356354D01*
X83655470Y-24406082D01*
X83655464Y-24406088D01*
X83635210Y-24422710D01*
X83618587Y-24442965D01*
X82655470Y-25406084D01*
X82635211Y-25422710D01*
X82618584Y-25442970D01*
X82618583Y-25442971D01*
X82568854Y-25503565D01*
X82519547Y-25595813D01*
X82489184Y-25695907D01*
X82478932Y-25800000D01*
X82481501Y-25826084D01*
X82481500Y-42767553D01*
X76680054Y-48569000D01*
X55473501Y-48569000D01*
X55397859Y-48493358D01*
X55269942Y-48407887D01*
X55127809Y-48349013D01*
X54976922Y-48319000D01*
X54823078Y-48319000D01*
X54672191Y-48349013D01*
X54530058Y-48407887D01*
X54402141Y-48493358D01*
X54293358Y-48602141D01*
X54207887Y-48730058D01*
X54149013Y-48872191D01*
X54119000Y-49023078D01*
X53531000Y-49023078D01*
X53531000Y-46150000D01*
X55967157Y-46150000D01*
X55967157Y-47850000D01*
X55974513Y-47924689D01*
X55996299Y-47996508D01*
X56031678Y-48062696D01*
X56079289Y-48120711D01*
X56137304Y-48168322D01*
X56203492Y-48203701D01*
X56275311Y-48225487D01*
X56350000Y-48232843D01*
X58050000Y-48232843D01*
X58124689Y-48225487D01*
X58196508Y-48203701D01*
X58262696Y-48168322D01*
X58320711Y-48120711D01*
X58368322Y-48062696D01*
X58403701Y-47996508D01*
X58425487Y-47924689D01*
X58432843Y-47850000D01*
X58432843Y-46150000D01*
X58425487Y-46075311D01*
X58403701Y-46003492D01*
X58368322Y-45937304D01*
X58320711Y-45879289D01*
X58262696Y-45831678D01*
X58196508Y-45796299D01*
X58124689Y-45774513D01*
X58050000Y-45767157D01*
X56350000Y-45767157D01*
X56275311Y-45774513D01*
X56203492Y-45796299D01*
X56137304Y-45831678D01*
X56079289Y-45879289D01*
X56031678Y-45937304D01*
X55996299Y-46003492D01*
X55974513Y-46075311D01*
X55967157Y-46150000D01*
X53531000Y-46150000D01*
X53531000Y-42450000D01*
X55967157Y-42450000D01*
X55967157Y-44150000D01*
X55974513Y-44224689D01*
X55996299Y-44296508D01*
X56031678Y-44362696D01*
X56079289Y-44420711D01*
X56137304Y-44468322D01*
X56203492Y-44503701D01*
X56275311Y-44525487D01*
X56350000Y-44532843D01*
X58050000Y-44532843D01*
X58124689Y-44525487D01*
X58196508Y-44503701D01*
X58262696Y-44468322D01*
X58320711Y-44420711D01*
X58368322Y-44362696D01*
X58403701Y-44296508D01*
X58425487Y-44224689D01*
X58432843Y-44150000D01*
X58432843Y-42450000D01*
X58425487Y-42375311D01*
X58403701Y-42303492D01*
X58368322Y-42237304D01*
X58320711Y-42179289D01*
X58262696Y-42131678D01*
X58196508Y-42096299D01*
X58124689Y-42074513D01*
X58050000Y-42067157D01*
X56350000Y-42067157D01*
X56275311Y-42074513D01*
X56203492Y-42096299D01*
X56137304Y-42131678D01*
X56079289Y-42179289D01*
X56031678Y-42237304D01*
X55996299Y-42303492D01*
X55974513Y-42375311D01*
X55967157Y-42450000D01*
X53531000Y-42450000D01*
X53531000Y-41219946D01*
X53757030Y-40993917D01*
X53777290Y-40977290D01*
X53801046Y-40948343D01*
X53843646Y-40896436D01*
X53867257Y-40852261D01*
X53892953Y-40804188D01*
X53923317Y-40704094D01*
X53931000Y-40626084D01*
X53931000Y-40626073D01*
X53933568Y-40600001D01*
X53931000Y-40573929D01*
X53931000Y-38532843D01*
X54250000Y-38532843D01*
X54324689Y-38525487D01*
X54396508Y-38503701D01*
X54462696Y-38468322D01*
X54520711Y-38420711D01*
X54568322Y-38362696D01*
X54603701Y-38296508D01*
X54625487Y-38224689D01*
X54632843Y-38150000D01*
X54632843Y-36450000D01*
X54625487Y-36375311D01*
X54603701Y-36303492D01*
X54568322Y-36237304D01*
X54520711Y-36179289D01*
X54462696Y-36131678D01*
X54461428Y-36131000D01*
X54880054Y-36131000D01*
X56669001Y-37919948D01*
X56669001Y-38367157D01*
X56350000Y-38367157D01*
X56275311Y-38374513D01*
X56203492Y-38396299D01*
X56137304Y-38431678D01*
X56079289Y-38479289D01*
X56031678Y-38537304D01*
X55996299Y-38603492D01*
X55974513Y-38675311D01*
X55967157Y-38750000D01*
X55967157Y-40450000D01*
X55974513Y-40524689D01*
X55996299Y-40596508D01*
X56031678Y-40662696D01*
X56079289Y-40720711D01*
X56137304Y-40768322D01*
X56203492Y-40803701D01*
X56275311Y-40825487D01*
X56350000Y-40832843D01*
X58050000Y-40832843D01*
X58124689Y-40825487D01*
X58196508Y-40803701D01*
X58262696Y-40768322D01*
X58320711Y-40720711D01*
X58368322Y-40662696D01*
X58403701Y-40596508D01*
X58425487Y-40524689D01*
X58432843Y-40450000D01*
X58432843Y-38750000D01*
X58425487Y-38675311D01*
X58403701Y-38603492D01*
X58368322Y-38537304D01*
X58320711Y-38479289D01*
X58262696Y-38431678D01*
X58196508Y-38396299D01*
X58124689Y-38374513D01*
X58050000Y-38367157D01*
X57731000Y-38367157D01*
X57731000Y-37726071D01*
X57733568Y-37699999D01*
X57731000Y-37673927D01*
X57731000Y-37673916D01*
X57723317Y-37595906D01*
X57692953Y-37495812D01*
X57670001Y-37452871D01*
X57643646Y-37403564D01*
X57593917Y-37342970D01*
X57577290Y-37322710D01*
X57557030Y-37306083D01*
X55493921Y-35242975D01*
X55477290Y-35222710D01*
X55396435Y-35156354D01*
X55304188Y-35107047D01*
X55204094Y-35076683D01*
X55126084Y-35069000D01*
X55126074Y-35069000D01*
X55100000Y-35066432D01*
X55073926Y-35069000D01*
X37326071Y-35069000D01*
X37299999Y-35066432D01*
X37273927Y-35069000D01*
X37273916Y-35069000D01*
X37195906Y-35076683D01*
X37095812Y-35107047D01*
X37045289Y-35134052D01*
X37003564Y-35156354D01*
X36942970Y-35206083D01*
X36922710Y-35222710D01*
X36906083Y-35242970D01*
X36680054Y-35469000D01*
X31119947Y-35469000D01*
X29893921Y-34242975D01*
X29877290Y-34222710D01*
X29796435Y-34156354D01*
X29704188Y-34107047D01*
X29604094Y-34076683D01*
X29526084Y-34069000D01*
X29526074Y-34069000D01*
X29500000Y-34066432D01*
X29473926Y-34069000D01*
X29251096Y-34069000D01*
X29245683Y-34014038D01*
X29209671Y-33895321D01*
X29151190Y-33785911D01*
X29072488Y-33690012D01*
X28976589Y-33611310D01*
X28867179Y-33552829D01*
X28748462Y-33516817D01*
X28625000Y-33504657D01*
X27375000Y-33504657D01*
X27251538Y-33516817D01*
X27132821Y-33552829D01*
X27023411Y-33611310D01*
X26927512Y-33690012D01*
X26907169Y-33714801D01*
X26868105Y-33675737D01*
X26848343Y-33651657D01*
X26752261Y-33572804D01*
X26695343Y-33542380D01*
X26695343Y-33475000D01*
X26683183Y-33351538D01*
X26647171Y-33232821D01*
X26588690Y-33123411D01*
X26509988Y-33027512D01*
X26414089Y-32948810D01*
X26316522Y-32896659D01*
X26401589Y-32851190D01*
X26497488Y-32772488D01*
X26576190Y-32676589D01*
X26634671Y-32567179D01*
X26670683Y-32448462D01*
X26682843Y-32325000D01*
X26682843Y-32231000D01*
X26760395Y-32231000D01*
X26790329Y-32329679D01*
X26848810Y-32439089D01*
X26927512Y-32534988D01*
X27023411Y-32613690D01*
X27132821Y-32672171D01*
X27251538Y-32708183D01*
X27375000Y-32720343D01*
X28625000Y-32720343D01*
X28748462Y-32708183D01*
X28867179Y-32672171D01*
X28976589Y-32613690D01*
X29072488Y-32534988D01*
X29151190Y-32439089D01*
X29209671Y-32329679D01*
X29245683Y-32210962D01*
X29257843Y-32087500D01*
X29257843Y-31450000D01*
X40467157Y-31450000D01*
X40467157Y-33150000D01*
X40474513Y-33224689D01*
X40496299Y-33296508D01*
X40531678Y-33362696D01*
X40579289Y-33420711D01*
X40637304Y-33468322D01*
X40703492Y-33503701D01*
X40775311Y-33525487D01*
X40850000Y-33532843D01*
X42550000Y-33532843D01*
X42624689Y-33525487D01*
X42696508Y-33503701D01*
X42762696Y-33468322D01*
X42820711Y-33420711D01*
X42868322Y-33362696D01*
X42903701Y-33296508D01*
X42925487Y-33224689D01*
X42932843Y-33150000D01*
X42932843Y-31450000D01*
X42925487Y-31375311D01*
X42903701Y-31303492D01*
X42868322Y-31237304D01*
X42820711Y-31179289D01*
X42762696Y-31131678D01*
X42696508Y-31096299D01*
X42624689Y-31074513D01*
X42550000Y-31067157D01*
X40850000Y-31067157D01*
X40775311Y-31074513D01*
X40703492Y-31096299D01*
X40637304Y-31131678D01*
X40579289Y-31179289D01*
X40531678Y-31237304D01*
X40496299Y-31303492D01*
X40474513Y-31375311D01*
X40467157Y-31450000D01*
X29257843Y-31450000D01*
X29257843Y-31162500D01*
X29245683Y-31039038D01*
X29209671Y-30920321D01*
X29151190Y-30810911D01*
X29072488Y-30715012D01*
X28976589Y-30636310D01*
X28867179Y-30577829D01*
X28748462Y-30541817D01*
X28625000Y-30529657D01*
X27375000Y-30529657D01*
X27251538Y-30541817D01*
X27132821Y-30577829D01*
X27023411Y-30636310D01*
X26927512Y-30715012D01*
X26848810Y-30810911D01*
X26790329Y-30920321D01*
X26754317Y-31039038D01*
X26742157Y-31162500D01*
X26742157Y-31169000D01*
X26682843Y-31169000D01*
X26682843Y-31075000D01*
X26670683Y-30951538D01*
X26634671Y-30832821D01*
X26576190Y-30723411D01*
X26497488Y-30627512D01*
X26401589Y-30548810D01*
X26292179Y-30490329D01*
X26173462Y-30454317D01*
X26050000Y-30442157D01*
X25125000Y-30442157D01*
X25001538Y-30454317D01*
X24882821Y-30490329D01*
X24773411Y-30548810D01*
X24677512Y-30627512D01*
X24598810Y-30723411D01*
X24540329Y-30832821D01*
X24504317Y-30951538D01*
X24492157Y-31075000D01*
X23707137Y-31075000D01*
X23707843Y-30825000D01*
X23700487Y-30750311D01*
X23678701Y-30678492D01*
X23643322Y-30612304D01*
X23595711Y-30554289D01*
X23537696Y-30506678D01*
X23471508Y-30471299D01*
X23399689Y-30449513D01*
X23325000Y-30442157D01*
X22834750Y-30444000D01*
X22739500Y-30539250D01*
X22485500Y-30539250D01*
X22390250Y-30444000D01*
X21900000Y-30442157D01*
X21825311Y-30449513D01*
X21753492Y-30471299D01*
X21687304Y-30506678D01*
X21629289Y-30554289D01*
X21581678Y-30612304D01*
X21546299Y-30678492D01*
X21524513Y-30750311D01*
X21517157Y-30825000D01*
X12327000Y-30825000D01*
X12327000Y-29541970D01*
X23537635Y-29541970D01*
X23671949Y-29755780D01*
X23952360Y-29891274D01*
X24253816Y-29969460D01*
X24564732Y-29987331D01*
X24873161Y-29944202D01*
X25167251Y-29841731D01*
X25328051Y-29755780D01*
X25462365Y-29541970D01*
X24500000Y-28579605D01*
X23537635Y-29541970D01*
X12327000Y-29541970D01*
X12327000Y-28464732D01*
X22912669Y-28464732D01*
X22955798Y-28773161D01*
X23058269Y-29067251D01*
X23144220Y-29228051D01*
X23358030Y-29362365D01*
X24320395Y-28400000D01*
X24679605Y-28400000D01*
X25641970Y-29362365D01*
X25855780Y-29228051D01*
X25991274Y-28947640D01*
X26069460Y-28646184D01*
X26087331Y-28335268D01*
X26044202Y-28026839D01*
X25941731Y-27732749D01*
X25855780Y-27571949D01*
X25641970Y-27437635D01*
X24679605Y-28400000D01*
X24320395Y-28400000D01*
X23358030Y-27437635D01*
X23144220Y-27571949D01*
X23008726Y-27852360D01*
X22930540Y-28153816D01*
X22912669Y-28464732D01*
X12327000Y-28464732D01*
X12327000Y-27258030D01*
X23537635Y-27258030D01*
X24500000Y-28220395D01*
X25462365Y-27258030D01*
X25363092Y-27100000D01*
X25842157Y-27100000D01*
X25849513Y-27174689D01*
X25871299Y-27246508D01*
X25906678Y-27312696D01*
X25954289Y-27370711D01*
X26012304Y-27418322D01*
X26078492Y-27453701D01*
X26150311Y-27475487D01*
X26225000Y-27482843D01*
X26877750Y-27481000D01*
X26973000Y-27385750D01*
X26973000Y-26514500D01*
X27227000Y-26514500D01*
X27227000Y-27385750D01*
X27322250Y-27481000D01*
X27975000Y-27482843D01*
X28049689Y-27475487D01*
X28121508Y-27453701D01*
X28187696Y-27418322D01*
X28245711Y-27370711D01*
X28293322Y-27312696D01*
X28328701Y-27246508D01*
X28350487Y-27174689D01*
X28352918Y-27150000D01*
X37667157Y-27150000D01*
X37667157Y-28850000D01*
X37674513Y-28924689D01*
X37696299Y-28996508D01*
X37731678Y-29062696D01*
X37779289Y-29120711D01*
X37837304Y-29168322D01*
X37903492Y-29203701D01*
X37975311Y-29225487D01*
X38050000Y-29232843D01*
X39750000Y-29232843D01*
X39824689Y-29225487D01*
X39896508Y-29203701D01*
X39962696Y-29168322D01*
X40020711Y-29120711D01*
X40068322Y-29062696D01*
X40103701Y-28996508D01*
X40125487Y-28924689D01*
X40132843Y-28850000D01*
X40132843Y-28199267D01*
X72080338Y-28199267D01*
X72190510Y-28392596D01*
X72436806Y-28508095D01*
X72700903Y-28573324D01*
X72972651Y-28585778D01*
X73241607Y-28544977D01*
X73497435Y-28452490D01*
X73609490Y-28392596D01*
X73719662Y-28199267D01*
X72900000Y-27379605D01*
X72080338Y-28199267D01*
X40132843Y-28199267D01*
X40132843Y-27272651D01*
X71514222Y-27272651D01*
X71555023Y-27541607D01*
X71647510Y-27797435D01*
X71707404Y-27909490D01*
X71900733Y-28019662D01*
X72720395Y-27200000D01*
X73079605Y-27200000D01*
X73899267Y-28019662D01*
X74092596Y-27909490D01*
X74208095Y-27663194D01*
X74273324Y-27399097D01*
X74285778Y-27127349D01*
X74244977Y-26858393D01*
X74152490Y-26602565D01*
X74092596Y-26490510D01*
X73899267Y-26380338D01*
X73079605Y-27200000D01*
X72720395Y-27200000D01*
X71900733Y-26380338D01*
X71707404Y-26490510D01*
X71591905Y-26736806D01*
X71526676Y-27000903D01*
X71514222Y-27272651D01*
X40132843Y-27272651D01*
X40132843Y-27150000D01*
X40125487Y-27075311D01*
X40103701Y-27003492D01*
X40068322Y-26937304D01*
X40020711Y-26879289D01*
X39962696Y-26831678D01*
X39896508Y-26796299D01*
X39824689Y-26774513D01*
X39750000Y-26767157D01*
X38050000Y-26767157D01*
X37975311Y-26774513D01*
X37903492Y-26796299D01*
X37837304Y-26831678D01*
X37779289Y-26879289D01*
X37731678Y-26937304D01*
X37696299Y-27003492D01*
X37674513Y-27075311D01*
X37667157Y-27150000D01*
X28352918Y-27150000D01*
X28357843Y-27100000D01*
X28356000Y-26609750D01*
X28260750Y-26514500D01*
X27227000Y-26514500D01*
X26973000Y-26514500D01*
X25939250Y-26514500D01*
X25844000Y-26609750D01*
X25842157Y-27100000D01*
X25363092Y-27100000D01*
X25328051Y-27044220D01*
X25047640Y-26908726D01*
X24746184Y-26830540D01*
X24435268Y-26812669D01*
X24126839Y-26855798D01*
X23832749Y-26958269D01*
X23671949Y-27044220D01*
X23537635Y-27258030D01*
X12327000Y-27258030D01*
X12327000Y-25675000D01*
X25842157Y-25675000D01*
X25844000Y-26165250D01*
X25939250Y-26260500D01*
X26973000Y-26260500D01*
X26973000Y-25389250D01*
X27227000Y-25389250D01*
X27227000Y-26260500D01*
X28260750Y-26260500D01*
X28320517Y-26200733D01*
X72080338Y-26200733D01*
X72900000Y-27020395D01*
X73719662Y-26200733D01*
X73719245Y-26200000D01*
X76517157Y-26200000D01*
X76517157Y-28200000D01*
X76524513Y-28274689D01*
X76546299Y-28346508D01*
X76581678Y-28412696D01*
X76629289Y-28470711D01*
X76687304Y-28518322D01*
X76753492Y-28553701D01*
X76825311Y-28575487D01*
X76900000Y-28582843D01*
X78900000Y-28582843D01*
X78974689Y-28575487D01*
X79046508Y-28553701D01*
X79112696Y-28518322D01*
X79170711Y-28470711D01*
X79218322Y-28412696D01*
X79253701Y-28346508D01*
X79275487Y-28274689D01*
X79282843Y-28200000D01*
X79282843Y-26200000D01*
X79275487Y-26125311D01*
X79253701Y-26053492D01*
X79218322Y-25987304D01*
X79170711Y-25929289D01*
X79112696Y-25881678D01*
X79046508Y-25846299D01*
X78974689Y-25824513D01*
X78900000Y-25817157D01*
X76900000Y-25817157D01*
X76825311Y-25824513D01*
X76753492Y-25846299D01*
X76687304Y-25881678D01*
X76629289Y-25929289D01*
X76581678Y-25987304D01*
X76546299Y-26053492D01*
X76524513Y-26125311D01*
X76517157Y-26200000D01*
X73719245Y-26200000D01*
X73609490Y-26007404D01*
X73363194Y-25891905D01*
X73099097Y-25826676D01*
X72827349Y-25814222D01*
X72558393Y-25855023D01*
X72302565Y-25947510D01*
X72190510Y-26007404D01*
X72080338Y-26200733D01*
X28320517Y-26200733D01*
X28356000Y-26165250D01*
X28357843Y-25675000D01*
X28350487Y-25600311D01*
X28328701Y-25528492D01*
X28293322Y-25462304D01*
X28245711Y-25404289D01*
X28187696Y-25356678D01*
X28121508Y-25321299D01*
X28049689Y-25299513D01*
X27975000Y-25292157D01*
X27322250Y-25294000D01*
X27227000Y-25389250D01*
X26973000Y-25389250D01*
X26877750Y-25294000D01*
X26225000Y-25292157D01*
X26150311Y-25299513D01*
X26078492Y-25321299D01*
X26012304Y-25356678D01*
X25954289Y-25404289D01*
X25906678Y-25462304D01*
X25871299Y-25528492D01*
X25849513Y-25600311D01*
X25842157Y-25675000D01*
X12327000Y-25675000D01*
X12327000Y-22200000D01*
X22917157Y-22200000D01*
X22917157Y-24600000D01*
X22924513Y-24674689D01*
X22946299Y-24746508D01*
X22981678Y-24812696D01*
X23029289Y-24870711D01*
X23087304Y-24918322D01*
X23153492Y-24953701D01*
X23225311Y-24975487D01*
X23300000Y-24982843D01*
X25700000Y-24982843D01*
X25774689Y-24975487D01*
X25776294Y-24975000D01*
X73829657Y-24975000D01*
X73837013Y-25049689D01*
X73858799Y-25121508D01*
X73894178Y-25187696D01*
X73941789Y-25245711D01*
X73999804Y-25293322D01*
X74065992Y-25328701D01*
X74137811Y-25350487D01*
X74212500Y-25357843D01*
X74702750Y-25356000D01*
X74798000Y-25260750D01*
X74798000Y-24227000D01*
X75052000Y-24227000D01*
X75052000Y-25260750D01*
X75147250Y-25356000D01*
X75637500Y-25357843D01*
X75712189Y-25350487D01*
X75784008Y-25328701D01*
X75850196Y-25293322D01*
X75908211Y-25245711D01*
X75955822Y-25187696D01*
X75991201Y-25121508D01*
X76012987Y-25049689D01*
X76020343Y-24975000D01*
X76018500Y-24322250D01*
X75923250Y-24227000D01*
X75052000Y-24227000D01*
X74798000Y-24227000D01*
X73926750Y-24227000D01*
X73831500Y-24322250D01*
X73829657Y-24975000D01*
X25776294Y-24975000D01*
X25846508Y-24953701D01*
X25912696Y-24918322D01*
X25970711Y-24870711D01*
X26018322Y-24812696D01*
X26028583Y-24793500D01*
X27167843Y-24793500D01*
X27370723Y-24773518D01*
X27631043Y-24694551D01*
X27870955Y-24566315D01*
X28063887Y-24407979D01*
X28076589Y-24401190D01*
X28172488Y-24322488D01*
X28251190Y-24226589D01*
X28309671Y-24117179D01*
X28336480Y-24028799D01*
X28382051Y-23943543D01*
X28461018Y-23683223D01*
X28487682Y-23412500D01*
X28469215Y-23225000D01*
X73829657Y-23225000D01*
X73831500Y-23877750D01*
X73926750Y-23973000D01*
X74798000Y-23973000D01*
X74798000Y-22939250D01*
X75052000Y-22939250D01*
X75052000Y-23973000D01*
X75923250Y-23973000D01*
X76018500Y-23877750D01*
X76019637Y-23475000D01*
X76804657Y-23475000D01*
X76804657Y-24725000D01*
X76816817Y-24848462D01*
X76852829Y-24967179D01*
X76911310Y-25076589D01*
X76990012Y-25172488D01*
X77085911Y-25251190D01*
X77195321Y-25309671D01*
X77314038Y-25345683D01*
X77437500Y-25357843D01*
X78362500Y-25357843D01*
X78485962Y-25345683D01*
X78604679Y-25309671D01*
X78714089Y-25251190D01*
X78809988Y-25172488D01*
X78888690Y-25076589D01*
X78947171Y-24967179D01*
X78983183Y-24848462D01*
X78995343Y-24725000D01*
X78995343Y-23475000D01*
X78983183Y-23351538D01*
X78947171Y-23232821D01*
X78888690Y-23123411D01*
X78809988Y-23027512D01*
X78714089Y-22948810D01*
X78604679Y-22890329D01*
X78485962Y-22854317D01*
X78362500Y-22842157D01*
X77437500Y-22842157D01*
X77314038Y-22854317D01*
X77195321Y-22890329D01*
X77085911Y-22948810D01*
X76990012Y-23027512D01*
X76911310Y-23123411D01*
X76852829Y-23232821D01*
X76816817Y-23351538D01*
X76804657Y-23475000D01*
X76019637Y-23475000D01*
X76020343Y-23225000D01*
X76012987Y-23150311D01*
X75991201Y-23078492D01*
X75955822Y-23012304D01*
X75908211Y-22954289D01*
X75850196Y-22906678D01*
X75784008Y-22871299D01*
X75712189Y-22849513D01*
X75637500Y-22842157D01*
X75147250Y-22844000D01*
X75052000Y-22939250D01*
X74798000Y-22939250D01*
X74702750Y-22844000D01*
X74212500Y-22842157D01*
X74137811Y-22849513D01*
X74065992Y-22871299D01*
X73999804Y-22906678D01*
X73941789Y-22954289D01*
X73894178Y-23012304D01*
X73858799Y-23078492D01*
X73837013Y-23150311D01*
X73829657Y-23225000D01*
X28469215Y-23225000D01*
X28461018Y-23141777D01*
X28382051Y-22881457D01*
X28336480Y-22796201D01*
X28309671Y-22707821D01*
X28251190Y-22598411D01*
X28172488Y-22502512D01*
X28076589Y-22423810D01*
X28063887Y-22417021D01*
X27870955Y-22258685D01*
X27631043Y-22130449D01*
X27370723Y-22051482D01*
X27167843Y-22031500D01*
X26041946Y-22031500D01*
X26018322Y-21987304D01*
X25970711Y-21929289D01*
X25912696Y-21881678D01*
X25846508Y-21846299D01*
X25774689Y-21824513D01*
X25700000Y-21817157D01*
X23300000Y-21817157D01*
X23225311Y-21824513D01*
X23153492Y-21846299D01*
X23087304Y-21881678D01*
X23029289Y-21929289D01*
X22981678Y-21987304D01*
X22946299Y-22053492D01*
X22924513Y-22125311D01*
X22917157Y-22200000D01*
X12327000Y-22200000D01*
X12327000Y-19356980D01*
X13410511Y-19356980D01*
X13434866Y-19437288D01*
X13534761Y-19656961D01*
X13675592Y-19852924D01*
X13851948Y-20017647D01*
X14057051Y-20144799D01*
X14283019Y-20229495D01*
X14473000Y-20169187D01*
X14473000Y-19167000D01*
X14727000Y-19167000D01*
X14727000Y-20169187D01*
X14916981Y-20229495D01*
X15142949Y-20144799D01*
X15348052Y-20017647D01*
X15449299Y-19923078D01*
X82319000Y-19923078D01*
X82319000Y-20076922D01*
X82349013Y-20227809D01*
X82407887Y-20369942D01*
X82493358Y-20497859D01*
X82602141Y-20606642D01*
X82730058Y-20692113D01*
X82872191Y-20750987D01*
X83023078Y-20781000D01*
X83176922Y-20781000D01*
X83327809Y-20750987D01*
X83469942Y-20692113D01*
X83597859Y-20606642D01*
X83673501Y-20531000D01*
X84526499Y-20531000D01*
X84602141Y-20606642D01*
X84730058Y-20692113D01*
X84872191Y-20750987D01*
X85023078Y-20781000D01*
X85176922Y-20781000D01*
X85327809Y-20750987D01*
X85469942Y-20692113D01*
X85597859Y-20606642D01*
X85706642Y-20497859D01*
X85792113Y-20369942D01*
X85850987Y-20227809D01*
X85881000Y-20076922D01*
X85881000Y-19923078D01*
X85850987Y-19772191D01*
X85792113Y-19630058D01*
X85706642Y-19502141D01*
X85597859Y-19393358D01*
X85469942Y-19307887D01*
X85327809Y-19249013D01*
X85176922Y-19219000D01*
X85023078Y-19219000D01*
X84872191Y-19249013D01*
X84730058Y-19307887D01*
X84602141Y-19393358D01*
X84526499Y-19469000D01*
X83673501Y-19469000D01*
X83597859Y-19393358D01*
X83469942Y-19307887D01*
X83327809Y-19249013D01*
X83176922Y-19219000D01*
X83023078Y-19219000D01*
X82872191Y-19249013D01*
X82730058Y-19307887D01*
X82602141Y-19393358D01*
X82493358Y-19502141D01*
X82407887Y-19630058D01*
X82349013Y-19772191D01*
X82319000Y-19923078D01*
X15449299Y-19923078D01*
X15524408Y-19852924D01*
X15665239Y-19656961D01*
X15765134Y-19437288D01*
X15789489Y-19356980D01*
X15728627Y-19167000D01*
X14727000Y-19167000D01*
X14473000Y-19167000D01*
X13471373Y-19167000D01*
X13410511Y-19356980D01*
X12327000Y-19356980D01*
X12327000Y-18723020D01*
X13410511Y-18723020D01*
X13471373Y-18913000D01*
X14473000Y-18913000D01*
X14473000Y-17910813D01*
X14727000Y-17910813D01*
X14727000Y-18913000D01*
X15728627Y-18913000D01*
X15789489Y-18723020D01*
X15765134Y-18642712D01*
X15665239Y-18423039D01*
X15524408Y-18227076D01*
X15348052Y-18062353D01*
X15142949Y-17935201D01*
X14916981Y-17850505D01*
X14727000Y-17910813D01*
X14473000Y-17910813D01*
X14283019Y-17850505D01*
X14057051Y-17935201D01*
X13851948Y-18062353D01*
X13675592Y-18227076D01*
X13534761Y-18423039D01*
X13434866Y-18642712D01*
X13410511Y-18723020D01*
X12327000Y-18723020D01*
X12327000Y-15650000D01*
X13367157Y-15650000D01*
X13367157Y-17350000D01*
X13374513Y-17424689D01*
X13396299Y-17496508D01*
X13431678Y-17562696D01*
X13479289Y-17620711D01*
X13537304Y-17668322D01*
X13603492Y-17703701D01*
X13675311Y-17725487D01*
X13750000Y-17732843D01*
X15450000Y-17732843D01*
X15524689Y-17725487D01*
X15596508Y-17703701D01*
X15662696Y-17668322D01*
X15720711Y-17620711D01*
X15768322Y-17562696D01*
X15803701Y-17496508D01*
X15825487Y-17424689D01*
X15832843Y-17350000D01*
X15832843Y-15650000D01*
X15825487Y-15575311D01*
X15803701Y-15503492D01*
X15768322Y-15437304D01*
X15720711Y-15379289D01*
X15662696Y-15331678D01*
X15596508Y-15296299D01*
X15524689Y-15274513D01*
X15450000Y-15267157D01*
X13750000Y-15267157D01*
X13675311Y-15274513D01*
X13603492Y-15296299D01*
X13537304Y-15331678D01*
X13479289Y-15379289D01*
X13431678Y-15437304D01*
X13396299Y-15503492D01*
X13374513Y-15575311D01*
X13367157Y-15650000D01*
X12327000Y-15650000D01*
X12327000Y-15263983D01*
X17879000Y-15263983D01*
X17879000Y-15536017D01*
X17932071Y-15802823D01*
X18036174Y-16054149D01*
X18187307Y-16280336D01*
X18379664Y-16472693D01*
X18605851Y-16623826D01*
X18857177Y-16727929D01*
X19123983Y-16781000D01*
X19396017Y-16781000D01*
X19662823Y-16727929D01*
X19914149Y-16623826D01*
X20140336Y-16472693D01*
X20332693Y-16280336D01*
X20483826Y-16054149D01*
X20587929Y-15802823D01*
X20641000Y-15536017D01*
X20641000Y-15263983D01*
X22959000Y-15263983D01*
X22959000Y-15536017D01*
X23012071Y-15802823D01*
X23116174Y-16054149D01*
X23267307Y-16280336D01*
X23459664Y-16472693D01*
X23685851Y-16623826D01*
X23937177Y-16727929D01*
X24203983Y-16781000D01*
X24476017Y-16781000D01*
X24742823Y-16727929D01*
X24994149Y-16623826D01*
X25220336Y-16472693D01*
X25412693Y-16280336D01*
X25563826Y-16054149D01*
X25667929Y-15802823D01*
X25721000Y-15536017D01*
X25721000Y-15263983D01*
X25667929Y-14997177D01*
X25563826Y-14745851D01*
X25412693Y-14519664D01*
X25220336Y-14327307D01*
X24994149Y-14176174D01*
X24742823Y-14072071D01*
X24476017Y-14019000D01*
X24203983Y-14019000D01*
X23937177Y-14072071D01*
X23685851Y-14176174D01*
X23459664Y-14327307D01*
X23267307Y-14519664D01*
X23116174Y-14745851D01*
X23012071Y-14997177D01*
X22959000Y-15263983D01*
X20641000Y-15263983D01*
X20587929Y-14997177D01*
X20483826Y-14745851D01*
X20332693Y-14519664D01*
X20140336Y-14327307D01*
X19914149Y-14176174D01*
X19662823Y-14072071D01*
X19396017Y-14019000D01*
X19123983Y-14019000D01*
X18857177Y-14072071D01*
X18605851Y-14176174D01*
X18379664Y-14327307D01*
X18187307Y-14519664D01*
X18036174Y-14745851D01*
X17932071Y-14997177D01*
X17879000Y-15263983D01*
X12327000Y-15263983D01*
X12327000Y-12327000D01*
X108073000Y-12327000D01*
X108073000Y-88073000D01*
%TD*%
M02*
