%TF.GenerationSoftware,KiCad,Pcbnew,(5.1.6)-1*%
%TF.CreationDate,2020-05-30T13:08:14+03:00*%
%TF.ProjectId,stm32f334_1S_charger,73746d33-3266-4333-9334-5f31535f6368,rev?*%
%TF.SameCoordinates,Original*%
%TF.FileFunction,Soldermask,Top*%
%TF.FilePolarity,Negative*%
%FSLAX46Y46*%
G04 Gerber Fmt 4.6, Leading zero omitted, Abs format (unit mm)*
G04 Created by KiCad (PCBNEW (5.1.6)-1) date 2020-05-30 13:08:14*
%MOMM*%
%LPD*%
G01*
G04 APERTURE LIST*
%ADD10R,1.700000X1.700000*%
%ADD11C,1.700000*%
%ADD12R,2.500000X2.500000*%
%ADD13C,2.500000*%
%ADD14R,2.100000X2.100000*%
%ADD15C,2.100000*%
%ADD16R,4.600000X3.400000*%
%ADD17R,1.800000X1.800000*%
%ADD18O,1.800000X1.800000*%
%ADD19R,8.100000X8.100000*%
%ADD20R,2.900000X5.400000*%
%ADD21R,5.400000X2.900000*%
%ADD22R,0.930000X0.500000*%
%ADD23C,0.100000*%
%ADD24R,1.160000X0.750000*%
%ADD25R,0.500000X1.100000*%
%ADD26R,1.660000X0.750000*%
G04 APERTURE END LIST*
%TO.C,C10*%
G36*
G01*
X27557456Y-47362500D02*
X26242544Y-47362500D01*
G75*
G02*
X25975000Y-47094956I0J267544D01*
G01*
X25975000Y-46105044D01*
G75*
G02*
X26242544Y-45837500I267544J0D01*
G01*
X27557456Y-45837500D01*
G75*
G02*
X27825000Y-46105044I0J-267544D01*
G01*
X27825000Y-47094956D01*
G75*
G02*
X27557456Y-47362500I-267544J0D01*
G01*
G37*
G36*
G01*
X27557456Y-50337500D02*
X26242544Y-50337500D01*
G75*
G02*
X25975000Y-50069956I0J267544D01*
G01*
X25975000Y-49080044D01*
G75*
G02*
X26242544Y-48812500I267544J0D01*
G01*
X27557456Y-48812500D01*
G75*
G02*
X27825000Y-49080044I0J-267544D01*
G01*
X27825000Y-50069956D01*
G75*
G02*
X27557456Y-50337500I-267544J0D01*
G01*
G37*
%TD*%
%TO.C,C2*%
G36*
G01*
X60862500Y-38942544D02*
X60862500Y-40257456D01*
G75*
G02*
X60594956Y-40525000I-267544J0D01*
G01*
X59605044Y-40525000D01*
G75*
G02*
X59337500Y-40257456I0J267544D01*
G01*
X59337500Y-38942544D01*
G75*
G02*
X59605044Y-38675000I267544J0D01*
G01*
X60594956Y-38675000D01*
G75*
G02*
X60862500Y-38942544I0J-267544D01*
G01*
G37*
G36*
G01*
X63837500Y-38942544D02*
X63837500Y-40257456D01*
G75*
G02*
X63569956Y-40525000I-267544J0D01*
G01*
X62580044Y-40525000D01*
G75*
G02*
X62312500Y-40257456I0J267544D01*
G01*
X62312500Y-38942544D01*
G75*
G02*
X62580044Y-38675000I267544J0D01*
G01*
X63569956Y-38675000D01*
G75*
G02*
X63837500Y-38942544I0J-267544D01*
G01*
G37*
%TD*%
D10*
%TO.C,C3*%
X26200000Y-41600000D03*
D11*
X26200000Y-39100000D03*
%TD*%
D12*
%TO.C,C4*%
X24500000Y-23400000D03*
D13*
X24500000Y-28400000D03*
%TD*%
%TO.C,C6*%
G36*
G01*
X41142544Y-41125000D02*
X42457456Y-41125000D01*
G75*
G02*
X42725000Y-41392544I0J-267544D01*
G01*
X42725000Y-42382456D01*
G75*
G02*
X42457456Y-42650000I-267544J0D01*
G01*
X41142544Y-42650000D01*
G75*
G02*
X40875000Y-42382456I0J267544D01*
G01*
X40875000Y-41392544D01*
G75*
G02*
X41142544Y-41125000I267544J0D01*
G01*
G37*
G36*
G01*
X41142544Y-38150000D02*
X42457456Y-38150000D01*
G75*
G02*
X42725000Y-38417544I0J-267544D01*
G01*
X42725000Y-39407456D01*
G75*
G02*
X42457456Y-39675000I-267544J0D01*
G01*
X41142544Y-39675000D01*
G75*
G02*
X40875000Y-39407456I0J267544D01*
G01*
X40875000Y-38417544D01*
G75*
G02*
X41142544Y-38150000I267544J0D01*
G01*
G37*
%TD*%
%TO.C,C7*%
G36*
G01*
X32442544Y-31062500D02*
X33757456Y-31062500D01*
G75*
G02*
X34025000Y-31330044I0J-267544D01*
G01*
X34025000Y-32319956D01*
G75*
G02*
X33757456Y-32587500I-267544J0D01*
G01*
X32442544Y-32587500D01*
G75*
G02*
X32175000Y-32319956I0J267544D01*
G01*
X32175000Y-31330044D01*
G75*
G02*
X32442544Y-31062500I267544J0D01*
G01*
G37*
G36*
G01*
X32442544Y-34037500D02*
X33757456Y-34037500D01*
G75*
G02*
X34025000Y-34305044I0J-267544D01*
G01*
X34025000Y-35294956D01*
G75*
G02*
X33757456Y-35562500I-267544J0D01*
G01*
X32442544Y-35562500D01*
G75*
G02*
X32175000Y-35294956I0J267544D01*
G01*
X32175000Y-34305044D01*
G75*
G02*
X32442544Y-34037500I267544J0D01*
G01*
G37*
%TD*%
%TO.C,C8*%
G36*
G01*
X31157456Y-35562500D02*
X29842544Y-35562500D01*
G75*
G02*
X29575000Y-35294956I0J267544D01*
G01*
X29575000Y-34305044D01*
G75*
G02*
X29842544Y-34037500I267544J0D01*
G01*
X31157456Y-34037500D01*
G75*
G02*
X31425000Y-34305044I0J-267544D01*
G01*
X31425000Y-35294956D01*
G75*
G02*
X31157456Y-35562500I-267544J0D01*
G01*
G37*
G36*
G01*
X31157456Y-32587500D02*
X29842544Y-32587500D01*
G75*
G02*
X29575000Y-32319956I0J267544D01*
G01*
X29575000Y-31330044D01*
G75*
G02*
X29842544Y-31062500I267544J0D01*
G01*
X31157456Y-31062500D01*
G75*
G02*
X31425000Y-31330044I0J-267544D01*
G01*
X31425000Y-32319956D01*
G75*
G02*
X31157456Y-32587500I-267544J0D01*
G01*
G37*
%TD*%
%TO.C,C11*%
G36*
G01*
X55662500Y-49842544D02*
X55662500Y-51157456D01*
G75*
G02*
X55394956Y-51425000I-267544J0D01*
G01*
X54405044Y-51425000D01*
G75*
G02*
X54137500Y-51157456I0J267544D01*
G01*
X54137500Y-49842544D01*
G75*
G02*
X54405044Y-49575000I267544J0D01*
G01*
X55394956Y-49575000D01*
G75*
G02*
X55662500Y-49842544I0J-267544D01*
G01*
G37*
G36*
G01*
X58637500Y-49842544D02*
X58637500Y-51157456D01*
G75*
G02*
X58369956Y-51425000I-267544J0D01*
G01*
X57380044Y-51425000D01*
G75*
G02*
X57112500Y-51157456I0J267544D01*
G01*
X57112500Y-49842544D01*
G75*
G02*
X57380044Y-49575000I267544J0D01*
G01*
X58369956Y-49575000D01*
G75*
G02*
X58637500Y-49842544I0J-267544D01*
G01*
G37*
%TD*%
%TO.C,C12*%
G36*
G01*
X51037500Y-16042544D02*
X51037500Y-17357456D01*
G75*
G02*
X50769956Y-17625000I-267544J0D01*
G01*
X49780044Y-17625000D01*
G75*
G02*
X49512500Y-17357456I0J267544D01*
G01*
X49512500Y-16042544D01*
G75*
G02*
X49780044Y-15775000I267544J0D01*
G01*
X50769956Y-15775000D01*
G75*
G02*
X51037500Y-16042544I0J-267544D01*
G01*
G37*
G36*
G01*
X48062500Y-16042544D02*
X48062500Y-17357456D01*
G75*
G02*
X47794956Y-17625000I-267544J0D01*
G01*
X46805044Y-17625000D01*
G75*
G02*
X46537500Y-17357456I0J267544D01*
G01*
X46537500Y-16042544D01*
G75*
G02*
X46805044Y-15775000I267544J0D01*
G01*
X47794956Y-15775000D01*
G75*
G02*
X48062500Y-16042544I0J-267544D01*
G01*
G37*
%TD*%
%TO.C,C13*%
G36*
G01*
X48062500Y-19142544D02*
X48062500Y-20457456D01*
G75*
G02*
X47794956Y-20725000I-267544J0D01*
G01*
X46805044Y-20725000D01*
G75*
G02*
X46537500Y-20457456I0J267544D01*
G01*
X46537500Y-19142544D01*
G75*
G02*
X46805044Y-18875000I267544J0D01*
G01*
X47794956Y-18875000D01*
G75*
G02*
X48062500Y-19142544I0J-267544D01*
G01*
G37*
G36*
G01*
X51037500Y-19142544D02*
X51037500Y-20457456D01*
G75*
G02*
X50769956Y-20725000I-267544J0D01*
G01*
X49780044Y-20725000D01*
G75*
G02*
X49512500Y-20457456I0J267544D01*
G01*
X49512500Y-19142544D01*
G75*
G02*
X49780044Y-18875000I267544J0D01*
G01*
X50769956Y-18875000D01*
G75*
G02*
X51037500Y-19142544I0J-267544D01*
G01*
G37*
%TD*%
%TO.C,C14*%
G36*
G01*
X48062500Y-22842544D02*
X48062500Y-24157456D01*
G75*
G02*
X47794956Y-24425000I-267544J0D01*
G01*
X46805044Y-24425000D01*
G75*
G02*
X46537500Y-24157456I0J267544D01*
G01*
X46537500Y-22842544D01*
G75*
G02*
X46805044Y-22575000I267544J0D01*
G01*
X47794956Y-22575000D01*
G75*
G02*
X48062500Y-22842544I0J-267544D01*
G01*
G37*
G36*
G01*
X51037500Y-22842544D02*
X51037500Y-24157456D01*
G75*
G02*
X50769956Y-24425000I-267544J0D01*
G01*
X49780044Y-24425000D01*
G75*
G02*
X49512500Y-24157456I0J267544D01*
G01*
X49512500Y-22842544D01*
G75*
G02*
X49780044Y-22575000I267544J0D01*
G01*
X50769956Y-22575000D01*
G75*
G02*
X51037500Y-22842544I0J-267544D01*
G01*
G37*
%TD*%
%TO.C,C15*%
G36*
G01*
X52742544Y-33537500D02*
X54057456Y-33537500D01*
G75*
G02*
X54325000Y-33805044I0J-267544D01*
G01*
X54325000Y-34794956D01*
G75*
G02*
X54057456Y-35062500I-267544J0D01*
G01*
X52742544Y-35062500D01*
G75*
G02*
X52475000Y-34794956I0J267544D01*
G01*
X52475000Y-33805044D01*
G75*
G02*
X52742544Y-33537500I267544J0D01*
G01*
G37*
G36*
G01*
X52742544Y-30562500D02*
X54057456Y-30562500D01*
G75*
G02*
X54325000Y-30830044I0J-267544D01*
G01*
X54325000Y-31819956D01*
G75*
G02*
X54057456Y-32087500I-267544J0D01*
G01*
X52742544Y-32087500D01*
G75*
G02*
X52475000Y-31819956I0J267544D01*
G01*
X52475000Y-30830044D01*
G75*
G02*
X52742544Y-30562500I267544J0D01*
G01*
G37*
%TD*%
D14*
%TO.C,C16*%
X77900000Y-27200000D03*
D15*
X72900000Y-27200000D03*
%TD*%
%TO.C,C18*%
G36*
G01*
X63862500Y-42642544D02*
X63862500Y-43957456D01*
G75*
G02*
X63594956Y-44225000I-267544J0D01*
G01*
X62605044Y-44225000D01*
G75*
G02*
X62337500Y-43957456I0J267544D01*
G01*
X62337500Y-42642544D01*
G75*
G02*
X62605044Y-42375000I267544J0D01*
G01*
X63594956Y-42375000D01*
G75*
G02*
X63862500Y-42642544I0J-267544D01*
G01*
G37*
G36*
G01*
X60887500Y-42642544D02*
X60887500Y-43957456D01*
G75*
G02*
X60619956Y-44225000I-267544J0D01*
G01*
X59630044Y-44225000D01*
G75*
G02*
X59362500Y-43957456I0J267544D01*
G01*
X59362500Y-42642544D01*
G75*
G02*
X59630044Y-42375000I267544J0D01*
G01*
X60619956Y-42375000D01*
G75*
G02*
X60887500Y-42642544I0J-267544D01*
G01*
G37*
%TD*%
%TO.C,C19*%
G36*
G01*
X66075000Y-42642544D02*
X66075000Y-43957456D01*
G75*
G02*
X65807456Y-44225000I-267544J0D01*
G01*
X64817544Y-44225000D01*
G75*
G02*
X64550000Y-43957456I0J267544D01*
G01*
X64550000Y-42642544D01*
G75*
G02*
X64817544Y-42375000I267544J0D01*
G01*
X65807456Y-42375000D01*
G75*
G02*
X66075000Y-42642544I0J-267544D01*
G01*
G37*
G36*
G01*
X69050000Y-42642544D02*
X69050000Y-43957456D01*
G75*
G02*
X68782456Y-44225000I-267544J0D01*
G01*
X67792544Y-44225000D01*
G75*
G02*
X67525000Y-43957456I0J267544D01*
G01*
X67525000Y-42642544D01*
G75*
G02*
X67792544Y-42375000I267544J0D01*
G01*
X68782456Y-42375000D01*
G75*
G02*
X69050000Y-42642544I0J-267544D01*
G01*
G37*
%TD*%
%TO.C,C20*%
G36*
G01*
X60887500Y-46342544D02*
X60887500Y-47657456D01*
G75*
G02*
X60619956Y-47925000I-267544J0D01*
G01*
X59630044Y-47925000D01*
G75*
G02*
X59362500Y-47657456I0J267544D01*
G01*
X59362500Y-46342544D01*
G75*
G02*
X59630044Y-46075000I267544J0D01*
G01*
X60619956Y-46075000D01*
G75*
G02*
X60887500Y-46342544I0J-267544D01*
G01*
G37*
G36*
G01*
X63862500Y-46342544D02*
X63862500Y-47657456D01*
G75*
G02*
X63594956Y-47925000I-267544J0D01*
G01*
X62605044Y-47925000D01*
G75*
G02*
X62337500Y-47657456I0J267544D01*
G01*
X62337500Y-46342544D01*
G75*
G02*
X62605044Y-46075000I267544J0D01*
G01*
X63594956Y-46075000D01*
G75*
G02*
X63862500Y-46342544I0J-267544D01*
G01*
G37*
%TD*%
%TO.C,C21*%
G36*
G01*
X49042544Y-30562500D02*
X50357456Y-30562500D01*
G75*
G02*
X50625000Y-30830044I0J-267544D01*
G01*
X50625000Y-31819956D01*
G75*
G02*
X50357456Y-32087500I-267544J0D01*
G01*
X49042544Y-32087500D01*
G75*
G02*
X48775000Y-31819956I0J267544D01*
G01*
X48775000Y-30830044D01*
G75*
G02*
X49042544Y-30562500I267544J0D01*
G01*
G37*
G36*
G01*
X49042544Y-33537500D02*
X50357456Y-33537500D01*
G75*
G02*
X50625000Y-33805044I0J-267544D01*
G01*
X50625000Y-34794956D01*
G75*
G02*
X50357456Y-35062500I-267544J0D01*
G01*
X49042544Y-35062500D01*
G75*
G02*
X48775000Y-34794956I0J267544D01*
G01*
X48775000Y-33805044D01*
G75*
G02*
X49042544Y-33537500I267544J0D01*
G01*
G37*
%TD*%
D16*
%TO.C,D1*%
X69100000Y-18300000D03*
X77900000Y-18300000D03*
%TD*%
%TO.C,D2*%
G36*
G01*
X32225000Y-51755000D02*
X32225000Y-50445000D01*
G75*
G02*
X32495000Y-50175000I270000J0D01*
G01*
X33305000Y-50175000D01*
G75*
G02*
X33575000Y-50445000I0J-270000D01*
G01*
X33575000Y-51755000D01*
G75*
G02*
X33305000Y-52025000I-270000J0D01*
G01*
X32495000Y-52025000D01*
G75*
G02*
X32225000Y-51755000I0J270000D01*
G01*
G37*
G36*
G01*
X29425000Y-51755000D02*
X29425000Y-50445000D01*
G75*
G02*
X29695000Y-50175000I270000J0D01*
G01*
X30505000Y-50175000D01*
G75*
G02*
X30775000Y-50445000I0J-270000D01*
G01*
X30775000Y-51755000D01*
G75*
G02*
X30505000Y-52025000I-270000J0D01*
G01*
X29695000Y-52025000D01*
G75*
G02*
X29425000Y-51755000I0J270000D01*
G01*
G37*
%TD*%
%TO.C,D3*%
G36*
G01*
X29425000Y-49355000D02*
X29425000Y-48045000D01*
G75*
G02*
X29695000Y-47775000I270000J0D01*
G01*
X30505000Y-47775000D01*
G75*
G02*
X30775000Y-48045000I0J-270000D01*
G01*
X30775000Y-49355000D01*
G75*
G02*
X30505000Y-49625000I-270000J0D01*
G01*
X29695000Y-49625000D01*
G75*
G02*
X29425000Y-49355000I0J270000D01*
G01*
G37*
G36*
G01*
X32225000Y-49355000D02*
X32225000Y-48045000D01*
G75*
G02*
X32495000Y-47775000I270000J0D01*
G01*
X33305000Y-47775000D01*
G75*
G02*
X33575000Y-48045000I0J-270000D01*
G01*
X33575000Y-49355000D01*
G75*
G02*
X33305000Y-49625000I-270000J0D01*
G01*
X32495000Y-49625000D01*
G75*
G02*
X32225000Y-49355000I0J270000D01*
G01*
G37*
%TD*%
%TO.C,D4*%
X99300000Y-18300000D03*
X90500000Y-18300000D03*
%TD*%
%TO.C,D5*%
G36*
G01*
X32225000Y-46955000D02*
X32225000Y-45645000D01*
G75*
G02*
X32495000Y-45375000I270000J0D01*
G01*
X33305000Y-45375000D01*
G75*
G02*
X33575000Y-45645000I0J-270000D01*
G01*
X33575000Y-46955000D01*
G75*
G02*
X33305000Y-47225000I-270000J0D01*
G01*
X32495000Y-47225000D01*
G75*
G02*
X32225000Y-46955000I0J270000D01*
G01*
G37*
G36*
G01*
X29425000Y-46955000D02*
X29425000Y-45645000D01*
G75*
G02*
X29695000Y-45375000I270000J0D01*
G01*
X30505000Y-45375000D01*
G75*
G02*
X30775000Y-45645000I0J-270000D01*
G01*
X30775000Y-46955000D01*
G75*
G02*
X30505000Y-47225000I-270000J0D01*
G01*
X29695000Y-47225000D01*
G75*
G02*
X29425000Y-46955000I0J270000D01*
G01*
G37*
%TD*%
%TO.C,D6*%
G36*
G01*
X29425000Y-44555000D02*
X29425000Y-43245000D01*
G75*
G02*
X29695000Y-42975000I270000J0D01*
G01*
X30505000Y-42975000D01*
G75*
G02*
X30775000Y-43245000I0J-270000D01*
G01*
X30775000Y-44555000D01*
G75*
G02*
X30505000Y-44825000I-270000J0D01*
G01*
X29695000Y-44825000D01*
G75*
G02*
X29425000Y-44555000I0J270000D01*
G01*
G37*
G36*
G01*
X32225000Y-44555000D02*
X32225000Y-43245000D01*
G75*
G02*
X32495000Y-42975000I270000J0D01*
G01*
X33305000Y-42975000D01*
G75*
G02*
X33575000Y-43245000I0J-270000D01*
G01*
X33575000Y-44555000D01*
G75*
G02*
X33305000Y-44825000I-270000J0D01*
G01*
X32495000Y-44825000D01*
G75*
G02*
X32225000Y-44555000I0J270000D01*
G01*
G37*
%TD*%
D15*
%TO.C,F1*%
X24340000Y-15400000D03*
X19260000Y-15400000D03*
%TD*%
D17*
%TO.C,J2*%
X23140000Y-61400000D03*
D18*
X25680000Y-61400000D03*
X28220000Y-61400000D03*
X30760000Y-61400000D03*
X33300000Y-61400000D03*
%TD*%
D17*
%TO.C,J3*%
X37600000Y-61400000D03*
D18*
X40140000Y-61400000D03*
X42680000Y-61400000D03*
X45220000Y-61400000D03*
X47760000Y-61400000D03*
X50300000Y-61400000D03*
X52840000Y-61400000D03*
X55380000Y-61400000D03*
X57920000Y-61400000D03*
X60460000Y-61400000D03*
%TD*%
D19*
%TO.C,J4*%
X19200000Y-75700000D03*
X101200000Y-75700000D03*
%TD*%
D20*
%TO.C,L1*%
X33450000Y-19800000D03*
X43550000Y-19800000D03*
%TD*%
D21*
%TO.C,L2*%
X59500000Y-24850000D03*
X59500000Y-14750000D03*
%TD*%
D22*
%TO.C,Q1*%
X41660000Y-27975000D03*
X41660000Y-27325000D03*
X41660000Y-28625000D03*
X41660000Y-29275000D03*
D23*
G36*
X45154755Y-27075961D02*
G01*
X45164134Y-27078806D01*
X45172779Y-27083427D01*
X45180355Y-27089645D01*
X45186573Y-27097221D01*
X45191194Y-27105866D01*
X45194039Y-27115245D01*
X45195000Y-27125000D01*
X45195000Y-27525000D01*
X45194039Y-27534755D01*
X45191194Y-27544134D01*
X45186573Y-27552779D01*
X45180355Y-27560355D01*
X45172779Y-27566573D01*
X45164134Y-27571194D01*
X45154755Y-27574039D01*
X45145000Y-27575000D01*
X44575000Y-27575000D01*
X44575000Y-27725000D01*
X45145000Y-27725000D01*
X45154755Y-27725961D01*
X45164134Y-27728806D01*
X45172779Y-27733427D01*
X45180355Y-27739645D01*
X45186573Y-27747221D01*
X45191194Y-27755866D01*
X45194039Y-27765245D01*
X45195000Y-27775000D01*
X45195000Y-28175000D01*
X45194039Y-28184755D01*
X45191194Y-28194134D01*
X45186573Y-28202779D01*
X45180355Y-28210355D01*
X45172779Y-28216573D01*
X45164134Y-28221194D01*
X45154755Y-28224039D01*
X45145000Y-28225000D01*
X44575000Y-28225000D01*
X44575000Y-28375000D01*
X45145000Y-28375000D01*
X45154755Y-28375961D01*
X45164134Y-28378806D01*
X45172779Y-28383427D01*
X45180355Y-28389645D01*
X45186573Y-28397221D01*
X45191194Y-28405866D01*
X45194039Y-28415245D01*
X45195000Y-28425000D01*
X45195000Y-28825000D01*
X45194039Y-28834755D01*
X45191194Y-28844134D01*
X45186573Y-28852779D01*
X45180355Y-28860355D01*
X45172779Y-28866573D01*
X45164134Y-28871194D01*
X45154755Y-28874039D01*
X45145000Y-28875000D01*
X44575000Y-28875000D01*
X44575000Y-29025000D01*
X45145000Y-29025000D01*
X45154755Y-29025961D01*
X45164134Y-29028806D01*
X45172779Y-29033427D01*
X45180355Y-29039645D01*
X45186573Y-29047221D01*
X45191194Y-29055866D01*
X45194039Y-29065245D01*
X45195000Y-29075000D01*
X45195000Y-29475000D01*
X45194039Y-29484755D01*
X45191194Y-29494134D01*
X45186573Y-29502779D01*
X45180355Y-29510355D01*
X45172779Y-29516573D01*
X45164134Y-29521194D01*
X45154755Y-29524039D01*
X45145000Y-29525000D01*
X44525000Y-29525000D01*
X44515245Y-29524039D01*
X44505866Y-29521194D01*
X44497221Y-29516573D01*
X44489645Y-29510355D01*
X44483427Y-29502779D01*
X44478806Y-29494134D01*
X44475961Y-29484755D01*
X44475000Y-29475000D01*
X42675000Y-29475000D01*
X42665245Y-29474039D01*
X42655866Y-29471194D01*
X42647221Y-29466573D01*
X42639645Y-29460355D01*
X42633427Y-29452779D01*
X42628806Y-29444134D01*
X42625961Y-29434755D01*
X42625000Y-29425000D01*
X42625000Y-27175000D01*
X42625961Y-27165245D01*
X42628806Y-27155866D01*
X42633427Y-27147221D01*
X42639645Y-27139645D01*
X42647221Y-27133427D01*
X42655866Y-27128806D01*
X42665245Y-27125961D01*
X42675000Y-27125000D01*
X44475000Y-27125000D01*
X44475961Y-27115245D01*
X44478806Y-27105866D01*
X44483427Y-27097221D01*
X44489645Y-27089645D01*
X44497221Y-27083427D01*
X44505866Y-27078806D01*
X44515245Y-27075961D01*
X44525000Y-27075000D01*
X45145000Y-27075000D01*
X45154755Y-27075961D01*
G37*
%TD*%
%TO.C,R1*%
G36*
G01*
X19442544Y-57662500D02*
X20757456Y-57662500D01*
G75*
G02*
X21025000Y-57930044I0J-267544D01*
G01*
X21025000Y-58919956D01*
G75*
G02*
X20757456Y-59187500I-267544J0D01*
G01*
X19442544Y-59187500D01*
G75*
G02*
X19175000Y-58919956I0J267544D01*
G01*
X19175000Y-57930044D01*
G75*
G02*
X19442544Y-57662500I267544J0D01*
G01*
G37*
G36*
G01*
X19442544Y-60637500D02*
X20757456Y-60637500D01*
G75*
G02*
X21025000Y-60905044I0J-267544D01*
G01*
X21025000Y-61894956D01*
G75*
G02*
X20757456Y-62162500I-267544J0D01*
G01*
X19442544Y-62162500D01*
G75*
G02*
X19175000Y-61894956I0J267544D01*
G01*
X19175000Y-60905044D01*
G75*
G02*
X19442544Y-60637500I267544J0D01*
G01*
G37*
%TD*%
%TO.C,R2*%
G36*
G01*
X53912500Y-55357456D02*
X53912500Y-54042544D01*
G75*
G02*
X54180044Y-53775000I267544J0D01*
G01*
X55169956Y-53775000D01*
G75*
G02*
X55437500Y-54042544I0J-267544D01*
G01*
X55437500Y-55357456D01*
G75*
G02*
X55169956Y-55625000I-267544J0D01*
G01*
X54180044Y-55625000D01*
G75*
G02*
X53912500Y-55357456I0J267544D01*
G01*
G37*
G36*
G01*
X50937500Y-55357456D02*
X50937500Y-54042544D01*
G75*
G02*
X51205044Y-53775000I267544J0D01*
G01*
X52194956Y-53775000D01*
G75*
G02*
X52462500Y-54042544I0J-267544D01*
G01*
X52462500Y-55357456D01*
G75*
G02*
X52194956Y-55625000I-267544J0D01*
G01*
X51205044Y-55625000D01*
G75*
G02*
X50937500Y-55357456I0J267544D01*
G01*
G37*
%TD*%
%TO.C,R8*%
G36*
G01*
X37942544Y-31537500D02*
X39257456Y-31537500D01*
G75*
G02*
X39525000Y-31805044I0J-267544D01*
G01*
X39525000Y-32794956D01*
G75*
G02*
X39257456Y-33062500I-267544J0D01*
G01*
X37942544Y-33062500D01*
G75*
G02*
X37675000Y-32794956I0J267544D01*
G01*
X37675000Y-31805044D01*
G75*
G02*
X37942544Y-31537500I267544J0D01*
G01*
G37*
G36*
G01*
X37942544Y-34512500D02*
X39257456Y-34512500D01*
G75*
G02*
X39525000Y-34780044I0J-267544D01*
G01*
X39525000Y-35769956D01*
G75*
G02*
X39257456Y-36037500I-267544J0D01*
G01*
X37942544Y-36037500D01*
G75*
G02*
X37675000Y-35769956I0J267544D01*
G01*
X37675000Y-34780044D01*
G75*
G02*
X37942544Y-34512500I267544J0D01*
G01*
G37*
%TD*%
%TO.C,R9*%
G36*
G01*
X35242544Y-33037500D02*
X36557456Y-33037500D01*
G75*
G02*
X36825000Y-33305044I0J-267544D01*
G01*
X36825000Y-34294956D01*
G75*
G02*
X36557456Y-34562500I-267544J0D01*
G01*
X35242544Y-34562500D01*
G75*
G02*
X34975000Y-34294956I0J267544D01*
G01*
X34975000Y-33305044D01*
G75*
G02*
X35242544Y-33037500I267544J0D01*
G01*
G37*
G36*
G01*
X35242544Y-30062500D02*
X36557456Y-30062500D01*
G75*
G02*
X36825000Y-30330044I0J-267544D01*
G01*
X36825000Y-31319956D01*
G75*
G02*
X36557456Y-31587500I-267544J0D01*
G01*
X35242544Y-31587500D01*
G75*
G02*
X34975000Y-31319956I0J267544D01*
G01*
X34975000Y-30330044D01*
G75*
G02*
X35242544Y-30062500I267544J0D01*
G01*
G37*
%TD*%
%TO.C,R10*%
G36*
G01*
X35137500Y-28657456D02*
X35137500Y-27342544D01*
G75*
G02*
X35405044Y-27075000I267544J0D01*
G01*
X36394956Y-27075000D01*
G75*
G02*
X36662500Y-27342544I0J-267544D01*
G01*
X36662500Y-28657456D01*
G75*
G02*
X36394956Y-28925000I-267544J0D01*
G01*
X35405044Y-28925000D01*
G75*
G02*
X35137500Y-28657456I0J267544D01*
G01*
G37*
G36*
G01*
X32162500Y-28657456D02*
X32162500Y-27342544D01*
G75*
G02*
X32430044Y-27075000I267544J0D01*
G01*
X33419956Y-27075000D01*
G75*
G02*
X33687500Y-27342544I0J-267544D01*
G01*
X33687500Y-28657456D01*
G75*
G02*
X33419956Y-28925000I-267544J0D01*
G01*
X32430044Y-28925000D01*
G75*
G02*
X32162500Y-28657456I0J267544D01*
G01*
G37*
%TD*%
%TO.C,R11*%
G36*
G01*
X65442544Y-69762500D02*
X66757456Y-69762500D01*
G75*
G02*
X67025000Y-70030044I0J-267544D01*
G01*
X67025000Y-71019956D01*
G75*
G02*
X66757456Y-71287500I-267544J0D01*
G01*
X65442544Y-71287500D01*
G75*
G02*
X65175000Y-71019956I0J267544D01*
G01*
X65175000Y-70030044D01*
G75*
G02*
X65442544Y-69762500I267544J0D01*
G01*
G37*
G36*
G01*
X65442544Y-72737500D02*
X66757456Y-72737500D01*
G75*
G02*
X67025000Y-73005044I0J-267544D01*
G01*
X67025000Y-73994956D01*
G75*
G02*
X66757456Y-74262500I-267544J0D01*
G01*
X65442544Y-74262500D01*
G75*
G02*
X65175000Y-73994956I0J267544D01*
G01*
X65175000Y-73005044D01*
G75*
G02*
X65442544Y-72737500I267544J0D01*
G01*
G37*
%TD*%
%TO.C,R12*%
G36*
G01*
X86262500Y-17642544D02*
X86262500Y-18957456D01*
G75*
G02*
X85994956Y-19225000I-267544J0D01*
G01*
X85005044Y-19225000D01*
G75*
G02*
X84737500Y-18957456I0J267544D01*
G01*
X84737500Y-17642544D01*
G75*
G02*
X85005044Y-17375000I267544J0D01*
G01*
X85994956Y-17375000D01*
G75*
G02*
X86262500Y-17642544I0J-267544D01*
G01*
G37*
G36*
G01*
X83287500Y-17642544D02*
X83287500Y-18957456D01*
G75*
G02*
X83019956Y-19225000I-267544J0D01*
G01*
X82030044Y-19225000D01*
G75*
G02*
X81762500Y-18957456I0J267544D01*
G01*
X81762500Y-17642544D01*
G75*
G02*
X82030044Y-17375000I267544J0D01*
G01*
X83019956Y-17375000D01*
G75*
G02*
X83287500Y-17642544I0J-267544D01*
G01*
G37*
%TD*%
%TO.C,R13*%
G36*
G01*
X35687500Y-50442544D02*
X35687500Y-51757456D01*
G75*
G02*
X35419956Y-52025000I-267544J0D01*
G01*
X34430044Y-52025000D01*
G75*
G02*
X34162500Y-51757456I0J267544D01*
G01*
X34162500Y-50442544D01*
G75*
G02*
X34430044Y-50175000I267544J0D01*
G01*
X35419956Y-50175000D01*
G75*
G02*
X35687500Y-50442544I0J-267544D01*
G01*
G37*
G36*
G01*
X38662500Y-50442544D02*
X38662500Y-51757456D01*
G75*
G02*
X38394956Y-52025000I-267544J0D01*
G01*
X37405044Y-52025000D01*
G75*
G02*
X37137500Y-51757456I0J267544D01*
G01*
X37137500Y-50442544D01*
G75*
G02*
X37405044Y-50175000I267544J0D01*
G01*
X38394956Y-50175000D01*
G75*
G02*
X38662500Y-50442544I0J-267544D01*
G01*
G37*
%TD*%
%TO.C,R14*%
G36*
G01*
X38650000Y-48042544D02*
X38650000Y-49357456D01*
G75*
G02*
X38382456Y-49625000I-267544J0D01*
G01*
X37392544Y-49625000D01*
G75*
G02*
X37125000Y-49357456I0J267544D01*
G01*
X37125000Y-48042544D01*
G75*
G02*
X37392544Y-47775000I267544J0D01*
G01*
X38382456Y-47775000D01*
G75*
G02*
X38650000Y-48042544I0J-267544D01*
G01*
G37*
G36*
G01*
X35675000Y-48042544D02*
X35675000Y-49357456D01*
G75*
G02*
X35407456Y-49625000I-267544J0D01*
G01*
X34417544Y-49625000D01*
G75*
G02*
X34150000Y-49357456I0J267544D01*
G01*
X34150000Y-48042544D01*
G75*
G02*
X34417544Y-47775000I267544J0D01*
G01*
X35407456Y-47775000D01*
G75*
G02*
X35675000Y-48042544I0J-267544D01*
G01*
G37*
%TD*%
%TO.C,R15*%
G36*
G01*
X35662500Y-45642544D02*
X35662500Y-46957456D01*
G75*
G02*
X35394956Y-47225000I-267544J0D01*
G01*
X34405044Y-47225000D01*
G75*
G02*
X34137500Y-46957456I0J267544D01*
G01*
X34137500Y-45642544D01*
G75*
G02*
X34405044Y-45375000I267544J0D01*
G01*
X35394956Y-45375000D01*
G75*
G02*
X35662500Y-45642544I0J-267544D01*
G01*
G37*
G36*
G01*
X38637500Y-45642544D02*
X38637500Y-46957456D01*
G75*
G02*
X38369956Y-47225000I-267544J0D01*
G01*
X37380044Y-47225000D01*
G75*
G02*
X37112500Y-46957456I0J267544D01*
G01*
X37112500Y-45642544D01*
G75*
G02*
X37380044Y-45375000I267544J0D01*
G01*
X38369956Y-45375000D01*
G75*
G02*
X38637500Y-45642544I0J-267544D01*
G01*
G37*
%TD*%
%TO.C,R16*%
G36*
G01*
X35662500Y-43242544D02*
X35662500Y-44557456D01*
G75*
G02*
X35394956Y-44825000I-267544J0D01*
G01*
X34405044Y-44825000D01*
G75*
G02*
X34137500Y-44557456I0J267544D01*
G01*
X34137500Y-43242544D01*
G75*
G02*
X34405044Y-42975000I267544J0D01*
G01*
X35394956Y-42975000D01*
G75*
G02*
X35662500Y-43242544I0J-267544D01*
G01*
G37*
G36*
G01*
X38637500Y-43242544D02*
X38637500Y-44557456D01*
G75*
G02*
X38369956Y-44825000I-267544J0D01*
G01*
X37380044Y-44825000D01*
G75*
G02*
X37112500Y-44557456I0J267544D01*
G01*
X37112500Y-43242544D01*
G75*
G02*
X37380044Y-42975000I267544J0D01*
G01*
X38369956Y-42975000D01*
G75*
G02*
X38637500Y-43242544I0J-267544D01*
G01*
G37*
%TD*%
%TO.C,R17*%
G36*
G01*
X66437500Y-49642544D02*
X66437500Y-50957456D01*
G75*
G02*
X66169956Y-51225000I-267544J0D01*
G01*
X65180044Y-51225000D01*
G75*
G02*
X64912500Y-50957456I0J267544D01*
G01*
X64912500Y-49642544D01*
G75*
G02*
X65180044Y-49375000I267544J0D01*
G01*
X66169956Y-49375000D01*
G75*
G02*
X66437500Y-49642544I0J-267544D01*
G01*
G37*
G36*
G01*
X63462500Y-49642544D02*
X63462500Y-50957456D01*
G75*
G02*
X63194956Y-51225000I-267544J0D01*
G01*
X62205044Y-51225000D01*
G75*
G02*
X61937500Y-50957456I0J267544D01*
G01*
X61937500Y-49642544D01*
G75*
G02*
X62205044Y-49375000I267544J0D01*
G01*
X63194956Y-49375000D01*
G75*
G02*
X63462500Y-49642544I0J-267544D01*
G01*
G37*
%TD*%
%TO.C,R18*%
G36*
G01*
X59442544Y-49537500D02*
X60757456Y-49537500D01*
G75*
G02*
X61025000Y-49805044I0J-267544D01*
G01*
X61025000Y-50794956D01*
G75*
G02*
X60757456Y-51062500I-267544J0D01*
G01*
X59442544Y-51062500D01*
G75*
G02*
X59175000Y-50794956I0J267544D01*
G01*
X59175000Y-49805044D01*
G75*
G02*
X59442544Y-49537500I267544J0D01*
G01*
G37*
G36*
G01*
X59442544Y-52512500D02*
X60757456Y-52512500D01*
G75*
G02*
X61025000Y-52780044I0J-267544D01*
G01*
X61025000Y-53769956D01*
G75*
G02*
X60757456Y-54037500I-267544J0D01*
G01*
X59442544Y-54037500D01*
G75*
G02*
X59175000Y-53769956I0J267544D01*
G01*
X59175000Y-52780044D01*
G75*
G02*
X59442544Y-52512500I267544J0D01*
G01*
G37*
%TD*%
%TO.C,TH1*%
G36*
G01*
X60750000Y-73021738D02*
X60750000Y-73978262D01*
G75*
G02*
X60478262Y-74250000I-271738J0D01*
G01*
X59771738Y-74250000D01*
G75*
G02*
X59500000Y-73978262I0J271738D01*
G01*
X59500000Y-73021738D01*
G75*
G02*
X59771738Y-72750000I271738J0D01*
G01*
X60478262Y-72750000D01*
G75*
G02*
X60750000Y-73021738I0J-271738D01*
G01*
G37*
G36*
G01*
X58700000Y-73021738D02*
X58700000Y-73978262D01*
G75*
G02*
X58428262Y-74250000I-271738J0D01*
G01*
X57721738Y-74250000D01*
G75*
G02*
X57450000Y-73978262I0J271738D01*
G01*
X57450000Y-73021738D01*
G75*
G02*
X57721738Y-72750000I271738J0D01*
G01*
X58428262Y-72750000D01*
G75*
G02*
X58700000Y-73021738I0J-271738D01*
G01*
G37*
%TD*%
D15*
%TO.C,U1*%
X20900000Y-41600000D03*
X20900000Y-39060000D03*
X20900000Y-36520000D03*
%TD*%
D24*
%TO.C,U2*%
X21600000Y-46600000D03*
X21600000Y-47550000D03*
X21600000Y-48500000D03*
X23800000Y-48500000D03*
X23800000Y-46600000D03*
%TD*%
%TO.C,U3*%
G36*
G01*
X52975000Y-50350000D02*
X52975000Y-50650000D01*
G75*
G02*
X52825000Y-50800000I-150000J0D01*
G01*
X51525000Y-50800000D01*
G75*
G02*
X51375000Y-50650000I0J150000D01*
G01*
X51375000Y-50350000D01*
G75*
G02*
X51525000Y-50200000I150000J0D01*
G01*
X52825000Y-50200000D01*
G75*
G02*
X52975000Y-50350000I0J-150000D01*
G01*
G37*
G36*
G01*
X52975000Y-49550000D02*
X52975000Y-49850000D01*
G75*
G02*
X52825000Y-50000000I-150000J0D01*
G01*
X51525000Y-50000000D01*
G75*
G02*
X51375000Y-49850000I0J150000D01*
G01*
X51375000Y-49550000D01*
G75*
G02*
X51525000Y-49400000I150000J0D01*
G01*
X52825000Y-49400000D01*
G75*
G02*
X52975000Y-49550000I0J-150000D01*
G01*
G37*
G36*
G01*
X52975000Y-48750000D02*
X52975000Y-49050000D01*
G75*
G02*
X52825000Y-49200000I-150000J0D01*
G01*
X51525000Y-49200000D01*
G75*
G02*
X51375000Y-49050000I0J150000D01*
G01*
X51375000Y-48750000D01*
G75*
G02*
X51525000Y-48600000I150000J0D01*
G01*
X52825000Y-48600000D01*
G75*
G02*
X52975000Y-48750000I0J-150000D01*
G01*
G37*
G36*
G01*
X52975000Y-47950000D02*
X52975000Y-48250000D01*
G75*
G02*
X52825000Y-48400000I-150000J0D01*
G01*
X51525000Y-48400000D01*
G75*
G02*
X51375000Y-48250000I0J150000D01*
G01*
X51375000Y-47950000D01*
G75*
G02*
X51525000Y-47800000I150000J0D01*
G01*
X52825000Y-47800000D01*
G75*
G02*
X52975000Y-47950000I0J-150000D01*
G01*
G37*
G36*
G01*
X52975000Y-47150000D02*
X52975000Y-47450000D01*
G75*
G02*
X52825000Y-47600000I-150000J0D01*
G01*
X51525000Y-47600000D01*
G75*
G02*
X51375000Y-47450000I0J150000D01*
G01*
X51375000Y-47150000D01*
G75*
G02*
X51525000Y-47000000I150000J0D01*
G01*
X52825000Y-47000000D01*
G75*
G02*
X52975000Y-47150000I0J-150000D01*
G01*
G37*
G36*
G01*
X52975000Y-46350000D02*
X52975000Y-46650000D01*
G75*
G02*
X52825000Y-46800000I-150000J0D01*
G01*
X51525000Y-46800000D01*
G75*
G02*
X51375000Y-46650000I0J150000D01*
G01*
X51375000Y-46350000D01*
G75*
G02*
X51525000Y-46200000I150000J0D01*
G01*
X52825000Y-46200000D01*
G75*
G02*
X52975000Y-46350000I0J-150000D01*
G01*
G37*
G36*
G01*
X52975000Y-45550000D02*
X52975000Y-45850000D01*
G75*
G02*
X52825000Y-46000000I-150000J0D01*
G01*
X51525000Y-46000000D01*
G75*
G02*
X51375000Y-45850000I0J150000D01*
G01*
X51375000Y-45550000D01*
G75*
G02*
X51525000Y-45400000I150000J0D01*
G01*
X52825000Y-45400000D01*
G75*
G02*
X52975000Y-45550000I0J-150000D01*
G01*
G37*
G36*
G01*
X52975000Y-44750000D02*
X52975000Y-45050000D01*
G75*
G02*
X52825000Y-45200000I-150000J0D01*
G01*
X51525000Y-45200000D01*
G75*
G02*
X51375000Y-45050000I0J150000D01*
G01*
X51375000Y-44750000D01*
G75*
G02*
X51525000Y-44600000I150000J0D01*
G01*
X52825000Y-44600000D01*
G75*
G02*
X52975000Y-44750000I0J-150000D01*
G01*
G37*
G36*
G01*
X51100000Y-42875000D02*
X51100000Y-44175000D01*
G75*
G02*
X50950000Y-44325000I-150000J0D01*
G01*
X50650000Y-44325000D01*
G75*
G02*
X50500000Y-44175000I0J150000D01*
G01*
X50500000Y-42875000D01*
G75*
G02*
X50650000Y-42725000I150000J0D01*
G01*
X50950000Y-42725000D01*
G75*
G02*
X51100000Y-42875000I0J-150000D01*
G01*
G37*
G36*
G01*
X50300000Y-42875000D02*
X50300000Y-44175000D01*
G75*
G02*
X50150000Y-44325000I-150000J0D01*
G01*
X49850000Y-44325000D01*
G75*
G02*
X49700000Y-44175000I0J150000D01*
G01*
X49700000Y-42875000D01*
G75*
G02*
X49850000Y-42725000I150000J0D01*
G01*
X50150000Y-42725000D01*
G75*
G02*
X50300000Y-42875000I0J-150000D01*
G01*
G37*
G36*
G01*
X49500000Y-42875000D02*
X49500000Y-44175000D01*
G75*
G02*
X49350000Y-44325000I-150000J0D01*
G01*
X49050000Y-44325000D01*
G75*
G02*
X48900000Y-44175000I0J150000D01*
G01*
X48900000Y-42875000D01*
G75*
G02*
X49050000Y-42725000I150000J0D01*
G01*
X49350000Y-42725000D01*
G75*
G02*
X49500000Y-42875000I0J-150000D01*
G01*
G37*
G36*
G01*
X48700000Y-42875000D02*
X48700000Y-44175000D01*
G75*
G02*
X48550000Y-44325000I-150000J0D01*
G01*
X48250000Y-44325000D01*
G75*
G02*
X48100000Y-44175000I0J150000D01*
G01*
X48100000Y-42875000D01*
G75*
G02*
X48250000Y-42725000I150000J0D01*
G01*
X48550000Y-42725000D01*
G75*
G02*
X48700000Y-42875000I0J-150000D01*
G01*
G37*
G36*
G01*
X47900000Y-42875000D02*
X47900000Y-44175000D01*
G75*
G02*
X47750000Y-44325000I-150000J0D01*
G01*
X47450000Y-44325000D01*
G75*
G02*
X47300000Y-44175000I0J150000D01*
G01*
X47300000Y-42875000D01*
G75*
G02*
X47450000Y-42725000I150000J0D01*
G01*
X47750000Y-42725000D01*
G75*
G02*
X47900000Y-42875000I0J-150000D01*
G01*
G37*
G36*
G01*
X47100000Y-42875000D02*
X47100000Y-44175000D01*
G75*
G02*
X46950000Y-44325000I-150000J0D01*
G01*
X46650000Y-44325000D01*
G75*
G02*
X46500000Y-44175000I0J150000D01*
G01*
X46500000Y-42875000D01*
G75*
G02*
X46650000Y-42725000I150000J0D01*
G01*
X46950000Y-42725000D01*
G75*
G02*
X47100000Y-42875000I0J-150000D01*
G01*
G37*
G36*
G01*
X46300000Y-42875000D02*
X46300000Y-44175000D01*
G75*
G02*
X46150000Y-44325000I-150000J0D01*
G01*
X45850000Y-44325000D01*
G75*
G02*
X45700000Y-44175000I0J150000D01*
G01*
X45700000Y-42875000D01*
G75*
G02*
X45850000Y-42725000I150000J0D01*
G01*
X46150000Y-42725000D01*
G75*
G02*
X46300000Y-42875000I0J-150000D01*
G01*
G37*
G36*
G01*
X45500000Y-42875000D02*
X45500000Y-44175000D01*
G75*
G02*
X45350000Y-44325000I-150000J0D01*
G01*
X45050000Y-44325000D01*
G75*
G02*
X44900000Y-44175000I0J150000D01*
G01*
X44900000Y-42875000D01*
G75*
G02*
X45050000Y-42725000I150000J0D01*
G01*
X45350000Y-42725000D01*
G75*
G02*
X45500000Y-42875000I0J-150000D01*
G01*
G37*
G36*
G01*
X44625000Y-44750000D02*
X44625000Y-45050000D01*
G75*
G02*
X44475000Y-45200000I-150000J0D01*
G01*
X43175000Y-45200000D01*
G75*
G02*
X43025000Y-45050000I0J150000D01*
G01*
X43025000Y-44750000D01*
G75*
G02*
X43175000Y-44600000I150000J0D01*
G01*
X44475000Y-44600000D01*
G75*
G02*
X44625000Y-44750000I0J-150000D01*
G01*
G37*
G36*
G01*
X44625000Y-45550000D02*
X44625000Y-45850000D01*
G75*
G02*
X44475000Y-46000000I-150000J0D01*
G01*
X43175000Y-46000000D01*
G75*
G02*
X43025000Y-45850000I0J150000D01*
G01*
X43025000Y-45550000D01*
G75*
G02*
X43175000Y-45400000I150000J0D01*
G01*
X44475000Y-45400000D01*
G75*
G02*
X44625000Y-45550000I0J-150000D01*
G01*
G37*
G36*
G01*
X44625000Y-46350000D02*
X44625000Y-46650000D01*
G75*
G02*
X44475000Y-46800000I-150000J0D01*
G01*
X43175000Y-46800000D01*
G75*
G02*
X43025000Y-46650000I0J150000D01*
G01*
X43025000Y-46350000D01*
G75*
G02*
X43175000Y-46200000I150000J0D01*
G01*
X44475000Y-46200000D01*
G75*
G02*
X44625000Y-46350000I0J-150000D01*
G01*
G37*
G36*
G01*
X44625000Y-47150000D02*
X44625000Y-47450000D01*
G75*
G02*
X44475000Y-47600000I-150000J0D01*
G01*
X43175000Y-47600000D01*
G75*
G02*
X43025000Y-47450000I0J150000D01*
G01*
X43025000Y-47150000D01*
G75*
G02*
X43175000Y-47000000I150000J0D01*
G01*
X44475000Y-47000000D01*
G75*
G02*
X44625000Y-47150000I0J-150000D01*
G01*
G37*
G36*
G01*
X44625000Y-47950000D02*
X44625000Y-48250000D01*
G75*
G02*
X44475000Y-48400000I-150000J0D01*
G01*
X43175000Y-48400000D01*
G75*
G02*
X43025000Y-48250000I0J150000D01*
G01*
X43025000Y-47950000D01*
G75*
G02*
X43175000Y-47800000I150000J0D01*
G01*
X44475000Y-47800000D01*
G75*
G02*
X44625000Y-47950000I0J-150000D01*
G01*
G37*
G36*
G01*
X44625000Y-48750000D02*
X44625000Y-49050000D01*
G75*
G02*
X44475000Y-49200000I-150000J0D01*
G01*
X43175000Y-49200000D01*
G75*
G02*
X43025000Y-49050000I0J150000D01*
G01*
X43025000Y-48750000D01*
G75*
G02*
X43175000Y-48600000I150000J0D01*
G01*
X44475000Y-48600000D01*
G75*
G02*
X44625000Y-48750000I0J-150000D01*
G01*
G37*
G36*
G01*
X44625000Y-49550000D02*
X44625000Y-49850000D01*
G75*
G02*
X44475000Y-50000000I-150000J0D01*
G01*
X43175000Y-50000000D01*
G75*
G02*
X43025000Y-49850000I0J150000D01*
G01*
X43025000Y-49550000D01*
G75*
G02*
X43175000Y-49400000I150000J0D01*
G01*
X44475000Y-49400000D01*
G75*
G02*
X44625000Y-49550000I0J-150000D01*
G01*
G37*
G36*
G01*
X44625000Y-50350000D02*
X44625000Y-50650000D01*
G75*
G02*
X44475000Y-50800000I-150000J0D01*
G01*
X43175000Y-50800000D01*
G75*
G02*
X43025000Y-50650000I0J150000D01*
G01*
X43025000Y-50350000D01*
G75*
G02*
X43175000Y-50200000I150000J0D01*
G01*
X44475000Y-50200000D01*
G75*
G02*
X44625000Y-50350000I0J-150000D01*
G01*
G37*
G36*
G01*
X45500000Y-51225000D02*
X45500000Y-52525000D01*
G75*
G02*
X45350000Y-52675000I-150000J0D01*
G01*
X45050000Y-52675000D01*
G75*
G02*
X44900000Y-52525000I0J150000D01*
G01*
X44900000Y-51225000D01*
G75*
G02*
X45050000Y-51075000I150000J0D01*
G01*
X45350000Y-51075000D01*
G75*
G02*
X45500000Y-51225000I0J-150000D01*
G01*
G37*
G36*
G01*
X46300000Y-51225000D02*
X46300000Y-52525000D01*
G75*
G02*
X46150000Y-52675000I-150000J0D01*
G01*
X45850000Y-52675000D01*
G75*
G02*
X45700000Y-52525000I0J150000D01*
G01*
X45700000Y-51225000D01*
G75*
G02*
X45850000Y-51075000I150000J0D01*
G01*
X46150000Y-51075000D01*
G75*
G02*
X46300000Y-51225000I0J-150000D01*
G01*
G37*
G36*
G01*
X47100000Y-51225000D02*
X47100000Y-52525000D01*
G75*
G02*
X46950000Y-52675000I-150000J0D01*
G01*
X46650000Y-52675000D01*
G75*
G02*
X46500000Y-52525000I0J150000D01*
G01*
X46500000Y-51225000D01*
G75*
G02*
X46650000Y-51075000I150000J0D01*
G01*
X46950000Y-51075000D01*
G75*
G02*
X47100000Y-51225000I0J-150000D01*
G01*
G37*
G36*
G01*
X47900000Y-51225000D02*
X47900000Y-52525000D01*
G75*
G02*
X47750000Y-52675000I-150000J0D01*
G01*
X47450000Y-52675000D01*
G75*
G02*
X47300000Y-52525000I0J150000D01*
G01*
X47300000Y-51225000D01*
G75*
G02*
X47450000Y-51075000I150000J0D01*
G01*
X47750000Y-51075000D01*
G75*
G02*
X47900000Y-51225000I0J-150000D01*
G01*
G37*
G36*
G01*
X48700000Y-51225000D02*
X48700000Y-52525000D01*
G75*
G02*
X48550000Y-52675000I-150000J0D01*
G01*
X48250000Y-52675000D01*
G75*
G02*
X48100000Y-52525000I0J150000D01*
G01*
X48100000Y-51225000D01*
G75*
G02*
X48250000Y-51075000I150000J0D01*
G01*
X48550000Y-51075000D01*
G75*
G02*
X48700000Y-51225000I0J-150000D01*
G01*
G37*
G36*
G01*
X49500000Y-51225000D02*
X49500000Y-52525000D01*
G75*
G02*
X49350000Y-52675000I-150000J0D01*
G01*
X49050000Y-52675000D01*
G75*
G02*
X48900000Y-52525000I0J150000D01*
G01*
X48900000Y-51225000D01*
G75*
G02*
X49050000Y-51075000I150000J0D01*
G01*
X49350000Y-51075000D01*
G75*
G02*
X49500000Y-51225000I0J-150000D01*
G01*
G37*
G36*
G01*
X50300000Y-51225000D02*
X50300000Y-52525000D01*
G75*
G02*
X50150000Y-52675000I-150000J0D01*
G01*
X49850000Y-52675000D01*
G75*
G02*
X49700000Y-52525000I0J150000D01*
G01*
X49700000Y-51225000D01*
G75*
G02*
X49850000Y-51075000I150000J0D01*
G01*
X50150000Y-51075000D01*
G75*
G02*
X50300000Y-51225000I0J-150000D01*
G01*
G37*
G36*
G01*
X51100000Y-51225000D02*
X51100000Y-52525000D01*
G75*
G02*
X50950000Y-52675000I-150000J0D01*
G01*
X50650000Y-52675000D01*
G75*
G02*
X50500000Y-52525000I0J150000D01*
G01*
X50500000Y-51225000D01*
G75*
G02*
X50650000Y-51075000I150000J0D01*
G01*
X50950000Y-51075000D01*
G75*
G02*
X51100000Y-51225000I0J-150000D01*
G01*
G37*
%TD*%
D25*
%TO.C,U4*%
X84600000Y-23100000D03*
X83950000Y-23100000D03*
X83300000Y-23100000D03*
X84600000Y-21300000D03*
X83950000Y-21300000D03*
X83300000Y-21300000D03*
%TD*%
D26*
%TO.C,U5*%
X35900000Y-37500000D03*
X35900000Y-38450000D03*
X35900000Y-39400000D03*
X38600000Y-39400000D03*
X38600000Y-37500000D03*
%TD*%
D17*
%TO.C,J1*%
X14600000Y-16500000D03*
D18*
X14600000Y-19040000D03*
%TD*%
D17*
%TO.C,J5*%
X57200000Y-47000000D03*
%TD*%
%TO.C,J6*%
X57200000Y-43300000D03*
%TD*%
%TO.C,J7*%
X57200000Y-39600000D03*
%TD*%
%TO.C,J8*%
X53400000Y-37300000D03*
%TD*%
%TO.C,J9*%
X49700000Y-37300000D03*
%TD*%
%TO.C,J10*%
X46000000Y-37300000D03*
%TD*%
%TO.C,J11*%
X32500000Y-39400000D03*
%TD*%
D18*
%TO.C,J14*%
X101200000Y-51140000D03*
D17*
X101200000Y-48600000D03*
%TD*%
%TO.C,J12*%
X41700000Y-32300000D03*
%TD*%
%TO.C,J13*%
X38900000Y-28000000D03*
%TD*%
%TO.C,C9*%
G36*
G01*
X85842544Y-21037500D02*
X87157456Y-21037500D01*
G75*
G02*
X87425000Y-21305044I0J-267544D01*
G01*
X87425000Y-22294956D01*
G75*
G02*
X87157456Y-22562500I-267544J0D01*
G01*
X85842544Y-22562500D01*
G75*
G02*
X85575000Y-22294956I0J267544D01*
G01*
X85575000Y-21305044D01*
G75*
G02*
X85842544Y-21037500I267544J0D01*
G01*
G37*
G36*
G01*
X85842544Y-24012500D02*
X87157456Y-24012500D01*
G75*
G02*
X87425000Y-24280044I0J-267544D01*
G01*
X87425000Y-25269956D01*
G75*
G02*
X87157456Y-25537500I-267544J0D01*
G01*
X85842544Y-25537500D01*
G75*
G02*
X85575000Y-25269956I0J267544D01*
G01*
X85575000Y-24280044D01*
G75*
G02*
X85842544Y-24012500I267544J0D01*
G01*
G37*
%TD*%
M02*
