%TF.GenerationSoftware,KiCad,Pcbnew,(5.1.6)-1*%
%TF.CreationDate,2020-05-30T13:08:14+03:00*%
%TF.ProjectId,stm32f334_1S_charger,73746d33-3266-4333-9334-5f31535f6368,rev?*%
%TF.SameCoordinates,Original*%
%TF.FileFunction,Legend,Bot*%
%TF.FilePolarity,Positive*%
%FSLAX46Y46*%
G04 Gerber Fmt 4.6, Leading zero omitted, Abs format (unit mm)*
G04 Created by KiCad (PCBNEW (5.1.6)-1) date 2020-05-30 13:08:14*
%MOMM*%
%LPD*%
G01*
G04 APERTURE LIST*
%ADD10C,0.120000*%
%ADD11C,0.150000*%
G04 APERTURE END LIST*
D10*
%TO.C,C1*%
X22790000Y-39510436D02*
X22790000Y-40714564D01*
X24610000Y-39510436D02*
X24610000Y-40714564D01*
%TO.C,C5*%
X28010000Y-25502064D02*
X28010000Y-24297936D01*
X26190000Y-25502064D02*
X26190000Y-24297936D01*
%TO.C,C17*%
X77014564Y-23190000D02*
X75810436Y-23190000D01*
X77014564Y-25010000D02*
X75810436Y-25010000D01*
%TO.C,R3*%
X23510436Y-33190000D02*
X24714564Y-33190000D01*
X23510436Y-35010000D02*
X24714564Y-35010000D01*
%TO.C,R4*%
X28910000Y-33714564D02*
X28910000Y-32510436D01*
X27090000Y-33714564D02*
X27090000Y-32510436D01*
%TO.C,R5*%
X24702064Y-32610000D02*
X23497936Y-32610000D01*
X24702064Y-30790000D02*
X23497936Y-30790000D01*
%TO.C,R6*%
X38510000Y-58014564D02*
X38510000Y-56810436D01*
X36690000Y-58014564D02*
X36690000Y-56810436D01*
%TO.C,R7*%
X39190000Y-58014564D02*
X39190000Y-56810436D01*
X41010000Y-58014564D02*
X41010000Y-56810436D01*
%TO.C,C1*%
D11*
X24057142Y-36533333D02*
X24104761Y-36485714D01*
X24152380Y-36342857D01*
X24152380Y-36247619D01*
X24104761Y-36104761D01*
X24009523Y-36009523D01*
X23914285Y-35961904D01*
X23723809Y-35914285D01*
X23580952Y-35914285D01*
X23390476Y-35961904D01*
X23295238Y-36009523D01*
X23200000Y-36104761D01*
X23152380Y-36247619D01*
X23152380Y-36342857D01*
X23200000Y-36485714D01*
X23247619Y-36533333D01*
X24152380Y-37485714D02*
X24152380Y-36914285D01*
X24152380Y-37200000D02*
X23152380Y-37200000D01*
X23295238Y-37104761D01*
X23390476Y-37009523D01*
X23438095Y-36914285D01*
%TO.C,C5*%
X29277142Y-24733333D02*
X29324761Y-24685714D01*
X29372380Y-24542857D01*
X29372380Y-24447619D01*
X29324761Y-24304761D01*
X29229523Y-24209523D01*
X29134285Y-24161904D01*
X28943809Y-24114285D01*
X28800952Y-24114285D01*
X28610476Y-24161904D01*
X28515238Y-24209523D01*
X28420000Y-24304761D01*
X28372380Y-24447619D01*
X28372380Y-24542857D01*
X28420000Y-24685714D01*
X28467619Y-24733333D01*
X28372380Y-25638095D02*
X28372380Y-25161904D01*
X28848571Y-25114285D01*
X28800952Y-25161904D01*
X28753333Y-25257142D01*
X28753333Y-25495238D01*
X28800952Y-25590476D01*
X28848571Y-25638095D01*
X28943809Y-25685714D01*
X29181904Y-25685714D01*
X29277142Y-25638095D01*
X29324761Y-25590476D01*
X29372380Y-25495238D01*
X29372380Y-25257142D01*
X29324761Y-25161904D01*
X29277142Y-25114285D01*
%TO.C,C17*%
X77055357Y-22637142D02*
X77102976Y-22684761D01*
X77245833Y-22732380D01*
X77341071Y-22732380D01*
X77483928Y-22684761D01*
X77579166Y-22589523D01*
X77626785Y-22494285D01*
X77674404Y-22303809D01*
X77674404Y-22160952D01*
X77626785Y-21970476D01*
X77579166Y-21875238D01*
X77483928Y-21780000D01*
X77341071Y-21732380D01*
X77245833Y-21732380D01*
X77102976Y-21780000D01*
X77055357Y-21827619D01*
X76102976Y-22732380D02*
X76674404Y-22732380D01*
X76388690Y-22732380D02*
X76388690Y-21732380D01*
X76483928Y-21875238D01*
X76579166Y-21970476D01*
X76674404Y-22018095D01*
X75769642Y-21732380D02*
X75102976Y-21732380D01*
X75531547Y-22732380D01*
%TO.C,R3*%
X20666666Y-34552380D02*
X21000000Y-34076190D01*
X21238095Y-34552380D02*
X21238095Y-33552380D01*
X20857142Y-33552380D01*
X20761904Y-33600000D01*
X20714285Y-33647619D01*
X20666666Y-33742857D01*
X20666666Y-33885714D01*
X20714285Y-33980952D01*
X20761904Y-34028571D01*
X20857142Y-34076190D01*
X21238095Y-34076190D01*
X20333333Y-33552380D02*
X19714285Y-33552380D01*
X20047619Y-33933333D01*
X19904761Y-33933333D01*
X19809523Y-33980952D01*
X19761904Y-34028571D01*
X19714285Y-34123809D01*
X19714285Y-34361904D01*
X19761904Y-34457142D01*
X19809523Y-34504761D01*
X19904761Y-34552380D01*
X20190476Y-34552380D01*
X20285714Y-34504761D01*
X20333333Y-34457142D01*
%TO.C,R4*%
X28452380Y-29533333D02*
X27976190Y-29200000D01*
X28452380Y-28961904D02*
X27452380Y-28961904D01*
X27452380Y-29342857D01*
X27500000Y-29438095D01*
X27547619Y-29485714D01*
X27642857Y-29533333D01*
X27785714Y-29533333D01*
X27880952Y-29485714D01*
X27928571Y-29438095D01*
X27976190Y-29342857D01*
X27976190Y-28961904D01*
X27785714Y-30390476D02*
X28452380Y-30390476D01*
X27404761Y-30152380D02*
X28119047Y-29914285D01*
X28119047Y-30533333D01*
%TO.C,R5*%
X20666666Y-32152380D02*
X21000000Y-31676190D01*
X21238095Y-32152380D02*
X21238095Y-31152380D01*
X20857142Y-31152380D01*
X20761904Y-31200000D01*
X20714285Y-31247619D01*
X20666666Y-31342857D01*
X20666666Y-31485714D01*
X20714285Y-31580952D01*
X20761904Y-31628571D01*
X20857142Y-31676190D01*
X21238095Y-31676190D01*
X19761904Y-31152380D02*
X20238095Y-31152380D01*
X20285714Y-31628571D01*
X20238095Y-31580952D01*
X20142857Y-31533333D01*
X19904761Y-31533333D01*
X19809523Y-31580952D01*
X19761904Y-31628571D01*
X19714285Y-31723809D01*
X19714285Y-31961904D01*
X19761904Y-32057142D01*
X19809523Y-32104761D01*
X19904761Y-32152380D01*
X20142857Y-32152380D01*
X20238095Y-32104761D01*
X20285714Y-32057142D01*
%TO.C,R6*%
X36052380Y-57233333D02*
X35576190Y-56900000D01*
X36052380Y-56661904D02*
X35052380Y-56661904D01*
X35052380Y-57042857D01*
X35100000Y-57138095D01*
X35147619Y-57185714D01*
X35242857Y-57233333D01*
X35385714Y-57233333D01*
X35480952Y-57185714D01*
X35528571Y-57138095D01*
X35576190Y-57042857D01*
X35576190Y-56661904D01*
X35052380Y-58090476D02*
X35052380Y-57900000D01*
X35100000Y-57804761D01*
X35147619Y-57757142D01*
X35290476Y-57661904D01*
X35480952Y-57614285D01*
X35861904Y-57614285D01*
X35957142Y-57661904D01*
X36004761Y-57709523D01*
X36052380Y-57804761D01*
X36052380Y-57995238D01*
X36004761Y-58090476D01*
X35957142Y-58138095D01*
X35861904Y-58185714D01*
X35623809Y-58185714D01*
X35528571Y-58138095D01*
X35480952Y-58090476D01*
X35433333Y-57995238D01*
X35433333Y-57804761D01*
X35480952Y-57709523D01*
X35528571Y-57661904D01*
X35623809Y-57614285D01*
%TO.C,R7*%
X42552380Y-57245833D02*
X42076190Y-56912500D01*
X42552380Y-56674404D02*
X41552380Y-56674404D01*
X41552380Y-57055357D01*
X41600000Y-57150595D01*
X41647619Y-57198214D01*
X41742857Y-57245833D01*
X41885714Y-57245833D01*
X41980952Y-57198214D01*
X42028571Y-57150595D01*
X42076190Y-57055357D01*
X42076190Y-56674404D01*
X41552380Y-57579166D02*
X41552380Y-58245833D01*
X42552380Y-57817261D01*
%TD*%
M02*
