%TF.GenerationSoftware,KiCad,Pcbnew,(5.1.6)-1*%
%TF.CreationDate,2020-05-30T13:08:14+03:00*%
%TF.ProjectId,stm32f334_1S_charger,73746d33-3266-4333-9334-5f31535f6368,rev?*%
%TF.SameCoordinates,Original*%
%TF.FileFunction,Soldermask,Bot*%
%TF.FilePolarity,Negative*%
%FSLAX46Y46*%
G04 Gerber Fmt 4.6, Leading zero omitted, Abs format (unit mm)*
G04 Created by KiCad (PCBNEW (5.1.6)-1) date 2020-05-30 13:08:14*
%MOMM*%
%LPD*%
G01*
G04 APERTURE LIST*
%ADD10R,1.700000X1.700000*%
%ADD11C,1.700000*%
%ADD12R,2.500000X2.500000*%
%ADD13C,2.500000*%
%ADD14R,2.100000X2.100000*%
%ADD15C,2.100000*%
%ADD16R,1.800000X1.800000*%
%ADD17O,1.800000X1.800000*%
G04 APERTURE END LIST*
%TO.C,C1*%
G36*
G01*
X23042544Y-37862500D02*
X24357456Y-37862500D01*
G75*
G02*
X24625000Y-38130044I0J-267544D01*
G01*
X24625000Y-39119956D01*
G75*
G02*
X24357456Y-39387500I-267544J0D01*
G01*
X23042544Y-39387500D01*
G75*
G02*
X22775000Y-39119956I0J267544D01*
G01*
X22775000Y-38130044D01*
G75*
G02*
X23042544Y-37862500I267544J0D01*
G01*
G37*
G36*
G01*
X23042544Y-40837500D02*
X24357456Y-40837500D01*
G75*
G02*
X24625000Y-41105044I0J-267544D01*
G01*
X24625000Y-42094956D01*
G75*
G02*
X24357456Y-42362500I-267544J0D01*
G01*
X23042544Y-42362500D01*
G75*
G02*
X22775000Y-42094956I0J267544D01*
G01*
X22775000Y-41105044D01*
G75*
G02*
X23042544Y-40837500I267544J0D01*
G01*
G37*
%TD*%
D10*
%TO.C,C3*%
X26200000Y-41600000D03*
D11*
X26200000Y-39100000D03*
%TD*%
D12*
%TO.C,C4*%
X24500000Y-23400000D03*
D13*
X24500000Y-28400000D03*
%TD*%
%TO.C,C5*%
G36*
G01*
X27757456Y-27150000D02*
X26442544Y-27150000D01*
G75*
G02*
X26175000Y-26882456I0J267544D01*
G01*
X26175000Y-25892544D01*
G75*
G02*
X26442544Y-25625000I267544J0D01*
G01*
X27757456Y-25625000D01*
G75*
G02*
X28025000Y-25892544I0J-267544D01*
G01*
X28025000Y-26882456D01*
G75*
G02*
X27757456Y-27150000I-267544J0D01*
G01*
G37*
G36*
G01*
X27757456Y-24175000D02*
X26442544Y-24175000D01*
G75*
G02*
X26175000Y-23907456I0J267544D01*
G01*
X26175000Y-22917544D01*
G75*
G02*
X26442544Y-22650000I267544J0D01*
G01*
X27757456Y-22650000D01*
G75*
G02*
X28025000Y-22917544I0J-267544D01*
G01*
X28025000Y-23907456D01*
G75*
G02*
X27757456Y-24175000I-267544J0D01*
G01*
G37*
%TD*%
D14*
%TO.C,C16*%
X77900000Y-27200000D03*
D15*
X72900000Y-27200000D03*
%TD*%
%TO.C,C17*%
G36*
G01*
X78662500Y-23442544D02*
X78662500Y-24757456D01*
G75*
G02*
X78394956Y-25025000I-267544J0D01*
G01*
X77405044Y-25025000D01*
G75*
G02*
X77137500Y-24757456I0J267544D01*
G01*
X77137500Y-23442544D01*
G75*
G02*
X77405044Y-23175000I267544J0D01*
G01*
X78394956Y-23175000D01*
G75*
G02*
X78662500Y-23442544I0J-267544D01*
G01*
G37*
G36*
G01*
X75687500Y-23442544D02*
X75687500Y-24757456D01*
G75*
G02*
X75419956Y-25025000I-267544J0D01*
G01*
X74430044Y-25025000D01*
G75*
G02*
X74162500Y-24757456I0J267544D01*
G01*
X74162500Y-23442544D01*
G75*
G02*
X74430044Y-23175000I267544J0D01*
G01*
X75419956Y-23175000D01*
G75*
G02*
X75687500Y-23442544I0J-267544D01*
G01*
G37*
%TD*%
%TO.C,F1*%
X24340000Y-15400000D03*
X19260000Y-15400000D03*
%TD*%
D16*
%TO.C,J2*%
X23140000Y-61400000D03*
D17*
X25680000Y-61400000D03*
X28220000Y-61400000D03*
X30760000Y-61400000D03*
X33300000Y-61400000D03*
%TD*%
D16*
%TO.C,J3*%
X37600000Y-61400000D03*
D17*
X40140000Y-61400000D03*
X42680000Y-61400000D03*
X45220000Y-61400000D03*
X47760000Y-61400000D03*
X50300000Y-61400000D03*
X52840000Y-61400000D03*
X55380000Y-61400000D03*
X57920000Y-61400000D03*
X60460000Y-61400000D03*
%TD*%
%TO.C,R3*%
G36*
G01*
X24837500Y-34757456D02*
X24837500Y-33442544D01*
G75*
G02*
X25105044Y-33175000I267544J0D01*
G01*
X26094956Y-33175000D01*
G75*
G02*
X26362500Y-33442544I0J-267544D01*
G01*
X26362500Y-34757456D01*
G75*
G02*
X26094956Y-35025000I-267544J0D01*
G01*
X25105044Y-35025000D01*
G75*
G02*
X24837500Y-34757456I0J267544D01*
G01*
G37*
G36*
G01*
X21862500Y-34757456D02*
X21862500Y-33442544D01*
G75*
G02*
X22130044Y-33175000I267544J0D01*
G01*
X23119956Y-33175000D01*
G75*
G02*
X23387500Y-33442544I0J-267544D01*
G01*
X23387500Y-34757456D01*
G75*
G02*
X23119956Y-35025000I-267544J0D01*
G01*
X22130044Y-35025000D01*
G75*
G02*
X21862500Y-34757456I0J267544D01*
G01*
G37*
%TD*%
%TO.C,R4*%
G36*
G01*
X28657456Y-35362500D02*
X27342544Y-35362500D01*
G75*
G02*
X27075000Y-35094956I0J267544D01*
G01*
X27075000Y-34105044D01*
G75*
G02*
X27342544Y-33837500I267544J0D01*
G01*
X28657456Y-33837500D01*
G75*
G02*
X28925000Y-34105044I0J-267544D01*
G01*
X28925000Y-35094956D01*
G75*
G02*
X28657456Y-35362500I-267544J0D01*
G01*
G37*
G36*
G01*
X28657456Y-32387500D02*
X27342544Y-32387500D01*
G75*
G02*
X27075000Y-32119956I0J267544D01*
G01*
X27075000Y-31130044D01*
G75*
G02*
X27342544Y-30862500I267544J0D01*
G01*
X28657456Y-30862500D01*
G75*
G02*
X28925000Y-31130044I0J-267544D01*
G01*
X28925000Y-32119956D01*
G75*
G02*
X28657456Y-32387500I-267544J0D01*
G01*
G37*
%TD*%
%TO.C,R5*%
G36*
G01*
X23375000Y-31042544D02*
X23375000Y-32357456D01*
G75*
G02*
X23107456Y-32625000I-267544J0D01*
G01*
X22117544Y-32625000D01*
G75*
G02*
X21850000Y-32357456I0J267544D01*
G01*
X21850000Y-31042544D01*
G75*
G02*
X22117544Y-30775000I267544J0D01*
G01*
X23107456Y-30775000D01*
G75*
G02*
X23375000Y-31042544I0J-267544D01*
G01*
G37*
G36*
G01*
X26350000Y-31042544D02*
X26350000Y-32357456D01*
G75*
G02*
X26082456Y-32625000I-267544J0D01*
G01*
X25092544Y-32625000D01*
G75*
G02*
X24825000Y-32357456I0J267544D01*
G01*
X24825000Y-31042544D01*
G75*
G02*
X25092544Y-30775000I267544J0D01*
G01*
X26082456Y-30775000D01*
G75*
G02*
X26350000Y-31042544I0J-267544D01*
G01*
G37*
%TD*%
%TO.C,R6*%
G36*
G01*
X38257456Y-59662500D02*
X36942544Y-59662500D01*
G75*
G02*
X36675000Y-59394956I0J267544D01*
G01*
X36675000Y-58405044D01*
G75*
G02*
X36942544Y-58137500I267544J0D01*
G01*
X38257456Y-58137500D01*
G75*
G02*
X38525000Y-58405044I0J-267544D01*
G01*
X38525000Y-59394956D01*
G75*
G02*
X38257456Y-59662500I-267544J0D01*
G01*
G37*
G36*
G01*
X38257456Y-56687500D02*
X36942544Y-56687500D01*
G75*
G02*
X36675000Y-56419956I0J267544D01*
G01*
X36675000Y-55430044D01*
G75*
G02*
X36942544Y-55162500I267544J0D01*
G01*
X38257456Y-55162500D01*
G75*
G02*
X38525000Y-55430044I0J-267544D01*
G01*
X38525000Y-56419956D01*
G75*
G02*
X38257456Y-56687500I-267544J0D01*
G01*
G37*
%TD*%
%TO.C,R7*%
G36*
G01*
X40757456Y-56687500D02*
X39442544Y-56687500D01*
G75*
G02*
X39175000Y-56419956I0J267544D01*
G01*
X39175000Y-55430044D01*
G75*
G02*
X39442544Y-55162500I267544J0D01*
G01*
X40757456Y-55162500D01*
G75*
G02*
X41025000Y-55430044I0J-267544D01*
G01*
X41025000Y-56419956D01*
G75*
G02*
X40757456Y-56687500I-267544J0D01*
G01*
G37*
G36*
G01*
X40757456Y-59662500D02*
X39442544Y-59662500D01*
G75*
G02*
X39175000Y-59394956I0J267544D01*
G01*
X39175000Y-58405044D01*
G75*
G02*
X39442544Y-58137500I267544J0D01*
G01*
X40757456Y-58137500D01*
G75*
G02*
X41025000Y-58405044I0J-267544D01*
G01*
X41025000Y-59394956D01*
G75*
G02*
X40757456Y-59662500I-267544J0D01*
G01*
G37*
%TD*%
D15*
%TO.C,U1*%
X20900000Y-41600000D03*
X20900000Y-39060000D03*
X20900000Y-36520000D03*
%TD*%
D16*
%TO.C,J1*%
X14600000Y-16500000D03*
D17*
X14600000Y-19040000D03*
%TD*%
D16*
%TO.C,J5*%
X57200000Y-47000000D03*
%TD*%
%TO.C,J6*%
X57200000Y-43300000D03*
%TD*%
%TO.C,J7*%
X57200000Y-39600000D03*
%TD*%
%TO.C,J8*%
X53400000Y-37300000D03*
%TD*%
%TO.C,J9*%
X49700000Y-37300000D03*
%TD*%
%TO.C,J10*%
X46000000Y-37300000D03*
%TD*%
%TO.C,J11*%
X32500000Y-39400000D03*
%TD*%
D17*
%TO.C,J14*%
X101200000Y-51140000D03*
D16*
X101200000Y-48600000D03*
%TD*%
%TO.C,J12*%
X41700000Y-32300000D03*
%TD*%
%TO.C,J13*%
X38900000Y-28000000D03*
%TD*%
M02*
