M48
; DRILL file {KiCad (5.1.6)-1} date 05/30/20 13:08:24
; FORMAT={-:-/ absolute / inch / decimal}
; #@! TF.CreationDate,2020-05-30T13:08:24+03:00
; #@! TF.GenerationSoftware,Kicad,Pcbnew,(5.1.6)-1
; #@! TF.FileFunction,Plated,1,2,PTH
FMAT,2
INCH
T1C0.0157
T2C0.0300
T3C0.0315
T4C0.0394
T5C0.0472
%
G90
G05
T1
X0.7559Y-2.7913
X0.7913Y-2.1811
X0.7992Y-2.7913
X0.8091Y-1.874
X0.8425Y-2.7913
X0.8819Y-2.7913
X0.8937Y-1.8701
X0.9213Y-2.7913
X0.9882Y-1.8346
X1.126Y-1.8701
X1.126Y-1.9094
X1.126Y-1.9528
X1.2323Y-1.0472
X1.2323Y-1.1024
X1.2953Y-1.0433
X1.6063Y-2.0118
X1.6457Y-1.5945
X1.7441Y-2.1535
X1.7795Y-1.6496
X1.9685Y-2.1535
X1.9685Y-2.1535
X1.9921Y-1.8937
X2.0276Y-1.2323
X2.0433Y-2.0433
X2.1063Y-2.1535
X2.1614Y-1.9331
X2.2126Y-0.9803
X2.2244Y-1.9882
X2.3425Y-1.0669
X2.3661Y-2.0433
X2.3661Y-2.8307
X2.4252Y-1.8504
X2.4291Y-1.5591
X2.4724Y-0.9764
X2.6024Y-2.7165
X2.6339Y-1.7047
X3.0669Y-0.9488
X3.2717Y-0.7874
X3.2795Y-0.9606
X3.3307Y-0.9764
X3.3504Y-0.7874
T2
X0.7583Y-0.6063
X0.9583Y-0.6063
T3
X1.0315Y-1.5394
X1.0315Y-1.6378
T4
X3.9843Y-1.9134
X3.9843Y-2.0134
X1.811Y-1.4685
X1.9567Y-1.4685
X2.1024Y-1.4685
X1.5315Y-1.1024
X2.252Y-1.5591
X2.252Y-1.7047
X2.252Y-1.8504
X0.911Y-2.4173
X1.011Y-2.4173
X1.111Y-2.4173
X1.211Y-2.4173
X1.311Y-2.4173
X1.2795Y-1.5512
X2.8701Y-1.0709
X3.0669Y-1.0709
X0.5748Y-0.6496
X0.5748Y-0.7496
X1.6417Y-1.2717
X1.4803Y-2.4173
X1.5803Y-2.4173
X1.6803Y-2.4173
X1.7803Y-2.4173
X1.8803Y-2.4173
X1.9803Y-2.4173
X2.0803Y-2.4173
X2.1803Y-2.4173
X2.2803Y-2.4173
X2.3803Y-2.4173
T5
X0.8228Y-1.4378
X0.8228Y-1.5378
X0.8228Y-1.6378
X0.9646Y-0.9213
X0.9646Y-1.1181
T0
M30
